M48
;Layer_Color=9474304
;FILE_FORMAT=4:4
METRIC,LZ
;TYPE=PLATED
T1F00S00C0.2000
T3F00S00C0.7000
T4F00S00C0.7112
T5F00S00C0.8000
T8F00S00C2.5000
%
T01
X00309Y00088
X0032
X00331
Y00099
X0032
Y0011
X00331
Y00121
X0032
Y00132
X00331
X00309
Y00121
Y0011
Y00099
T03
X000275Y00028
Y000534
Y000788
Y001042
Y001296
Y00155
T04
X0017Y00017
X0026Y00025
X0029Y0006
X00297Y00175
X0027675Y0020025
X00302891Y00219355
X00225Y00218
Y0019
Y0017
X00224Y0012
X00129Y00121
X00105Y0009
X00412Y00093
X00413Y00066
X00411Y00125
X00377Y0017485
X0035Y0016
X00017Y00188
X00025Y00219
X00068Y00053
X0007Y00254
X00043Y00255
X0002
X00085Y0023
X00225Y00238
X00255Y00251
X00321Y0025
X00379Y00233
Y00271
X00354Y00296
X00427Y00306
X00484Y0031
T05
X00521Y00018487
X00516Y00063
X00491
X00466
X00441
X00361Y00018
X00362309Y00314
X00439Y00259
X00464
X00489
X00522309Y00314487
T08
X00293Y00022
X00025Y00305
X00549Y00308
M30
