%TF.GenerationSoftware,Altium Limited,Altium Designer,23.4.1 (23)*%
G04 Layer_Color=65535*
%FSLAX45Y45*%
%MOMM*%
%TF.SameCoordinates,95043EA5-DFE4-4E97-A360-3BE786514F03*%
%TF.FilePolarity,Positive*%
%TF.FileFunction,Legend,Top*%
%TF.Part,Single*%
G01*
G75*
%TA.AperFunction,NonConductor*%
%ADD46C,0.25000*%
%ADD47C,0.60000*%
%ADD48C,0.25400*%
%ADD49C,0.20000*%
D46*
X3352500Y2320000D02*
G03*
X3352500Y2320000I-12500J0D01*
G01*
X3507500Y600000D02*
G03*
X3507500Y600000I-12500J0D01*
G01*
D47*
X3315000Y710000D02*
G03*
X3315000Y710000I-30000J0D01*
G01*
D48*
X4165000Y395000D02*
Y970000D01*
Y395000D02*
X5410000D01*
Y970000D01*
X4165000D02*
X5410000D01*
X2547413Y2505790D02*
Y3180790D01*
X2524914Y3203289D02*
X2547413Y3180790D01*
X709916Y3203289D02*
X2524914D01*
X697414Y3190792D02*
X709916Y3203289D01*
X697414Y2498292D02*
Y3190792D01*
X2259915Y593292D02*
X2534916D01*
X2547413Y605788D01*
Y703289D01*
X707417Y595791D02*
X974914D01*
X697414Y605788D02*
X707417Y595791D01*
X697414Y605788D02*
Y708288D01*
X5048004Y2392325D02*
Y2790000D01*
X4240000D02*
X5048004D01*
X4240000Y2392325D02*
Y2790000D01*
Y2392325D02*
X5048004D01*
X5200000Y2305000D02*
X5600000D01*
Y2855000D01*
X5200000D02*
X5600000D01*
X5200000Y2305000D02*
Y2855000D01*
X4149998Y1614376D02*
Y2244376D01*
X5799998D01*
X4149998Y1094376D02*
Y1614376D01*
Y1094376D02*
X5799998D01*
Y2244376D01*
X5463824Y512257D02*
X5616175Y613825D01*
X5463824D02*
X5616175Y512257D01*
Y664608D02*
X5463824D01*
Y740783D01*
X5489216Y766175D01*
X5540000D01*
X5565392Y740783D01*
Y664608D01*
X5616175Y816959D02*
Y867742D01*
Y842351D01*
X5463824D01*
X5489216Y816959D01*
X2616866Y3196175D02*
Y3043825D01*
X2693041D01*
X2718433Y3069217D01*
Y3170784D01*
X2693041Y3196175D01*
X2616866D01*
X2769216D02*
Y3043825D01*
X2845392D01*
X2870784Y3069217D01*
Y3170784D01*
X2845392Y3196175D01*
X2769216D01*
X2921567Y3170784D02*
X2946959Y3196175D01*
X2997743D01*
X3023134Y3170784D01*
Y3145392D01*
X2997743Y3120000D01*
X2972351D01*
X2997743D01*
X3023134Y3094608D01*
Y3069217D01*
X2997743Y3043825D01*
X2946959D01*
X2921567Y3069217D01*
X4573824Y2842257D02*
X4726175D01*
X4650000D01*
Y2943825D01*
X4573824D01*
X4726175D01*
X4573824Y2994608D02*
X4726175D01*
Y3096175D01*
Y3146959D02*
Y3197742D01*
Y3172351D01*
X4573824D01*
X4599216Y3146959D01*
X4246175Y2819562D02*
X4093824D01*
Y2895737D01*
X4119216Y2921129D01*
X4170000D01*
X4195392Y2895737D01*
Y2819562D01*
Y2870345D02*
X4246175Y2921129D01*
Y2971912D02*
Y3022696D01*
Y2997304D01*
X4093824D01*
X4119216Y2971912D01*
X4246175Y3175046D02*
X4093824D01*
X4170000Y3098871D01*
Y3200438D01*
X219562Y2583825D02*
Y2736175D01*
X295737D01*
X321129Y2710784D01*
Y2660000D01*
X295737Y2634608D01*
X219562D01*
X270345D02*
X321129Y2583825D01*
X371912D02*
X422696D01*
X397304D01*
Y2736175D01*
X371912Y2710784D01*
X498871D02*
X524263Y2736175D01*
X575047D01*
X600438Y2710784D01*
Y2609217D01*
X575047Y2583825D01*
X524263D01*
X498871Y2609217D01*
Y2710784D01*
X5146175Y2854954D02*
X4993825D01*
Y2931129D01*
X5019217Y2956521D01*
X5070000D01*
X5095392Y2931129D01*
Y2854954D01*
Y2905737D02*
X5146175Y2956521D01*
Y3007304D02*
Y3058088D01*
Y3032696D01*
X4993825D01*
X5019217Y3007304D01*
X5146175Y3134263D02*
Y3185047D01*
Y3159655D01*
X4993825D01*
X5019217Y3134263D01*
X3663041Y2823825D02*
Y2976175D01*
X3739217D01*
X3764608Y2950784D01*
Y2900000D01*
X3739217Y2874608D01*
X3663041D01*
X3713825D02*
X3764608Y2823825D01*
X3815392Y2849217D02*
X3840784Y2823825D01*
X3891567D01*
X3916959Y2849217D01*
Y2950784D01*
X3891567Y2976175D01*
X3840784D01*
X3815392Y2950784D01*
Y2925392D01*
X3840784Y2900000D01*
X3916959D01*
X3683041Y2423825D02*
Y2576175D01*
X3759217D01*
X3784608Y2550784D01*
Y2500000D01*
X3759217Y2474608D01*
X3683041D01*
X3733825D02*
X3784608Y2423825D01*
X3835392Y2550784D02*
X3860784Y2576175D01*
X3911567D01*
X3936959Y2550784D01*
Y2525392D01*
X3911567Y2500000D01*
X3936959Y2474608D01*
Y2449217D01*
X3911567Y2423825D01*
X3860784D01*
X3835392Y2449217D01*
Y2474608D01*
X3860784Y2500000D01*
X3835392Y2525392D01*
Y2550784D01*
X3860784Y2500000D02*
X3911567D01*
X2673041Y1973825D02*
Y2126175D01*
X2749216D01*
X2774608Y2100783D01*
Y2050000D01*
X2749216Y2024608D01*
X2673041D01*
X2723825D02*
X2774608Y1973825D01*
X2825392Y2126175D02*
X2926959D01*
Y2100783D01*
X2825392Y1999216D01*
Y1973825D01*
X3623041Y1713825D02*
Y1866175D01*
X3699216D01*
X3724608Y1840783D01*
Y1790000D01*
X3699216Y1764608D01*
X3623041D01*
X3673825D02*
X3724608Y1713825D01*
X3876959Y1866175D02*
X3826175Y1840783D01*
X3775392Y1790000D01*
Y1739216D01*
X3800784Y1713825D01*
X3851567D01*
X3876959Y1739216D01*
Y1764608D01*
X3851567Y1790000D01*
X3775392D01*
X3343041Y2033825D02*
Y2186175D01*
X3419216D01*
X3444608Y2160784D01*
Y2110000D01*
X3419216Y2084608D01*
X3343041D01*
X3393825D02*
X3444608Y2033825D01*
X3596959Y2186175D02*
X3495392D01*
Y2110000D01*
X3546175Y2135392D01*
X3571567D01*
X3596959Y2110000D01*
Y2059217D01*
X3571567Y2033825D01*
X3520784D01*
X3495392Y2059217D01*
X3879914Y1356325D02*
Y1508675D01*
X3956090D01*
X3981481Y1483284D01*
Y1432500D01*
X3956090Y1407108D01*
X3879914D01*
X3930698D02*
X3981481Y1356325D01*
X4108440D02*
Y1508675D01*
X4032265Y1432500D01*
X4133832D01*
X3776175Y860541D02*
X3623824D01*
Y936716D01*
X3649216Y962108D01*
X3700000D01*
X3725392Y936716D01*
Y860541D01*
Y911324D02*
X3776175Y962108D01*
X3649216Y1012892D02*
X3623824Y1038283D01*
Y1089067D01*
X3649216Y1114459D01*
X3674608D01*
X3700000Y1089067D01*
Y1063675D01*
Y1089067D01*
X3725392Y1114459D01*
X3750783D01*
X3776175Y1089067D01*
Y1038283D01*
X3750783Y1012892D01*
X2756175Y2583041D02*
X2603824D01*
Y2659216D01*
X2629216Y2684608D01*
X2680000D01*
X2705392Y2659216D01*
Y2583041D01*
Y2633824D02*
X2756175Y2684608D01*
Y2836959D02*
Y2735392D01*
X2654608Y2836959D01*
X2629216D01*
X2603824Y2811567D01*
Y2760783D01*
X2629216Y2735392D01*
X3926175Y178433D02*
X3773825D01*
Y254608D01*
X3799216Y280000D01*
X3850000D01*
X3875392Y254608D01*
Y178433D01*
Y229216D02*
X3926175Y280000D01*
Y330784D02*
Y381567D01*
Y356176D01*
X3773825D01*
X3799216Y330784D01*
X2976866Y556175D02*
Y403825D01*
X3053041D01*
X3078433Y429217D01*
Y530784D01*
X3053041Y556175D01*
X2976866D01*
X3129216D02*
Y403825D01*
X3205392D01*
X3230784Y429217D01*
Y530784D01*
X3205392Y556175D01*
X3129216D01*
X3383134Y403825D02*
X3281567D01*
X3383134Y505392D01*
Y530784D01*
X3357743Y556175D01*
X3306959D01*
X3281567Y530784D01*
X3022258Y2876175D02*
Y2723825D01*
X3098433D01*
X3123825Y2749216D01*
Y2850783D01*
X3098433Y2876175D01*
X3022258D01*
X3174608D02*
Y2723825D01*
X3250784D01*
X3276176Y2749216D01*
Y2850783D01*
X3250784Y2876175D01*
X3174608D01*
X3326959Y2723825D02*
X3377743D01*
X3352351D01*
Y2876175D01*
X3326959Y2850783D01*
X389779Y2924417D02*
X397035Y2902651D01*
Y2946184D01*
X389779Y2924417D01*
X375268Y2938928D01*
X353501Y2946184D01*
X338990D01*
X317223Y2938928D01*
X302712Y2924417D01*
X295456Y2909906D01*
X288201Y2888139D01*
Y2851861D01*
X295456Y2830095D01*
X302712Y2815583D01*
X317223Y2801072D01*
X338990Y2793817D01*
X353501D01*
X375268Y2801072D01*
X389779Y2815583D01*
X397035Y2830095D01*
X338990Y2946184D02*
X324479Y2938928D01*
X309967Y2924417D01*
X302712Y2909906D01*
X295456Y2888139D01*
Y2851861D01*
X302712Y2830095D01*
X309967Y2815583D01*
X324479Y2801072D01*
X338990Y2793817D01*
X418801Y2917162D02*
X433313Y2924417D01*
X455079Y2946184D01*
Y2793817D01*
X447824Y2938928D02*
Y2793817D01*
X418801D02*
X484102D01*
X553755Y2946184D02*
X531989Y2938928D01*
X517477Y2917162D01*
X510222Y2880884D01*
Y2859117D01*
X517477Y2822839D01*
X531989Y2801072D01*
X553755Y2793817D01*
X568266D01*
X590033Y2801072D01*
X604544Y2822839D01*
X611800Y2859117D01*
Y2880884D01*
X604544Y2917162D01*
X590033Y2938928D01*
X568266Y2946184D01*
X553755D01*
X539244Y2938928D01*
X531989Y2931673D01*
X524733Y2917162D01*
X517477Y2880884D01*
Y2859117D01*
X524733Y2822839D01*
X531989Y2808328D01*
X539244Y2801072D01*
X553755Y2793817D01*
X568266D02*
X582778Y2801072D01*
X590033Y2808328D01*
X597289Y2822839D01*
X604544Y2859117D01*
Y2880884D01*
X597289Y2917162D01*
X590033Y2931673D01*
X582778Y2938928D01*
X568266Y2946184D01*
X69217Y2714608D02*
X43825Y2689217D01*
Y2638433D01*
X69217Y2613041D01*
X170784D01*
X196175Y2638433D01*
Y2689217D01*
X170784Y2714608D01*
Y2765392D02*
X196175Y2790784D01*
Y2841567D01*
X170784Y2866959D01*
X69217D01*
X43825Y2841567D01*
Y2790784D01*
X69217Y2765392D01*
X94608D01*
X120000Y2790784D01*
Y2866959D01*
X49216Y1976521D02*
X23824Y1951129D01*
Y1900345D01*
X49216Y1874953D01*
X150783D01*
X176175Y1900345D01*
Y1951129D01*
X150783Y1976521D01*
X176175Y2027304D02*
Y2078088D01*
Y2052696D01*
X23824D01*
X49216Y2027304D01*
X176175Y2154263D02*
Y2205046D01*
Y2179655D01*
X23824D01*
X49216Y2154263D01*
X3074608Y2000783D02*
X3049216Y2026175D01*
X2998433D01*
X2973041Y2000783D01*
Y1899216D01*
X2998433Y1873825D01*
X3049216D01*
X3074608Y1899216D01*
X3125392Y2026175D02*
X3226959D01*
Y2000783D01*
X3125392Y1899216D01*
Y1873825D01*
X2824608Y2350783D02*
X2799216Y2376175D01*
X2748433D01*
X2723041Y2350783D01*
Y2249216D01*
X2748433Y2223825D01*
X2799216D01*
X2824608Y2249216D01*
X2976959Y2376175D02*
X2926175Y2350783D01*
X2875392Y2300000D01*
Y2249216D01*
X2900784Y2223825D01*
X2951567D01*
X2976959Y2249216D01*
Y2274608D01*
X2951567Y2300000D01*
X2875392D01*
X4009217Y254608D02*
X3983825Y229216D01*
Y178433D01*
X4009217Y153041D01*
X4110783D01*
X4136175Y178433D01*
Y229216D01*
X4110783Y254608D01*
X3983825Y406959D02*
Y305392D01*
X4060000D01*
X4034608Y356175D01*
Y381567D01*
X4060000Y406959D01*
X4110783D01*
X4136175Y381567D01*
Y330784D01*
X4110783Y305392D01*
X3564608Y370784D02*
X3539216Y396175D01*
X3488433D01*
X3463041Y370784D01*
Y269217D01*
X3488433Y243825D01*
X3539216D01*
X3564608Y269217D01*
X3615392Y370784D02*
X3640784Y396175D01*
X3691567D01*
X3716959Y370784D01*
Y345392D01*
X3691567Y320000D01*
X3666175D01*
X3691567D01*
X3716959Y294608D01*
Y269217D01*
X3691567Y243825D01*
X3640784D01*
X3615392Y269217D01*
X3990000Y1690784D02*
X3964608Y1716175D01*
X3913825D01*
X3888433Y1690784D01*
Y1589217D01*
X3913825Y1563825D01*
X3964608D01*
X3990000Y1589217D01*
X4040784Y1563825D02*
X4091567D01*
X4066176D01*
Y1716175D01*
X4040784Y1690784D01*
D49*
X137502Y2355002D02*
Y2395002D01*
X262501Y2355002D02*
Y2395002D01*
X3249999Y2345000D02*
Y2655002D01*
X3150000Y2345000D02*
Y2655002D01*
Y2345000D02*
X3249999D01*
X3150000Y2655002D02*
X3249999D01*
X3014999Y610002D02*
X3385000D01*
X3014999Y1590000D02*
X3385000D01*
%TF.MD5,14d291f1d32fc89271eb2fc96c557169*%
M02*
