%TF.GenerationSoftware,Altium Limited,Altium Designer,23.4.1 (23)*%
G04 Layer_Color=8388736*
%FSLAX45Y45*%
%MOMM*%
%TF.SameCoordinates,95043EA5-DFE4-4E97-A360-3BE786514F03*%
%TF.FilePolarity,Negative*%
%TF.FileFunction,Soldermask,Top*%
%TF.Part,Single*%
G01*
G75*
%TA.AperFunction,SMDPad,CuDef*%
%ADD51R,2.20320X1.10320*%
%ADD52R,1.10320X2.20320*%
%ADD53R,1.15320X1.15320*%
%ADD54R,1.15320X1.20320*%
%TA.AperFunction,ConnectorPad*%
%ADD55R,1.20320X1.15320*%
%TA.AperFunction,SMDPad,CuDef*%
%ADD56R,1.15320X1.15320*%
%TA.AperFunction,ConnectorPad*%
%ADD57R,1.65320X1.05320*%
%TA.AperFunction,SMDPad,CuDef*%
%ADD58O,1.20320X0.80320*%
%ADD59R,1.20320X1.15320*%
%ADD60R,1.60320X0.65320*%
%ADD61R,3.30320X5.38320*%
%ADD62R,1.35320X1.55320*%
%TA.AperFunction,ComponentPad*%
%ADD63C,2.20320*%
%ADD64R,2.20320X2.20320*%
%TA.AperFunction,ViaPad*%
%ADD65C,3.20320*%
%TA.AperFunction,ComponentPad*%
%ADD66O,1.70320X1.72720*%
%ADD67C,1.70320*%
%ADD68O,1.70320X2.20320*%
G04:AMPARAMS|DCode=69|XSize=5.2032mm|YSize=3.2032mm|CornerRadius=0.8516mm|HoleSize=0mm|Usage=FLASHONLY|Rotation=180.000|XOffset=0mm|YOffset=0mm|HoleType=Round|Shape=RoundedRectangle|*
%AMROUNDEDRECTD69*
21,1,5.20320,1.50000,0,0,180.0*
21,1,3.50000,3.20320,0,0,180.0*
1,1,1.70320,-1.75000,0.75000*
1,1,1.70320,1.75000,0.75000*
1,1,1.70320,1.75000,-0.75000*
1,1,1.70320,-1.75000,-0.75000*
%
%ADD69ROUNDEDRECTD69*%
G04:AMPARAMS|DCode=70|XSize=3.2032mm|YSize=5.2032mm|CornerRadius=0.8516mm|HoleSize=0mm|Usage=FLASHONLY|Rotation=180.000|XOffset=0mm|YOffset=0mm|HoleType=Round|Shape=RoundedRectangle|*
%AMROUNDEDRECTD70*
21,1,3.20320,3.50000,0,0,180.0*
21,1,1.50000,5.20320,0,0,180.0*
1,1,1.70320,-0.75000,1.75000*
1,1,1.70320,0.75000,1.75000*
1,1,1.70320,0.75000,-1.75000*
1,1,1.70320,-0.75000,-1.75000*
%
%ADD70ROUNDEDRECTD70*%
G04:AMPARAMS|DCode=71|XSize=5.2032mm|YSize=5.2032mm|CornerRadius=1.3516mm|HoleSize=0mm|Usage=FLASHONLY|Rotation=180.000|XOffset=0mm|YOffset=0mm|HoleType=Round|Shape=RoundedRectangle|*
%AMROUNDEDRECTD71*
21,1,5.20320,2.50000,0,0,180.0*
21,1,2.50000,5.20320,0,0,180.0*
1,1,2.70320,-1.25000,1.25000*
1,1,2.70320,1.25000,1.25000*
1,1,2.70320,1.25000,-1.25000*
1,1,2.70320,-1.25000,-1.25000*
%
%ADD71ROUNDEDRECTD71*%
%ADD72R,2.20320X2.20320*%
%TA.AperFunction,ViaPad*%
%ADD73C,1.47320*%
%ADD74C,0.70320*%
D51*
X696413Y1659289D02*
D03*
Y1532289D02*
D03*
Y2421289D02*
D03*
Y2294289D02*
D03*
Y2167289D02*
D03*
Y2040289D02*
D03*
Y1913289D02*
D03*
Y1786289D02*
D03*
Y1024289D02*
D03*
Y1151289D02*
D03*
Y897289D02*
D03*
Y770289D02*
D03*
Y1405289D02*
D03*
Y1278289D02*
D03*
X2544416D02*
D03*
Y897289D02*
D03*
Y1913289D02*
D03*
Y1024289D02*
D03*
Y770289D02*
D03*
Y2167289D02*
D03*
Y2040289D02*
D03*
Y2294289D02*
D03*
Y1786289D02*
D03*
Y1659289D02*
D03*
Y1532289D02*
D03*
Y1405289D02*
D03*
Y1151289D02*
D03*
Y2421289D02*
D03*
D52*
X1049910Y598285D02*
D03*
X1176910D02*
D03*
X2065910D02*
D03*
X1557910D02*
D03*
X1303910D02*
D03*
X1430910D02*
D03*
X1684910D02*
D03*
X1811910D02*
D03*
X1938910D02*
D03*
X2192910D02*
D03*
D53*
X4370000Y2905625D02*
D03*
Y3055625D02*
D03*
X4889998Y3055623D02*
D03*
Y2905626D02*
D03*
X2757497Y1874999D02*
D03*
Y1725002D02*
D03*
X2854999Y2492500D02*
D03*
Y2642502D02*
D03*
X3839998Y665001D02*
D03*
Y514999D02*
D03*
X3544999Y2859998D02*
D03*
X3540001Y2379566D02*
D03*
Y2529568D02*
D03*
X3544999Y2709996D02*
D03*
D54*
X4029999Y505000D02*
D03*
Y655002D02*
D03*
X425001Y2300001D02*
D03*
Y2449998D02*
D03*
X3764998Y1470002D02*
D03*
Y1619999D02*
D03*
D55*
X274994Y1875005D02*
D03*
X424996D02*
D03*
D56*
X425003Y2091660D02*
D03*
X275006D02*
D03*
X3525000Y1930421D02*
D03*
X3375003D02*
D03*
X3374998Y1750005D02*
D03*
X3525000D02*
D03*
D57*
X200001Y2272498D02*
D03*
Y2477501D02*
D03*
D58*
X3340002Y2405000D02*
D03*
Y2595002D02*
D03*
X3060002Y2405000D02*
D03*
Y2500001D02*
D03*
Y2595002D02*
D03*
X3340002Y2500001D02*
D03*
D59*
X3504999Y472073D02*
D03*
X3655001D02*
D03*
X3274998Y2192072D02*
D03*
X3125001D02*
D03*
X3044574Y1750000D02*
D03*
X3194577D02*
D03*
D60*
X3494998Y677500D02*
D03*
Y742499D02*
D03*
Y807503D02*
D03*
Y872501D02*
D03*
Y937500D02*
D03*
Y1002498D02*
D03*
Y1067502D02*
D03*
Y1132501D02*
D03*
Y1197499D02*
D03*
Y1262498D02*
D03*
Y1327502D02*
D03*
Y1392500D02*
D03*
Y1457499D02*
D03*
Y1522502D02*
D03*
X2905001Y677500D02*
D03*
Y742499D02*
D03*
Y807503D02*
D03*
Y872501D02*
D03*
Y937500D02*
D03*
Y1002498D02*
D03*
Y1067502D02*
D03*
Y1132501D02*
D03*
Y1197499D02*
D03*
Y1262498D02*
D03*
Y1327502D02*
D03*
Y1392500D02*
D03*
Y1457499D02*
D03*
Y1522502D02*
D03*
D61*
X3200002Y1099999D02*
D03*
D62*
X3851872Y930003D02*
D03*
X4026873D02*
D03*
X3851872Y1250002D02*
D03*
X4026873D02*
D03*
D63*
X4660000Y630000D02*
D03*
X4910000D02*
D03*
X5160000D02*
D03*
X4640000Y2590000D02*
D03*
X4890000D02*
D03*
X4390000D02*
D03*
X275002Y1296004D02*
D03*
Y1042004D02*
D03*
Y788004D02*
D03*
Y534004D02*
D03*
Y280004D02*
D03*
D64*
X4410000Y630000D02*
D03*
D65*
X5490000Y3080000D02*
D03*
X2930000Y220000D02*
D03*
X250000Y3050000D02*
D03*
D66*
X5223089Y3144867D02*
D03*
X5210000Y184867D02*
D03*
D67*
X3623089Y3140000D02*
D03*
X3610000Y180000D02*
D03*
D68*
X5300000Y2430000D02*
D03*
Y2730000D02*
D03*
X5475000Y2580000D02*
D03*
D69*
X4649998Y2076876D02*
D03*
D70*
X4399998Y1594376D02*
D03*
D71*
X5009998D02*
D03*
D72*
X275002Y1550004D02*
D03*
D73*
X2970000Y1750000D02*
D03*
X4840000Y3100000D02*
D03*
X1290000Y1210000D02*
D03*
X2240000Y1200000D02*
D03*
X3790000Y2330000D02*
D03*
X4130000Y660000D02*
D03*
X3790000Y2710000D02*
D03*
X3770000Y1748500D02*
D03*
X3210000Y2500000D02*
D03*
X2900000Y600000D02*
D03*
X3500000Y1600000D02*
D03*
X4120000Y930000D02*
D03*
X4110000Y1250000D02*
D03*
X200000Y2550000D02*
D03*
X1700000Y170000D02*
D03*
X850000Y2300000D02*
D03*
X250000Y2190000D02*
D03*
X430000Y2550000D02*
D03*
X170000Y1880000D02*
D03*
X4270000Y3060000D02*
D03*
X2250000Y2380000D02*
D03*
X3028907Y2193548D02*
D03*
X3540000Y2960000D02*
D03*
X2550000Y2510000D02*
D03*
X700000Y2540000D02*
D03*
X2250000Y2180000D02*
D03*
Y1700000D02*
D03*
X1050000Y900000D02*
D03*
X2767500Y2002500D02*
D03*
X680000Y530000D02*
D03*
X2250000Y1900000D02*
D03*
X2600000Y250000D02*
D03*
D74*
X3309999Y879999D02*
D03*
X3200002D02*
D03*
X3090000D02*
D03*
X3309999Y990002D02*
D03*
X3200002D02*
D03*
X3090000D02*
D03*
X3309999Y1099999D02*
D03*
X3200002D02*
D03*
X3090000D02*
D03*
X3309999Y1210001D02*
D03*
X3200002D02*
D03*
X3090000D02*
D03*
X3309999Y1319998D02*
D03*
X3200002D02*
D03*
X3090000D02*
D03*
%TF.MD5,9059ccda29cbf963efdc95249ad1163f*%
M02*
