%TF.GenerationSoftware,Altium Limited,Altium Designer,23.4.1 (23)*%
G04 Layer_Physical_Order=4*
G04 Layer_Color=16711680*
%FSLAX45Y45*%
%MOMM*%
%TF.SameCoordinates,95043EA5-DFE4-4E97-A360-3BE786514F03*%
%TF.FilePolarity,Positive*%
%TF.FileFunction,Copper,L4,Bot,Signal*%
%TF.Part,Single*%
G01*
G75*
%TA.AperFunction,SMDPad,CuDef*%
%ADD15R,0.95000X0.95000*%
%ADD18R,1.00000X0.95000*%
%TA.AperFunction,Conductor*%
%ADD22C,1.00000*%
%ADD23C,0.25400*%
%ADD25C,0.50000*%
%TA.AperFunction,ComponentPad*%
%ADD26C,2.00000*%
%ADD27R,2.00000X2.00000*%
%TA.AperFunction,ViaPad*%
%ADD28C,3.00000*%
%TA.AperFunction,ComponentPad*%
%ADD29O,1.50000X1.52400*%
%ADD30C,1.50000*%
%ADD31O,1.50000X2.00000*%
G04:AMPARAMS|DCode=32|XSize=5mm|YSize=3mm|CornerRadius=0.75mm|HoleSize=0mm|Usage=FLASHONLY|Rotation=180.000|XOffset=0mm|YOffset=0mm|HoleType=Round|Shape=RoundedRectangle|*
%AMROUNDEDRECTD32*
21,1,5.00000,1.50000,0,0,180.0*
21,1,3.50000,3.00000,0,0,180.0*
1,1,1.50000,-1.75000,0.75000*
1,1,1.50000,1.75000,0.75000*
1,1,1.50000,1.75000,-0.75000*
1,1,1.50000,-1.75000,-0.75000*
%
%ADD32ROUNDEDRECTD32*%
G04:AMPARAMS|DCode=33|XSize=3mm|YSize=5mm|CornerRadius=0.75mm|HoleSize=0mm|Usage=FLASHONLY|Rotation=180.000|XOffset=0mm|YOffset=0mm|HoleType=Round|Shape=RoundedRectangle|*
%AMROUNDEDRECTD33*
21,1,3.00000,3.50000,0,0,180.0*
21,1,1.50000,5.00000,0,0,180.0*
1,1,1.50000,-0.75000,1.75000*
1,1,1.50000,0.75000,1.75000*
1,1,1.50000,0.75000,-1.75000*
1,1,1.50000,-0.75000,-1.75000*
%
%ADD33ROUNDEDRECTD33*%
G04:AMPARAMS|DCode=34|XSize=5mm|YSize=5mm|CornerRadius=1.25mm|HoleSize=0mm|Usage=FLASHONLY|Rotation=180.000|XOffset=0mm|YOffset=0mm|HoleType=Round|Shape=RoundedRectangle|*
%AMROUNDEDRECTD34*
21,1,5.00000,2.50000,0,0,180.0*
21,1,2.50000,5.00000,0,0,180.0*
1,1,2.50000,-1.25000,1.25000*
1,1,2.50000,1.25000,1.25000*
1,1,2.50000,1.25000,-1.25000*
1,1,2.50000,-1.25000,-1.25000*
%
%ADD34ROUNDEDRECTD34*%
%ADD35R,2.00000X2.00000*%
%TA.AperFunction,ViaPad*%
%ADD36C,1.27000*%
%ADD37C,0.50000*%
%TA.AperFunction,SMDPad,CuDef*%
%ADD38R,6.00000X6.00000*%
%ADD39R,1.80000X1.50000*%
%ADD40R,2.45000X2.55000*%
%ADD41R,1.45000X0.85000*%
%ADD42R,0.85000X1.45000*%
%ADD43R,0.85000X0.70000*%
%ADD44R,2.40000X2.10000*%
%ADD45R,1.00000X0.60000*%
G36*
X5106501Y3229230D02*
X5128473Y3180000D01*
X5125274Y3172277D01*
X5123337Y3157567D01*
X5223089D01*
Y3144867D01*
X5235789D01*
Y3044072D01*
X5249299Y3045851D01*
X5251878Y3046919D01*
X5291312Y3038200D01*
X5310774Y3029706D01*
X5333497Y3013601D01*
X5339348Y2999475D01*
X5357952Y2971632D01*
X5381631Y2947953D01*
X5409475Y2929348D01*
X5440413Y2916533D01*
X5473257Y2910000D01*
X5506743D01*
X5539587Y2916533D01*
X5570525Y2929348D01*
X5580000Y2935679D01*
X5634578Y2914736D01*
X5650000Y2900589D01*
Y50000D01*
X5315715D01*
X5294954Y87775D01*
X5287699Y120000D01*
X5297699Y133033D01*
X5307816Y157457D01*
X5309752Y172167D01*
X5110248D01*
X5112184Y157457D01*
X5122301Y133033D01*
X5132301Y120000D01*
X5125046Y87775D01*
X5104285Y50000D01*
X3708427D01*
X3705905Y53395D01*
X3684350Y120000D01*
X3686019Y121669D01*
X3698525Y143331D01*
X3705000Y167493D01*
Y192507D01*
X3698525Y216668D01*
X3686019Y238331D01*
X3668331Y256019D01*
X3646668Y268525D01*
X3622507Y275000D01*
X3597493D01*
X3573331Y268525D01*
X3551669Y256019D01*
X3533981Y238331D01*
X3521474Y216668D01*
X3520582Y213341D01*
X3323810D01*
X3107172Y429979D01*
X3057675Y479477D01*
X3057674Y479477D01*
X3053576Y483575D01*
X3042759Y490802D01*
X3036811Y491986D01*
X3001600Y513097D01*
X2981488Y563341D01*
X2982842Y565686D01*
X2988633Y587300D01*
X2809961D01*
X2755667Y539804D01*
X2755353Y539672D01*
X2735451Y535448D01*
X2729156Y537994D01*
X2453341Y813810D01*
Y2084672D01*
X2453341Y2154672D01*
Y2205328D01*
D01*
X2453341Y2224672D01*
Y2386290D01*
X2455249Y2388674D01*
X2503727Y2419543D01*
X2523341Y2425107D01*
X2537300Y2421367D01*
Y2510000D01*
X2550000D01*
Y2522700D01*
X2638633D01*
X2632842Y2544314D01*
X2621138Y2564586D01*
X2604586Y2581138D01*
X2600000Y2583786D01*
Y3106660D01*
X2882492D01*
X2901702Y3058171D01*
X2901875Y3036659D01*
X2893656Y3030353D01*
X2835077Y2971774D01*
X2823857Y2957151D01*
X2816803Y2940123D01*
X2814397Y2921849D01*
Y2575004D01*
X2745001D01*
Y2325004D01*
X2867152D01*
Y2265626D01*
X2869558Y2247353D01*
X2876611Y2230324D01*
X2887831Y2215702D01*
X2954744Y2148789D01*
X2961183Y2143848D01*
X2962090Y2142278D01*
X2977636Y2126731D01*
X2996677Y2115738D01*
X3017914Y2110048D01*
X3039899D01*
X3061136Y2115738D01*
X3080177Y2126731D01*
X3095723Y2142278D01*
X3106716Y2161318D01*
X3112407Y2182555D01*
Y2204541D01*
X3106716Y2225778D01*
X3095723Y2244818D01*
X3080177Y2260365D01*
X3062534Y2270550D01*
X3025001Y2325004D01*
Y2575004D01*
X2955605D01*
Y2892604D01*
X2972825Y2909824D01*
X3105001D01*
X3123275Y2912230D01*
X3140303Y2919283D01*
X3148311Y2925428D01*
X3167502D01*
X3172755Y2961083D01*
X3173199Y2962155D01*
X3175604Y2980412D01*
X3175606Y2980428D01*
X3173199Y2998702D01*
X3172755Y2999774D01*
X3167501Y3035428D01*
X3167468Y3036659D01*
X3235594Y3106660D01*
X3377039D01*
X3387103Y3040828D01*
X3387103Y3036659D01*
Y2993128D01*
X3455002D01*
Y2980428D01*
X3467702D01*
Y2907423D01*
X3468862Y2905414D01*
X3485414Y2888862D01*
X3505686Y2877158D01*
X3527300Y2871367D01*
Y2960000D01*
X3540000D01*
Y2972700D01*
X3628633D01*
X3628017Y2975000D01*
X3631572Y3007831D01*
X3658659Y3049773D01*
X3665202Y3054617D01*
X3681420Y3063981D01*
X3699108Y3081669D01*
X3711615Y3103332D01*
X3718089Y3127493D01*
Y3152507D01*
X3756096Y3207476D01*
X3769355Y3216660D01*
X3987707D01*
X4054334Y3208516D01*
X4119006Y3143844D01*
Y3143843D01*
X4119006Y3143843D01*
X4119006Y3143843D01*
X4119006Y3143842D01*
X4184600Y3078249D01*
Y3078249D01*
X4184601Y3078248D01*
X4185601Y3062846D01*
X4186500Y3049007D01*
X4192189Y3027774D01*
X4192190Y3027770D01*
X4203183Y3008730D01*
X4218730Y2993183D01*
X4237770Y2982190D01*
X4259007Y2976500D01*
X4280993D01*
X4302230Y2982190D01*
X4321270Y2993183D01*
X4336817Y3008730D01*
X4347810Y3027770D01*
X4353500Y3049007D01*
Y3070993D01*
X4347810Y3092230D01*
X4336817Y3111270D01*
X4321270Y3126817D01*
X4302230Y3137810D01*
X4280993Y3143500D01*
X4259007D01*
X4237770Y3137810D01*
X4229063Y3132782D01*
X4226087Y3131065D01*
X4171822Y3185329D01*
X4198610Y3250000D01*
X4806729D01*
X4815635Y3182354D01*
X4807770Y3177810D01*
X4788730Y3166817D01*
X4773183Y3151270D01*
X4762190Y3132230D01*
X4756500Y3110993D01*
Y3089007D01*
X4762190Y3067770D01*
X4773183Y3048730D01*
X4788730Y3033183D01*
X4807770Y3022190D01*
X4829007Y3016500D01*
X4850993D01*
X4872230Y3022190D01*
X4891270Y3033183D01*
X4906817Y3048730D01*
X4917810Y3067770D01*
X4923500Y3089007D01*
Y3110993D01*
X4917810Y3132230D01*
X4906817Y3151270D01*
X4891270Y3166817D01*
X4880961Y3172769D01*
X4872230Y3177810D01*
X4864365Y3182354D01*
X4873271Y3250000D01*
X5088055D01*
X5106501Y3229230D01*
D02*
G37*
G36*
X442700Y2461367D02*
X464314Y2467158D01*
X484586Y2478862D01*
X501138Y2495414D01*
X503785Y2500000D01*
X620441D01*
X628862Y2485414D01*
X645414Y2468862D01*
X665686Y2457158D01*
X687300Y2451367D01*
Y2540000D01*
X712700D01*
Y2451367D01*
X734314Y2457158D01*
X754586Y2468862D01*
X771138Y2485414D01*
X779559Y2500000D01*
X2158022D01*
X2158229Y2499730D01*
X2183183Y2431270D01*
X2172190Y2412230D01*
X2166500Y2390993D01*
Y2369007D01*
X2172190Y2347770D01*
X2183183Y2328730D01*
X2192204Y2319709D01*
X2192240Y2319621D01*
X2195772Y2280000D01*
X2192240Y2240379D01*
X2192204Y2240291D01*
X2183183Y2231270D01*
X2172190Y2212230D01*
X2166500Y2190993D01*
Y2169007D01*
X2172190Y2147770D01*
X2183183Y2128730D01*
X2198730Y2113183D01*
X2217770Y2102190D01*
X2239007Y2096500D01*
X2260993D01*
X2282230Y2102190D01*
X2301270Y2113183D01*
X2316659Y2128572D01*
X2317403Y2128570D01*
X2386659Y2109701D01*
Y1970299D01*
X2317403Y1951430D01*
X2316659Y1951428D01*
X2301270Y1966817D01*
X2282230Y1977810D01*
X2260993Y1983500D01*
X2239007D01*
X2217770Y1977810D01*
X2198730Y1966817D01*
X2183183Y1951270D01*
X2172832Y1933341D01*
X1375797D01*
X1305797Y1933341D01*
X1305796Y1933341D01*
X1300000D01*
X1287241Y1930803D01*
X1276425Y1923575D01*
X1272326Y1919477D01*
X1272326Y1919477D01*
X1222828Y1869979D01*
X455464Y1102615D01*
X441214Y1099648D01*
X385495Y1109595D01*
X357298Y1174477D01*
X365493Y1209153D01*
X375347Y1219007D01*
X391856Y1247602D01*
X400402Y1279495D01*
Y1283304D01*
X275002D01*
X149602D01*
Y1279495D01*
X158148Y1247602D01*
X174657Y1219007D01*
X184511Y1209153D01*
X193673Y1170385D01*
X185399Y1122107D01*
X178978Y1115686D01*
X163180Y1088322D01*
X155002Y1057802D01*
Y1026206D01*
X163180Y995686D01*
X178978Y968322D01*
X189352Y957948D01*
X196305Y915004D01*
X189352Y872060D01*
X178978Y861686D01*
X163180Y834322D01*
X155002Y803802D01*
Y772206D01*
X163180Y741686D01*
X178978Y714322D01*
X189352Y703948D01*
X196305Y661004D01*
X189352Y618060D01*
X178978Y607686D01*
X163180Y580322D01*
X155002Y549802D01*
Y518206D01*
X163180Y487686D01*
X178978Y460322D01*
X189352Y449948D01*
X196305Y407004D01*
X189352Y364060D01*
X178978Y353686D01*
X163180Y326322D01*
X155002Y295802D01*
Y264206D01*
X163180Y233686D01*
X178978Y206322D01*
X201320Y183980D01*
X228683Y168182D01*
X259203Y160004D01*
X290800D01*
X321320Y168182D01*
X342655Y180500D01*
X345632Y182218D01*
X397326Y130523D01*
X398268Y120000D01*
X337197Y50000D01*
X50000D01*
Y1775281D01*
X100103Y1801002D01*
X120000Y1806215D01*
X135686Y1797158D01*
X157300Y1791367D01*
Y1880000D01*
Y1968633D01*
X135686Y1962842D01*
X120000Y1953786D01*
X100103Y1958998D01*
X50000Y1984719D01*
Y2500000D01*
X126215D01*
X128862Y2495414D01*
X145414Y2478862D01*
X165686Y2467158D01*
X187300Y2461367D01*
Y2550000D01*
X212700D01*
Y2461367D01*
X234314Y2467158D01*
X254586Y2478862D01*
X271138Y2495414D01*
X273786Y2500000D01*
X356214D01*
X358862Y2495414D01*
X375414Y2478862D01*
X395686Y2467158D01*
X417300Y2461367D01*
Y2550000D01*
X442700D01*
Y2461367D01*
D02*
G37*
G36*
X2183183Y1648730D02*
X2198730Y1633183D01*
X2217770Y1622190D01*
X2239007Y1616500D01*
X2260993D01*
X2282230Y1622190D01*
X2301270Y1633183D01*
X2316659Y1648572D01*
X2317403Y1648570D01*
X2386659Y1629701D01*
Y1280741D01*
X2335329Y1235668D01*
X2335329Y1235667D01*
X2335328D01*
Y1235668D01*
X2317810Y1232230D01*
X2317027Y1233585D01*
X2306817Y1251270D01*
X2291270Y1266817D01*
X2272230Y1277809D01*
X2250993Y1283500D01*
X2229007D01*
X2179566Y1326177D01*
X2172508Y1338280D01*
Y1535000D01*
X1532508D01*
Y1488920D01*
X1522898Y1422900D01*
X1462508Y1422900D01*
X1420199D01*
Y1322501D01*
X1407499D01*
Y1309801D01*
X1292099D01*
Y1298900D01*
X1278296D01*
X1255686Y1292842D01*
X1235414Y1281138D01*
X1218862Y1264586D01*
X1207158Y1244314D01*
X1201367Y1222700D01*
X1290000D01*
Y1197300D01*
X1201367D01*
X1207158Y1175686D01*
X1218862Y1155414D01*
X1235414Y1138862D01*
X1255686Y1127159D01*
X1278296Y1121100D01*
X1292099D01*
Y1120200D01*
X1407499D01*
Y1107500D01*
X1420199D01*
Y1007100D01*
X1462508D01*
X1522898Y1007100D01*
X1532508Y941080D01*
Y895000D01*
X2172508D01*
Y1061719D01*
X2179566Y1073823D01*
X2229007Y1116500D01*
X2250993D01*
X2272230Y1122190D01*
X2291270Y1133183D01*
X2306817Y1148730D01*
X2317027Y1166414D01*
X2317810Y1167770D01*
X2335328Y1164332D01*
Y1164332D01*
X2335329D01*
Y1164332D01*
X2386659Y1119259D01*
Y875797D01*
X2386659Y805797D01*
X2386659Y805796D01*
Y800000D01*
X2389197Y787241D01*
X2396425Y776424D01*
X2400523Y772326D01*
X2400523Y772325D01*
X2450021Y722828D01*
X2682828Y490021D01*
X2710556Y462292D01*
X2732325Y440523D01*
X2732327Y440522D01*
X2736424Y436424D01*
X2736425Y436424D01*
X2747241Y429197D01*
X2747245Y429197D01*
X2760000Y426659D01*
X2765797Y426659D01*
X2819346Y386943D01*
X2828533Y356659D01*
X2821631Y352048D01*
X2797952Y328369D01*
X2779348Y300525D01*
X2766533Y269587D01*
X2760000Y236743D01*
Y203257D01*
X2766533Y170413D01*
X2779348Y139475D01*
X2792361Y120000D01*
X2784058Y88712D01*
X2760589Y50000D01*
X2474138D01*
X2437926Y105001D01*
X2437926Y205000D01*
X2503095Y216659D01*
X2522832D01*
X2533183Y198730D01*
X2548730Y183183D01*
X2567770Y172190D01*
X2589007Y166500D01*
X2610993D01*
X2632230Y172190D01*
X2651270Y183183D01*
X2666817Y198730D01*
X2677809Y217770D01*
X2683500Y239007D01*
Y260993D01*
X2677809Y282230D01*
X2666817Y301270D01*
X2651270Y316817D01*
X2647209Y319162D01*
X2633340Y348423D01*
X2633341Y350000D01*
X2633340Y350001D01*
X2630803Y362759D01*
X2630800Y362763D01*
X2623575Y373576D01*
X2619476Y377675D01*
X2619476Y377675D01*
X2527675Y469476D01*
Y469477D01*
X2527671Y469480D01*
X2523575Y473575D01*
X2512762Y480800D01*
X2512759Y480803D01*
X2500001Y483341D01*
X2500000Y483341D01*
X2494205Y483341D01*
X2494203Y483341D01*
X2463417Y483341D01*
X2424203D01*
X1002501D01*
Y597100D01*
X1002501Y607499D01*
X1027606Y667100D01*
X1062299Y667100D01*
Y740001D01*
X1074999D01*
Y752701D01*
X1150399D01*
Y812900D01*
X1150399D01*
X1137454Y882900D01*
X1138633Y887300D01*
X961367D01*
X963992Y877501D01*
X943803Y835568D01*
X922038Y807500D01*
X854997D01*
Y676464D01*
X854819Y671541D01*
X842929Y607499D01*
X797500Y607499D01*
X717499D01*
X717499Y607499D01*
X690993Y613500D01*
X669009Y613500D01*
X669007Y613500D01*
X647770Y607810D01*
X628730Y596817D01*
X613183Y581270D01*
X602190Y562230D01*
X596500Y540993D01*
Y519007D01*
X602190Y497770D01*
X613183Y478730D01*
X628730Y463183D01*
X647770Y452190D01*
X669007Y446500D01*
X690993D01*
X712230Y452190D01*
X731270Y463183D01*
X740586Y472499D01*
X837215Y472499D01*
X841558Y471993D01*
X872950Y462094D01*
X876596Y460240D01*
X902473Y381570D01*
X893549Y364859D01*
X885387Y353341D01*
X502816D01*
X380106Y476050D01*
X381653Y478729D01*
X386824Y487686D01*
X395002Y518206D01*
Y549802D01*
X386824Y580322D01*
X371026Y607686D01*
X360651Y618060D01*
X353699Y661004D01*
X360651Y703948D01*
X371026Y714322D01*
X380655Y731000D01*
X428382Y781231D01*
X477879Y830729D01*
X1313810Y1666659D01*
X2172832D01*
X2183183Y1648730D01*
D02*
G37*
%LPC*%
G36*
X5210389Y3132167D02*
X5123337D01*
X5125274Y3117457D01*
X5135390Y3093033D01*
X5151483Y3072060D01*
X5172456Y3055967D01*
X5196880Y3045851D01*
X5210389Y3044072D01*
Y3132167D01*
D02*
G37*
G36*
X3442302Y2967728D02*
X3387103D01*
Y2920028D01*
X3442302D01*
Y2967728D01*
D02*
G37*
G36*
X3628633Y2947300D02*
X3552700D01*
Y2871367D01*
X3574314Y2877158D01*
X3594586Y2888862D01*
X3611138Y2905414D01*
X3622842Y2925686D01*
X3628633Y2947300D01*
D02*
G37*
G36*
X3802700Y2798633D02*
Y2722700D01*
X3878633D01*
X3872842Y2744314D01*
X3861138Y2764586D01*
X3844586Y2781138D01*
X3824314Y2792842D01*
X3802700Y2798633D01*
D02*
G37*
G36*
X3777300D02*
X3755686Y2792842D01*
X3735414Y2781138D01*
X3718862Y2764586D01*
X3707158Y2744314D01*
X3701367Y2722700D01*
X3777300D01*
Y2798633D01*
D02*
G37*
G36*
X4627300Y2715400D02*
X4623491D01*
X4591598Y2706854D01*
X4563003Y2690345D01*
X4555685Y2683027D01*
X4515917Y2671983D01*
X4467567Y2682138D01*
X4463682Y2686024D01*
X4436319Y2701822D01*
X4405798Y2710000D01*
X4374202D01*
X4343682Y2701822D01*
X4316318Y2686024D01*
X4293976Y2663682D01*
X4278178Y2636318D01*
X4270000Y2605798D01*
Y2574202D01*
X4278178Y2543681D01*
X4293976Y2516318D01*
X4316318Y2493976D01*
X4343682Y2478178D01*
X4374202Y2470000D01*
X4405798D01*
X4436319Y2478178D01*
X4463682Y2493976D01*
X4467567Y2497861D01*
X4515917Y2508017D01*
X4555685Y2496973D01*
X4563003Y2489655D01*
X4591598Y2473146D01*
X4623491Y2464600D01*
X4627300D01*
Y2590000D01*
Y2715400D01*
D02*
G37*
G36*
X5487699Y2704595D02*
Y2592700D01*
X5576266D01*
Y2605000D01*
X5572816Y2631210D01*
X5562699Y2655633D01*
X5546606Y2676607D01*
X5525633Y2692699D01*
X5501210Y2702816D01*
X5487699Y2704595D01*
D02*
G37*
G36*
X3222700Y2588633D02*
Y2512700D01*
X3298633D01*
X3292842Y2534314D01*
X3281138Y2554586D01*
X3264586Y2571138D01*
X3244314Y2582842D01*
X3222700Y2588633D01*
D02*
G37*
G36*
X3197300D02*
X3175686Y2582842D01*
X3155414Y2571138D01*
X3138862Y2554586D01*
X3127158Y2534314D01*
X3121367Y2512700D01*
X3197300D01*
Y2588633D01*
D02*
G37*
G36*
X4656509Y2715400D02*
X4652700D01*
Y2590000D01*
Y2464600D01*
X4656509D01*
X4688403Y2473146D01*
X4716997Y2489655D01*
X4724316Y2496973D01*
X4764083Y2508017D01*
X4812433Y2497861D01*
X4816318Y2493976D01*
X4843682Y2478178D01*
X4874202Y2470000D01*
X4905798D01*
X4936319Y2478178D01*
X4963682Y2493976D01*
X4986024Y2516318D01*
X5001822Y2543681D01*
X5010000Y2574202D01*
Y2605798D01*
X5001822Y2636318D01*
X4986024Y2663682D01*
X4963682Y2686024D01*
X4936319Y2701822D01*
X4905798Y2710000D01*
X4874202D01*
X4843682Y2701822D01*
X4816318Y2686024D01*
X4812433Y2682138D01*
X4764083Y2671983D01*
X4724316Y2683027D01*
X4716997Y2690345D01*
X4688403Y2706854D01*
X4656509Y2715400D01*
D02*
G37*
G36*
X5576266Y2567300D02*
X5487699D01*
Y2455406D01*
X5501210Y2457184D01*
X5525633Y2467301D01*
X5546606Y2483394D01*
X5562699Y2504367D01*
X5572816Y2528790D01*
X5576266Y2555000D01*
Y2567300D01*
D02*
G37*
G36*
X2638633Y2497300D02*
X2562700D01*
Y2421367D01*
X2584314Y2427158D01*
X2604586Y2438862D01*
X2621138Y2455414D01*
X2632842Y2475686D01*
X2638633Y2497300D01*
D02*
G37*
G36*
X3298633Y2487300D02*
X3222700D01*
Y2411367D01*
X3244314Y2417158D01*
X3264586Y2428862D01*
X3281138Y2445414D01*
X3292842Y2465686D01*
X3298633Y2487300D01*
D02*
G37*
G36*
X3197300D02*
X3121367D01*
X3127158Y2465686D01*
X3138862Y2445414D01*
X3155414Y2428862D01*
X3175686Y2417158D01*
X3197300Y2411367D01*
Y2487300D01*
D02*
G37*
G36*
X5300000Y2850820D02*
X5275200Y2847555D01*
X5252090Y2837982D01*
X5232245Y2822755D01*
X5217018Y2802910D01*
X5207445Y2779800D01*
X5204180Y2755000D01*
Y2705000D01*
X5207445Y2680200D01*
X5217018Y2657090D01*
X5232245Y2637245D01*
X5252090Y2622018D01*
X5259204Y2619071D01*
X5262734Y2603034D01*
X5261797Y2556693D01*
X5259436Y2546870D01*
X5249367Y2542700D01*
X5228394Y2526607D01*
X5212301Y2505634D01*
X5202184Y2481210D01*
X5198734Y2455000D01*
Y2442700D01*
X5300000D01*
Y2430000D01*
X5312700D01*
Y2305406D01*
X5326210Y2307184D01*
X5350633Y2317301D01*
X5371606Y2333394D01*
X5387699Y2354367D01*
X5397815Y2378790D01*
X5401266Y2405000D01*
X5411891Y2416667D01*
X5462299Y2448553D01*
Y2580000D01*
Y2707162D01*
X5416711Y2734419D01*
X5395819Y2755001D01*
X5392554Y2779800D01*
X5382982Y2802910D01*
X5367754Y2822755D01*
X5347910Y2837982D01*
X5324800Y2847555D01*
X5300000Y2850820D01*
D02*
G37*
G36*
X5287300Y2417300D02*
X5198734D01*
Y2405000D01*
X5202184Y2378790D01*
X5212301Y2354367D01*
X5228394Y2333394D01*
X5249367Y2317301D01*
X5273790Y2307184D01*
X5287300Y2305406D01*
Y2417300D01*
D02*
G37*
G36*
X3879665Y2697300D02*
X3700335D01*
X3695043Y2690403D01*
X3690027D01*
Y2630496D01*
X3655002Y2575004D01*
X3620027Y2575004D01*
X3375003D01*
Y2325004D01*
X3655002D01*
X3713082Y2296225D01*
X3723183Y2278730D01*
X3738730Y2263183D01*
X3757770Y2252190D01*
X3779007Y2246500D01*
X3800993D01*
X3822230Y2252190D01*
X3841270Y2263183D01*
X3856817Y2278730D01*
X3864295Y2291682D01*
X3867810Y2297770D01*
X3867812Y2297781D01*
X3873501Y2319007D01*
X3880428Y2355000D01*
X3880427Y2355000D01*
Y2480000D01*
X3876107D01*
X3871990Y2484603D01*
X3885827Y2554603D01*
X3885827D01*
Y2609803D01*
X3787927D01*
Y2635203D01*
X3885827D01*
Y2690403D01*
X3884957D01*
X3879665Y2697300D01*
D02*
G37*
G36*
X2778493Y2086000D02*
X2756507D01*
X2735270Y2080310D01*
X2716230Y2069317D01*
X2700683Y2053770D01*
X2689690Y2034730D01*
X2684000Y2013493D01*
Y1991507D01*
X2689690Y1970270D01*
X2700683Y1951230D01*
X2716230Y1935683D01*
X2735270Y1924690D01*
X2756507Y1919000D01*
X2778493D01*
X2799730Y1924690D01*
X2818770Y1935683D01*
X2834317Y1951230D01*
X2845310Y1970270D01*
X2851000Y1991507D01*
Y2013493D01*
X2845310Y2034730D01*
X2834317Y2053770D01*
X2818770Y2069317D01*
X2799730Y2080310D01*
X2778493Y2086000D01*
D02*
G37*
G36*
X2982700Y1838633D02*
Y1762700D01*
X3058633D01*
X3052841Y1784314D01*
X3041138Y1804586D01*
X3024586Y1821138D01*
X3004314Y1832842D01*
X2982700Y1838633D01*
D02*
G37*
G36*
X2957300D02*
X2935686Y1832842D01*
X2915414Y1821138D01*
X2898862Y1804586D01*
X2887158Y1784314D01*
X2881367Y1762700D01*
X2957300D01*
Y1838633D01*
D02*
G37*
G36*
X3782700Y1837133D02*
Y1761200D01*
X3858633D01*
X3852842Y1782814D01*
X3841138Y1803086D01*
X3824586Y1819638D01*
X3804314Y1831342D01*
X3782700Y1837133D01*
D02*
G37*
G36*
X3757300D02*
X3735686Y1831342D01*
X3715414Y1819638D01*
X3698862Y1803086D01*
X3687158Y1782814D01*
X3681367Y1761200D01*
X3757300D01*
Y1837133D01*
D02*
G37*
G36*
X3058633Y1737300D02*
X2982700D01*
Y1661367D01*
X3004314Y1667158D01*
X3024586Y1678862D01*
X3041138Y1695414D01*
X3052841Y1715686D01*
X3058633Y1737300D01*
D02*
G37*
G36*
X2957300D02*
X2881367D01*
X2887158Y1715686D01*
X2898862Y1695414D01*
X2915414Y1678862D01*
X2935686Y1667158D01*
X2957300Y1661367D01*
Y1737300D01*
D02*
G37*
G36*
X3858633Y1735800D02*
X3782700D01*
Y1659867D01*
X3804314Y1665658D01*
X3824586Y1677362D01*
X3841138Y1693914D01*
X3852842Y1714186D01*
X3858633Y1735800D01*
D02*
G37*
G36*
X3757300D02*
X3681367D01*
X3687158Y1714186D01*
X3698862Y1693914D01*
X3715414Y1677362D01*
X3735686Y1665658D01*
X3757300Y1659867D01*
Y1735800D01*
D02*
G37*
G36*
X3512700Y1688633D02*
Y1612700D01*
X3588633D01*
X3582842Y1634314D01*
X3571138Y1654586D01*
X3554586Y1671138D01*
X3534314Y1682842D01*
X3512700Y1688633D01*
D02*
G37*
G36*
X3487300D02*
X3465686Y1682842D01*
X3445414Y1671138D01*
X3428862Y1654586D01*
X3417159Y1634314D01*
X3411367Y1612700D01*
X3487300D01*
Y1688633D01*
D02*
G37*
G36*
X5134998Y1871074D02*
X5022698D01*
Y1607077D01*
X5286696D01*
Y1719376D01*
X5281527Y1758638D01*
X5266372Y1795225D01*
X5242264Y1826643D01*
X5210847Y1850750D01*
X5174260Y1865905D01*
X5134998Y1871074D01*
D02*
G37*
G36*
X4824998Y2247696D02*
X4474998D01*
X4450198Y2244431D01*
X4427088Y2234858D01*
X4407243Y2219631D01*
X4392016Y2199786D01*
X4382443Y2176676D01*
X4379178Y2151876D01*
Y2001876D01*
X4382443Y1977076D01*
X4392016Y1953966D01*
X4406419Y1935196D01*
X4405742Y1930009D01*
X4382081Y1865196D01*
X4324998D01*
X4300198Y1861931D01*
X4277088Y1852358D01*
X4257243Y1837131D01*
X4242015Y1817286D01*
X4232443Y1794176D01*
X4229178Y1769376D01*
Y1664980D01*
X3941876D01*
X3923603Y1662574D01*
X3906574Y1655521D01*
X3891952Y1644300D01*
X3777651Y1530000D01*
X3643068D01*
X3631154Y1537059D01*
X3589722Y1587300D01*
X3512700D01*
Y1511367D01*
X3517500Y1512653D01*
X3565357Y1487904D01*
X3587500Y1467036D01*
Y1235000D01*
X3872500D01*
Y1425151D01*
X3971121Y1523772D01*
X4229178D01*
Y1419376D01*
X4232443Y1394576D01*
X4242015Y1371466D01*
X4257243Y1351621D01*
X4277088Y1336394D01*
X4300198Y1326821D01*
X4324998Y1323556D01*
X4329394D01*
Y1140000D01*
Y959242D01*
X4275795Y905644D01*
X4260618Y908515D01*
X4208900Y937744D01*
Y941704D01*
X4202841Y964314D01*
X4191138Y984586D01*
X4174586Y1001138D01*
X4154314Y1012842D01*
X4132700Y1018633D01*
Y930000D01*
X4107300D01*
Y1018633D01*
X4085686Y1012842D01*
X4065414Y1001138D01*
X4048862Y984586D01*
X4037158Y964314D01*
X4031100Y941704D01*
Y940949D01*
X3947900Y857749D01*
X3877900Y870400D01*
Y870400D01*
X3742699D01*
Y717500D01*
Y564600D01*
X3877900D01*
Y683317D01*
X3943921D01*
X3962195Y685723D01*
X3979223Y692777D01*
X3980034Y693399D01*
X4021938Y679273D01*
X4046500Y657656D01*
Y649007D01*
X4052191Y627770D01*
X4063183Y608730D01*
X4078730Y593183D01*
X4097770Y582190D01*
X4119007Y576500D01*
X4140993D01*
X4162230Y582190D01*
X4181270Y593183D01*
X4196817Y608730D01*
X4207810Y627770D01*
X4220050Y628814D01*
X4290000Y567220D01*
Y510000D01*
X4513161D01*
X4530000Y510000D01*
X4600000Y526077D01*
X4613682Y518178D01*
X4644202Y510000D01*
X4675798D01*
X4706319Y518178D01*
X4733682Y533976D01*
X4741520Y541815D01*
X4785000Y550518D01*
X4828480Y541815D01*
X4836318Y533976D01*
X4863682Y518178D01*
X4894202Y510000D01*
X4925798D01*
X4956319Y518178D01*
X4983682Y533976D01*
X4991520Y541815D01*
X5035000Y550518D01*
X5078480Y541815D01*
X5086318Y533976D01*
X5113682Y518178D01*
X5144202Y510000D01*
X5175798D01*
X5206319Y518178D01*
X5233682Y533976D01*
X5256024Y556318D01*
X5271822Y583682D01*
X5280000Y614202D01*
Y645798D01*
X5271822Y676318D01*
X5256024Y703682D01*
X5233682Y726024D01*
X5206319Y741822D01*
X5175798Y750000D01*
X5144202D01*
X5113682Y741822D01*
X5086318Y726024D01*
X5078480Y718186D01*
X5035000Y709482D01*
X4991520Y718186D01*
X4983682Y726024D01*
X4956319Y741822D01*
X4925798Y750000D01*
X4894202D01*
X4863682Y741822D01*
X4836318Y726024D01*
X4828480Y718186D01*
X4785000Y709482D01*
X4741520Y718186D01*
X4733682Y726024D01*
X4706319Y741822D01*
X4675798Y750000D01*
X4644202D01*
X4613682Y741822D01*
X4600000Y733923D01*
X4530000Y750000D01*
X4513161Y750000D01*
X4411308D01*
X4384521Y814671D01*
X4449922Y880073D01*
X4461142Y894695D01*
X4468196Y911724D01*
X4470601Y929997D01*
Y1089397D01*
X4564999D01*
Y1067501D01*
X4689999D01*
Y1071820D01*
X4694602Y1075937D01*
X4764603Y1062100D01*
Y1062100D01*
X4819802D01*
Y1160001D01*
X4845202D01*
Y1062100D01*
X4900403D01*
Y1129104D01*
X4904927Y1132576D01*
X4975381Y1203030D01*
X4986602Y1217653D01*
X4993655Y1234681D01*
X4996061Y1252955D01*
Y1317678D01*
X4997298D01*
Y1581677D01*
X4733300D01*
Y1469376D01*
X4738469Y1430114D01*
X4753624Y1393527D01*
X4777731Y1362110D01*
X4809149Y1338002D01*
X4778726Y1276966D01*
X4772877Y1269071D01*
X4728474Y1250880D01*
X4694602Y1244297D01*
X4689999Y1248290D01*
Y1252500D01*
X4564999D01*
Y1230604D01*
X4470601D01*
Y1323556D01*
X4474997D01*
X4499797Y1326821D01*
X4522907Y1336394D01*
X4542752Y1351621D01*
X4557980Y1371466D01*
X4567552Y1394576D01*
X4570817Y1419376D01*
Y1769376D01*
X4567552Y1794176D01*
X4557980Y1817286D01*
X4543577Y1836056D01*
X4544254Y1841243D01*
X4567914Y1906056D01*
X4766237D01*
X4789999Y1836056D01*
X4777731Y1826643D01*
X4753624Y1795225D01*
X4738469Y1758638D01*
X4733300Y1719376D01*
Y1607077D01*
X4997298D01*
Y1871074D01*
X4925575D01*
X4904216Y1912103D01*
X4898088Y1941074D01*
X4907980Y1953966D01*
X4917553Y1977076D01*
X4920818Y2001876D01*
Y2151876D01*
X4917553Y2176676D01*
X4907980Y2199786D01*
X4892753Y2219631D01*
X4872908Y2234858D01*
X4849798Y2244431D01*
X4824998Y2247696D01*
D02*
G37*
G36*
X3487300Y1587300D02*
X3411367D01*
X3417159Y1565686D01*
X3428862Y1545414D01*
X3445414Y1528862D01*
X3465686Y1517159D01*
X3487300Y1511367D01*
Y1587300D01*
D02*
G37*
G36*
X3322699Y1369290D02*
Y1332698D01*
X3359291D01*
X3352726Y1348548D01*
X3338549Y1362725D01*
X3322699Y1369290D01*
D02*
G37*
G36*
X3297299D02*
X3281450Y1362725D01*
X3267272Y1348548D01*
X3260707Y1332698D01*
X3297299D01*
Y1369290D01*
D02*
G37*
G36*
X3212702D02*
Y1332698D01*
X3249294D01*
X3242729Y1348548D01*
X3228551Y1362725D01*
X3212702Y1369290D01*
D02*
G37*
G36*
X3187302D02*
X3171453Y1362725D01*
X3157275Y1348548D01*
X3150710Y1332698D01*
X3187302D01*
Y1369290D01*
D02*
G37*
G36*
X3102700D02*
Y1332698D01*
X3139292D01*
X3132727Y1348548D01*
X3118549Y1362725D01*
X3102700Y1369290D01*
D02*
G37*
G36*
X3077300D02*
X3061450Y1362725D01*
X3047273Y1348548D01*
X3040708Y1332698D01*
X3077300D01*
Y1369290D01*
D02*
G37*
G36*
X5286696Y1581677D02*
X5022698D01*
Y1317678D01*
X5134998D01*
X5174260Y1322847D01*
X5210847Y1338002D01*
X5242264Y1362110D01*
X5266372Y1393527D01*
X5281527Y1430114D01*
X5286696Y1469376D01*
Y1581677D01*
D02*
G37*
G36*
X3359291Y1307298D02*
X3322699D01*
Y1270706D01*
X3338549Y1277272D01*
X3352726Y1291449D01*
X3359291Y1307298D01*
D02*
G37*
G36*
X3297299D02*
X3260707D01*
X3267272Y1291449D01*
X3281450Y1277272D01*
X3297299Y1270706D01*
Y1307298D01*
D02*
G37*
G36*
X3249294D02*
X3212702D01*
Y1270706D01*
X3228551Y1277272D01*
X3242729Y1291449D01*
X3249294Y1307298D01*
D02*
G37*
G36*
X3187302D02*
X3150710D01*
X3157275Y1291449D01*
X3171453Y1277272D01*
X3187302Y1270706D01*
Y1307298D01*
D02*
G37*
G36*
X3139292D02*
X3102700D01*
Y1270706D01*
X3118549Y1277272D01*
X3132727Y1291449D01*
X3139292Y1307298D01*
D02*
G37*
G36*
X3077300D02*
X3040708D01*
X3047273Y1291449D01*
X3061450Y1277272D01*
X3077300Y1270706D01*
Y1307298D01*
D02*
G37*
G36*
X4122700Y1338633D02*
Y1262700D01*
X4198633D01*
X4192841Y1284314D01*
X4181138Y1304586D01*
X4164586Y1321138D01*
X4144314Y1332842D01*
X4122700Y1338633D01*
D02*
G37*
G36*
X4097300D02*
X4075686Y1332842D01*
X4055414Y1321138D01*
X4038862Y1304586D01*
X4027158Y1284314D01*
X4021367Y1262700D01*
X4097300D01*
Y1338633D01*
D02*
G37*
G36*
X3322699Y1259293D02*
Y1222701D01*
X3359291D01*
X3352726Y1238550D01*
X3338549Y1252728D01*
X3322699Y1259293D01*
D02*
G37*
G36*
X3297299D02*
X3281450Y1252728D01*
X3267272Y1238550D01*
X3260707Y1222701D01*
X3297299D01*
Y1259293D01*
D02*
G37*
G36*
X3212702D02*
Y1222701D01*
X3249294D01*
X3242729Y1238550D01*
X3228551Y1252728D01*
X3212702Y1259293D01*
D02*
G37*
G36*
X3187302D02*
X3171453Y1252728D01*
X3157275Y1238550D01*
X3150710Y1222701D01*
X3187302D01*
Y1259293D01*
D02*
G37*
G36*
X3102700D02*
Y1222701D01*
X3139292D01*
X3132727Y1238550D01*
X3118549Y1252728D01*
X3102700Y1259293D01*
D02*
G37*
G36*
X3077300D02*
X3061450Y1252728D01*
X3047273Y1238550D01*
X3040708Y1222701D01*
X3077300D01*
Y1259293D01*
D02*
G37*
G36*
X4198633Y1237300D02*
X4122700D01*
Y1161367D01*
X4144314Y1167158D01*
X4164586Y1178862D01*
X4181138Y1195414D01*
X4192841Y1215686D01*
X4198633Y1237300D01*
D02*
G37*
G36*
X4097300D02*
X4021367D01*
X4027158Y1215686D01*
X4038862Y1195414D01*
X4055414Y1178862D01*
X4075686Y1167158D01*
X4097300Y1161367D01*
Y1237300D01*
D02*
G37*
G36*
X3359291Y1197301D02*
X3322699D01*
Y1160709D01*
X3338549Y1167274D01*
X3352726Y1181452D01*
X3359291Y1197301D01*
D02*
G37*
G36*
X3297299D02*
X3260707D01*
X3267272Y1181452D01*
X3281450Y1167274D01*
X3297299Y1160709D01*
Y1197301D01*
D02*
G37*
G36*
X3249294D02*
X3212702D01*
Y1160709D01*
X3228551Y1167274D01*
X3242729Y1181452D01*
X3249294Y1197301D01*
D02*
G37*
G36*
X3187302D02*
X3150710D01*
X3157275Y1181452D01*
X3171453Y1167274D01*
X3187302Y1160709D01*
Y1197301D01*
D02*
G37*
G36*
X3139292D02*
X3102700D01*
Y1160709D01*
X3118549Y1167274D01*
X3132727Y1181452D01*
X3139292Y1197301D01*
D02*
G37*
G36*
X3077300D02*
X3040708D01*
X3047273Y1181452D01*
X3061450Y1167274D01*
X3077300Y1160709D01*
Y1197301D01*
D02*
G37*
G36*
X3322699Y1149291D02*
Y1112699D01*
X3359291D01*
X3352726Y1128548D01*
X3338549Y1142726D01*
X3322699Y1149291D01*
D02*
G37*
G36*
X3297299D02*
X3281450Y1142726D01*
X3267272Y1128548D01*
X3260707Y1112699D01*
X3297299D01*
Y1149291D01*
D02*
G37*
G36*
X3212702D02*
Y1112699D01*
X3249294D01*
X3242729Y1128548D01*
X3228551Y1142726D01*
X3212702Y1149291D01*
D02*
G37*
G36*
X3187302D02*
X3171453Y1142726D01*
X3157275Y1128548D01*
X3150710Y1112699D01*
X3187302D01*
Y1149291D01*
D02*
G37*
G36*
X3102700D02*
Y1112699D01*
X3139292D01*
X3132727Y1128548D01*
X3118549Y1142726D01*
X3102700Y1149291D01*
D02*
G37*
G36*
X3077300D02*
X3061450Y1142726D01*
X3047273Y1128548D01*
X3040708Y1112699D01*
X3077300D01*
Y1149291D01*
D02*
G37*
G36*
X3359291Y1087299D02*
X3322699D01*
Y1050707D01*
X3338549Y1057272D01*
X3352726Y1071449D01*
X3359291Y1087299D01*
D02*
G37*
G36*
X3297299D02*
X3260707D01*
X3267272Y1071449D01*
X3281450Y1057272D01*
X3297299Y1050707D01*
Y1087299D01*
D02*
G37*
G36*
X3249294D02*
X3212702D01*
Y1050707D01*
X3228551Y1057272D01*
X3242729Y1071449D01*
X3249294Y1087299D01*
D02*
G37*
G36*
X3187302D02*
X3150710D01*
X3157275Y1071449D01*
X3171453Y1057272D01*
X3187302Y1050707D01*
Y1087299D01*
D02*
G37*
G36*
X3139292D02*
X3102700D01*
Y1050707D01*
X3118549Y1057272D01*
X3132727Y1071449D01*
X3139292Y1087299D01*
D02*
G37*
G36*
X3077300D02*
X3040708D01*
X3047273Y1071449D01*
X3061450Y1057272D01*
X3077300Y1050707D01*
Y1087299D01*
D02*
G37*
G36*
X3322699Y1039294D02*
Y1002702D01*
X3359291D01*
X3352726Y1018551D01*
X3338549Y1032728D01*
X3322699Y1039294D01*
D02*
G37*
G36*
X3297299D02*
X3281450Y1032728D01*
X3267272Y1018551D01*
X3260707Y1002702D01*
X3297299D01*
Y1039294D01*
D02*
G37*
G36*
X3212702D02*
Y1002702D01*
X3249294D01*
X3242729Y1018551D01*
X3228551Y1032728D01*
X3212702Y1039294D01*
D02*
G37*
G36*
X3187302D02*
X3171453Y1032728D01*
X3157275Y1018551D01*
X3150710Y1002702D01*
X3187302D01*
Y1039294D01*
D02*
G37*
G36*
X3102700D02*
Y1002702D01*
X3139292D01*
X3132727Y1018551D01*
X3118549Y1032728D01*
X3102700Y1039294D01*
D02*
G37*
G36*
X3077300D02*
X3061450Y1032728D01*
X3047273Y1018551D01*
X3040708Y1002702D01*
X3077300D01*
Y1039294D01*
D02*
G37*
G36*
X3359291Y977302D02*
X3322699D01*
Y940710D01*
X3338549Y947275D01*
X3352726Y961452D01*
X3359291Y977302D01*
D02*
G37*
G36*
X3297299D02*
X3260707D01*
X3267272Y961452D01*
X3281450Y947275D01*
X3297299Y940710D01*
Y977302D01*
D02*
G37*
G36*
X3249294D02*
X3212702D01*
Y940710D01*
X3228551Y947275D01*
X3242729Y961452D01*
X3249294Y977302D01*
D02*
G37*
G36*
X3187302D02*
X3150710D01*
X3157275Y961452D01*
X3171453Y947275D01*
X3187302Y940710D01*
Y977302D01*
D02*
G37*
G36*
X3139292D02*
X3102700D01*
Y940710D01*
X3118549Y947275D01*
X3132727Y961452D01*
X3139292Y977302D01*
D02*
G37*
G36*
X3077300D02*
X3040708D01*
X3047273Y961452D01*
X3061450Y947275D01*
X3077300Y940710D01*
Y977302D01*
D02*
G37*
G36*
X3322699Y929291D02*
Y892699D01*
X3359291D01*
X3352726Y908549D01*
X3338549Y922726D01*
X3322699Y929291D01*
D02*
G37*
G36*
X3297299D02*
X3281450Y922726D01*
X3267272Y908549D01*
X3260707Y892699D01*
X3297299D01*
Y929291D01*
D02*
G37*
G36*
X3212702D02*
Y892699D01*
X3249294D01*
X3242729Y908549D01*
X3228551Y922726D01*
X3212702Y929291D01*
D02*
G37*
G36*
X3187302D02*
X3171453Y922726D01*
X3157275Y908549D01*
X3150710Y892699D01*
X3187302D01*
Y929291D01*
D02*
G37*
G36*
X3102700D02*
Y892699D01*
X3139292D01*
X3132727Y908549D01*
X3118549Y922726D01*
X3102700Y929291D01*
D02*
G37*
G36*
X3077300D02*
X3061450Y922726D01*
X3047273Y908549D01*
X3040708Y892699D01*
X3077300D01*
Y929291D01*
D02*
G37*
G36*
X3359291Y867299D02*
X3322699D01*
Y830707D01*
X3338549Y837272D01*
X3352726Y851450D01*
X3359291Y867299D01*
D02*
G37*
G36*
X3297299D02*
X3260707D01*
X3267272Y851450D01*
X3281450Y837272D01*
X3297299Y830707D01*
Y867299D01*
D02*
G37*
G36*
X3249294D02*
X3212702D01*
Y830707D01*
X3228551Y837272D01*
X3242729Y851450D01*
X3249294Y867299D01*
D02*
G37*
G36*
X3187302D02*
X3150710D01*
X3157275Y851450D01*
X3171453Y837272D01*
X3187302Y830707D01*
Y867299D01*
D02*
G37*
G36*
X3139292D02*
X3102700D01*
Y830707D01*
X3118549Y837272D01*
X3132727Y851450D01*
X3139292Y867299D01*
D02*
G37*
G36*
X3077300D02*
X3040708D01*
X3047273Y851450D01*
X3061450Y837272D01*
X3077300Y830707D01*
Y867299D01*
D02*
G37*
G36*
X3717299Y870400D02*
X3582100D01*
Y730200D01*
X3717299D01*
Y870400D01*
D02*
G37*
G36*
X2912700Y688633D02*
Y612700D01*
X2988633D01*
X2982842Y634314D01*
X2971138Y654586D01*
X2954586Y671138D01*
X2934314Y682842D01*
X2912700Y688633D01*
D02*
G37*
G36*
X2887300D02*
X2865686Y682842D01*
X2845414Y671138D01*
X2828862Y654586D01*
X2817158Y634314D01*
X2811367Y612700D01*
X2887300D01*
Y688633D01*
D02*
G37*
G36*
X3717299Y704800D02*
X3582100D01*
Y564600D01*
X3717299D01*
Y704800D01*
D02*
G37*
G36*
X5222700Y285661D02*
Y197567D01*
X5309752D01*
X5307816Y212276D01*
X5297699Y236700D01*
X5281606Y257673D01*
X5260633Y273766D01*
X5236210Y283882D01*
X5222700Y285661D01*
D02*
G37*
G36*
X5197300D02*
X5183790Y283882D01*
X5159367Y273766D01*
X5138394Y257673D01*
X5122301Y236700D01*
X5112184Y212276D01*
X5110248Y197567D01*
X5197300D01*
Y285661D01*
D02*
G37*
G36*
X860993Y2383500D02*
X839007D01*
X817770Y2377810D01*
X798730Y2366817D01*
X783183Y2351270D01*
X772190Y2332230D01*
X766500Y2310993D01*
Y2289007D01*
X772190Y2267770D01*
X783183Y2248730D01*
X798730Y2233183D01*
X817770Y2222190D01*
X839007Y2216500D01*
X860993D01*
X882230Y2222190D01*
X901270Y2233183D01*
X916817Y2248730D01*
X927810Y2267770D01*
X933500Y2289007D01*
Y2310993D01*
X927810Y2332230D01*
X916817Y2351270D01*
X901270Y2366817D01*
X882230Y2377810D01*
X860993Y2383500D01*
D02*
G37*
G36*
X260993Y2273500D02*
X239007D01*
X217770Y2267810D01*
X198730Y2256817D01*
X183183Y2241270D01*
X172190Y2222230D01*
X166500Y2200993D01*
Y2179007D01*
X172190Y2157770D01*
X183183Y2138730D01*
X198730Y2123183D01*
X217770Y2112190D01*
X239007Y2106500D01*
X260993D01*
X282230Y2112190D01*
X301270Y2123183D01*
X316817Y2138730D01*
X327810Y2157770D01*
X333500Y2179007D01*
Y2200993D01*
X327810Y2222230D01*
X316817Y2241270D01*
X301270Y2256817D01*
X282230Y2267810D01*
X260993Y2273500D01*
D02*
G37*
G36*
X182700Y1968633D02*
Y1892700D01*
X258633D01*
X252842Y1914314D01*
X241138Y1934586D01*
X224586Y1951138D01*
X204314Y1962842D01*
X182700Y1968633D01*
D02*
G37*
G36*
X258633Y1867300D02*
X182700D01*
Y1791367D01*
X204314Y1797158D01*
X224586Y1808862D01*
X241138Y1825414D01*
X252842Y1845686D01*
X258633Y1867300D01*
D02*
G37*
G36*
X395002Y1670004D02*
X155002D01*
Y1448537D01*
X155001Y1430004D01*
X167153Y1360004D01*
X158148Y1344407D01*
X149602Y1312513D01*
Y1308704D01*
X275002D01*
X400402D01*
Y1312513D01*
X391856Y1344407D01*
X382851Y1360004D01*
X395002Y1430004D01*
X395002Y1446542D01*
Y1670004D01*
D02*
G37*
G36*
X1394799Y1422900D02*
X1292099D01*
Y1335201D01*
X1394799D01*
Y1422900D01*
D02*
G37*
G36*
Y1094800D02*
X1292099D01*
Y1007100D01*
X1394799D01*
Y1094800D01*
D02*
G37*
G36*
X1062700Y988633D02*
Y912700D01*
X1138633D01*
X1132842Y934314D01*
X1121138Y954586D01*
X1104586Y971138D01*
X1084314Y982842D01*
X1062700Y988633D01*
D02*
G37*
G36*
X1037300D02*
X1015686Y982842D01*
X995414Y971138D01*
X978862Y954586D01*
X967158Y934314D01*
X961367Y912700D01*
X1037300D01*
Y988633D01*
D02*
G37*
G36*
X1150399Y727301D02*
X1087699D01*
Y667100D01*
X1150399D01*
Y727301D01*
D02*
G37*
%LPD*%
D15*
X784998Y539999D02*
D03*
X935001D02*
D03*
X1950000Y325000D02*
D03*
X1800000D02*
D03*
X1000000Y125000D02*
D03*
X1150000D02*
D03*
D18*
X924997Y740000D02*
D03*
X1074999D02*
D03*
D22*
X1295000Y1215000D02*
X1407499D01*
X1290000Y1210000D02*
X1295000Y1215000D01*
X1852508Y1215000D02*
X1867509Y1200000D01*
X2240000D01*
X4832503Y1160000D02*
Y1175000D01*
X4840003Y1182501D01*
X4855003D01*
X4925457Y1252955D01*
Y1509835D01*
X5009998Y1594376D01*
X4399998Y1140000D02*
Y1594376D01*
Y929997D02*
Y1140000D01*
X4419998Y1160000D02*
X4627499D01*
X4399998Y1140000D02*
X4419998Y1160000D01*
X3730000Y717500D02*
X3766421Y753921D01*
X3943921D01*
X4120000Y930000D01*
X3730000Y1382500D02*
Y1387500D01*
X3802500Y1460000D01*
X3807500D01*
X3941876Y1594376D01*
X4399998D01*
X4130000Y660000D02*
X4399998Y929997D01*
X3787927Y2622503D02*
X3788963Y2623540D01*
Y2708963D01*
X3790000Y2710000D01*
X3515003Y2450004D02*
X3547507Y2417500D01*
X3787927D01*
X2885001Y2450004D02*
X2937756Y2397249D01*
Y2265626D02*
Y2397249D01*
Y2265626D02*
X3004668Y2198714D01*
X3023740D02*
X3028907Y2193548D01*
X3004668Y2198714D02*
X3023740D01*
X2885001Y2450004D02*
Y2921849D01*
X2943580Y2980428D01*
X3105001D01*
D23*
X3310000Y180000D02*
X3610000D01*
X2760000Y460000D02*
X3030000D01*
X3310000Y180000D01*
X2420000Y800000D02*
X2760000Y460000D01*
X2420000Y800000D02*
Y2180000D01*
X1034800Y65200D02*
X1060000Y40000D01*
X2252925D02*
X2330626Y117700D01*
X1060000Y40000D02*
X2252925D01*
X1612300Y207700D02*
X1634807D01*
X1672507Y170000D01*
X1700000D01*
X1595000Y225000D02*
X1612300Y207700D01*
X2520000Y3250000D02*
X4060000D01*
X2350000Y2480000D02*
Y3080000D01*
X2520000Y3250000D01*
X2250000Y2380000D02*
X2350000Y2480000D01*
X4230000Y3074879D02*
Y3080000D01*
Y3074879D02*
X4244879Y3060000D01*
X4270000D01*
X4060000Y3250000D02*
X4230000Y3080000D01*
X2420000Y3040000D02*
X2520000Y3140000D01*
X2420000Y2180000D02*
Y3040000D01*
X2520000Y3140000D02*
X3623089D01*
X2250000Y2180000D02*
X2420000D01*
X1000000Y125000D02*
X1034800Y90200D01*
Y65200D02*
Y90200D01*
X950000Y450000D02*
X2500000D01*
X935001Y464999D02*
X950000Y450000D01*
X935001Y464999D02*
Y729997D01*
X489006Y320000D02*
X1355000D01*
X275002Y534004D02*
X489006Y320000D01*
X425000Y150000D02*
X975000D01*
X294996Y280004D02*
X425000Y150000D01*
X1300000Y1700000D02*
X2250000D01*
X275002Y788004D02*
X285220Y798223D01*
X398223D01*
X1300000Y1700000D01*
X275002Y1042004D02*
X442004D01*
X1300000Y1900000D02*
X2250000D01*
X442004Y1042004D02*
X1300000Y1900000D01*
X2600000Y250000D02*
Y350000D01*
X2500000Y450000D02*
X2600000Y350000D01*
X1050000Y764999D02*
X1074999Y740000D01*
X1050000Y764999D02*
Y900000D01*
X680000Y530000D02*
X774999D01*
X784998Y539999D01*
X924997Y740000D02*
X935001Y729997D01*
X2127926Y250000D02*
X2600000D01*
X2347925Y155000D02*
X2367926D01*
X2330626Y137700D02*
X2347925Y155000D01*
X2330626Y117700D02*
Y137700D01*
X1950000Y325000D02*
X1970000Y345000D01*
X2367926D01*
X1355000Y320000D02*
X1360000Y325000D01*
X1800000D01*
X1350000Y125000D02*
X1355000Y130000D01*
X1150000Y125000D02*
X1350000D01*
X275002Y280004D02*
X294996D01*
D25*
X3455003Y2980428D02*
X3465003Y2970428D01*
X3529572D01*
X3540000Y2960000D01*
D26*
X4660000Y630000D02*
D03*
X4910000D02*
D03*
X5160000D02*
D03*
X4640000Y2590000D02*
D03*
X4890000D02*
D03*
X4390000D02*
D03*
X275002Y1296004D02*
D03*
Y1042004D02*
D03*
Y788004D02*
D03*
Y534004D02*
D03*
Y280004D02*
D03*
D27*
X4410000Y630000D02*
D03*
D28*
X5490000Y3080000D02*
D03*
X2930000Y220000D02*
D03*
X250000Y3050000D02*
D03*
D29*
X5223089Y3144867D02*
D03*
X5210000Y184867D02*
D03*
D30*
X3623089Y3140000D02*
D03*
X3610000Y180000D02*
D03*
D31*
X5300000Y2430000D02*
D03*
Y2730000D02*
D03*
X5475000Y2580000D02*
D03*
D32*
X4649998Y2076876D02*
D03*
D33*
X4399998Y1594376D02*
D03*
D34*
X5009998D02*
D03*
D35*
X275002Y1550004D02*
D03*
D36*
X2970000Y1750000D02*
D03*
X4840000Y3100000D02*
D03*
X1290000Y1210000D02*
D03*
X2240000Y1200000D02*
D03*
X3790000Y2330000D02*
D03*
X4130000Y660000D02*
D03*
X3790000Y2710000D02*
D03*
X3770000Y1748500D02*
D03*
X3210000Y2500000D02*
D03*
X2900000Y600000D02*
D03*
X3500000Y1600000D02*
D03*
X4120000Y930000D02*
D03*
X4110000Y1250000D02*
D03*
X200000Y2550000D02*
D03*
X1700000Y170000D02*
D03*
X850000Y2300000D02*
D03*
X250000Y2190000D02*
D03*
X430000Y2550000D02*
D03*
X170000Y1880000D02*
D03*
X4270000Y3060000D02*
D03*
X2250000Y2380000D02*
D03*
X3028907Y2193548D02*
D03*
X3540000Y2960000D02*
D03*
X2550000Y2510000D02*
D03*
X700000Y2540000D02*
D03*
X2250000Y2180000D02*
D03*
Y1700000D02*
D03*
X1050000Y900000D02*
D03*
X2767500Y2002500D02*
D03*
X680000Y530000D02*
D03*
X2250000Y1900000D02*
D03*
X2600000Y250000D02*
D03*
D37*
X3309999Y879999D02*
D03*
X3200002D02*
D03*
X3090000D02*
D03*
X3309999Y990002D02*
D03*
X3200002D02*
D03*
X3090000D02*
D03*
X3309999Y1099999D02*
D03*
X3200002D02*
D03*
X3090000D02*
D03*
X3309999Y1210001D02*
D03*
X3200002D02*
D03*
X3090000D02*
D03*
X3309999Y1319998D02*
D03*
X3200002D02*
D03*
X3090000D02*
D03*
D38*
X1852508Y1215000D02*
D03*
D39*
X1407499Y1107500D02*
D03*
Y1322500D02*
D03*
D40*
X3730000Y717500D02*
D03*
Y1382500D02*
D03*
D41*
X3787927Y2622503D02*
D03*
Y2417500D02*
D03*
D42*
X4832503Y1160000D02*
D03*
X4627499D02*
D03*
D43*
X3105001Y2980428D02*
D03*
X3455003D02*
D03*
D44*
X3515003Y2450004D02*
D03*
X2885001D02*
D03*
D45*
X1355000Y130000D02*
D03*
Y320000D02*
D03*
X1595000Y225000D02*
D03*
X2367926Y345000D02*
D03*
Y155000D02*
D03*
X2127926Y250000D02*
D03*
%TF.MD5,8f7580b0012649c7d92a67ffb1f87eae*%
M02*
