%TF.GenerationSoftware,Altium Limited,Altium Designer,23.4.1 (23)*%
G04 Layer_Color=16711935*
%FSLAX45Y45*%
%MOMM*%
%TF.SameCoordinates,95043EA5-DFE4-4E97-A360-3BE786514F03*%
%TF.FilePolarity,Negative*%
%TF.FileFunction,Soldermask,Bot*%
%TF.Part,Single*%
G01*
G75*
%TA.AperFunction,SMDPad,CuDef*%
%ADD56R,1.15320X1.15320*%
%ADD59R,1.20320X1.15320*%
%TA.AperFunction,ComponentPad*%
%ADD63C,2.20320*%
%ADD64R,2.20320X2.20320*%
%TA.AperFunction,ViaPad*%
%ADD65C,3.20320*%
%TA.AperFunction,ComponentPad*%
%ADD66O,1.70320X1.72720*%
%ADD67C,1.70320*%
%ADD68O,1.70320X2.20320*%
G04:AMPARAMS|DCode=69|XSize=5.2032mm|YSize=3.2032mm|CornerRadius=0.8516mm|HoleSize=0mm|Usage=FLASHONLY|Rotation=180.000|XOffset=0mm|YOffset=0mm|HoleType=Round|Shape=RoundedRectangle|*
%AMROUNDEDRECTD69*
21,1,5.20320,1.50000,0,0,180.0*
21,1,3.50000,3.20320,0,0,180.0*
1,1,1.70320,-1.75000,0.75000*
1,1,1.70320,1.75000,0.75000*
1,1,1.70320,1.75000,-0.75000*
1,1,1.70320,-1.75000,-0.75000*
%
%ADD69ROUNDEDRECTD69*%
G04:AMPARAMS|DCode=70|XSize=3.2032mm|YSize=5.2032mm|CornerRadius=0.8516mm|HoleSize=0mm|Usage=FLASHONLY|Rotation=180.000|XOffset=0mm|YOffset=0mm|HoleType=Round|Shape=RoundedRectangle|*
%AMROUNDEDRECTD70*
21,1,3.20320,3.50000,0,0,180.0*
21,1,1.50000,5.20320,0,0,180.0*
1,1,1.70320,-0.75000,1.75000*
1,1,1.70320,0.75000,1.75000*
1,1,1.70320,0.75000,-1.75000*
1,1,1.70320,-0.75000,-1.75000*
%
%ADD70ROUNDEDRECTD70*%
G04:AMPARAMS|DCode=71|XSize=5.2032mm|YSize=5.2032mm|CornerRadius=1.3516mm|HoleSize=0mm|Usage=FLASHONLY|Rotation=180.000|XOffset=0mm|YOffset=0mm|HoleType=Round|Shape=RoundedRectangle|*
%AMROUNDEDRECTD71*
21,1,5.20320,2.50000,0,0,180.0*
21,1,2.50000,5.20320,0,0,180.0*
1,1,2.70320,-1.25000,1.25000*
1,1,2.70320,1.25000,1.25000*
1,1,2.70320,1.25000,-1.25000*
1,1,2.70320,-1.25000,-1.25000*
%
%ADD71ROUNDEDRECTD71*%
%ADD72R,2.20320X2.20320*%
%TA.AperFunction,ViaPad*%
%ADD73C,1.47320*%
%ADD74C,0.70320*%
%TA.AperFunction,SMDPad,CuDef*%
%ADD75R,6.20320X6.20320*%
%ADD76R,2.00320X1.70320*%
%ADD77R,2.65320X2.75320*%
%ADD78R,1.65320X1.05320*%
%ADD79R,1.05320X1.65320*%
%ADD80R,1.05320X0.90320*%
%ADD81R,2.60320X2.30320*%
%ADD82R,1.20320X0.80320*%
D56*
X784998Y539999D02*
D03*
X935001D02*
D03*
X1950000Y325000D02*
D03*
X1800000D02*
D03*
X1000000Y125000D02*
D03*
X1150000D02*
D03*
D59*
X924997Y740000D02*
D03*
X1074999D02*
D03*
D63*
X4660000Y630000D02*
D03*
X4910000D02*
D03*
X5160000D02*
D03*
X4640000Y2590000D02*
D03*
X4890000D02*
D03*
X4390000D02*
D03*
X275002Y1296004D02*
D03*
Y1042004D02*
D03*
Y788004D02*
D03*
Y534004D02*
D03*
Y280004D02*
D03*
D64*
X4410000Y630000D02*
D03*
D65*
X5490000Y3080000D02*
D03*
X2930000Y220000D02*
D03*
X250000Y3050000D02*
D03*
D66*
X5223089Y3144867D02*
D03*
X5210000Y184867D02*
D03*
D67*
X3623089Y3140000D02*
D03*
X3610000Y180000D02*
D03*
D68*
X5300000Y2430000D02*
D03*
Y2730000D02*
D03*
X5475000Y2580000D02*
D03*
D69*
X4649998Y2076876D02*
D03*
D70*
X4399998Y1594376D02*
D03*
D71*
X5009998D02*
D03*
D72*
X275002Y1550004D02*
D03*
D73*
X2970000Y1750000D02*
D03*
X4840000Y3100000D02*
D03*
X1290000Y1210000D02*
D03*
X2240000Y1200000D02*
D03*
X3790000Y2330000D02*
D03*
X4130000Y660000D02*
D03*
X3790000Y2710000D02*
D03*
X3770000Y1748500D02*
D03*
X3210000Y2500000D02*
D03*
X2900000Y600000D02*
D03*
X3500000Y1600000D02*
D03*
X4120000Y930000D02*
D03*
X4110000Y1250000D02*
D03*
X200000Y2550000D02*
D03*
X1700000Y170000D02*
D03*
X850000Y2300000D02*
D03*
X250000Y2190000D02*
D03*
X430000Y2550000D02*
D03*
X170000Y1880000D02*
D03*
X4270000Y3060000D02*
D03*
X2250000Y2380000D02*
D03*
X3028907Y2193548D02*
D03*
X3540000Y2960000D02*
D03*
X2550000Y2510000D02*
D03*
X700000Y2540000D02*
D03*
X2250000Y2180000D02*
D03*
Y1700000D02*
D03*
X1050000Y900000D02*
D03*
X2767500Y2002500D02*
D03*
X680000Y530000D02*
D03*
X2250000Y1900000D02*
D03*
X2600000Y250000D02*
D03*
D74*
X3309999Y879999D02*
D03*
X3200002D02*
D03*
X3090000D02*
D03*
X3309999Y990002D02*
D03*
X3200002D02*
D03*
X3090000D02*
D03*
X3309999Y1099999D02*
D03*
X3200002D02*
D03*
X3090000D02*
D03*
X3309999Y1210001D02*
D03*
X3200002D02*
D03*
X3090000D02*
D03*
X3309999Y1319998D02*
D03*
X3200002D02*
D03*
X3090000D02*
D03*
D75*
X1852508Y1215000D02*
D03*
D76*
X1407499Y1107500D02*
D03*
Y1322500D02*
D03*
D77*
X3730000Y717500D02*
D03*
Y1382500D02*
D03*
D78*
X3787927Y2622503D02*
D03*
Y2417500D02*
D03*
D79*
X4832503Y1160000D02*
D03*
X4627499D02*
D03*
D80*
X3105001Y2980428D02*
D03*
X3455003D02*
D03*
D81*
X3515003Y2450004D02*
D03*
X2885001D02*
D03*
D82*
X1355000Y130000D02*
D03*
Y320000D02*
D03*
X1595000Y225000D02*
D03*
X2367926Y345000D02*
D03*
Y155000D02*
D03*
X2127926Y250000D02*
D03*
%TF.MD5,964076f279beb4fdfb90822819969c28*%
M02*
