%TF.GenerationSoftware,Altium Limited,Altium Designer,23.4.1 (23)*%
G04 Layer_Color=0*
%FSLAX45Y45*%
%MOMM*%
%TF.SameCoordinates,95043EA5-DFE4-4E97-A360-3BE786514F03*%
%TF.FilePolarity,Positive*%
%TF.FileFunction,Plated,1,4,PTH,Drill*%
%TF.Part,Single*%
G01*
G75*
%TA.AperFunction,ComponentDrill*%
%ADD84C,0.80000*%
%TA.AperFunction,OtherDrill,Pad Free-3 (54.9mm,30.8mm)*%
%ADD85C,2.50000*%
%TA.AperFunction,ComponentDrill*%
%ADD86O,0.50000X0.90000*%
%TA.AperFunction,OtherDrill,Pad Free-2 (29.3mm,2.2mm)*%
%ADD87C,2.50000*%
%TA.AperFunction,OtherDrill,Pad Free-1 (2.5mm,30.5mm)*%
%ADD88C,2.50000*%
%TA.AperFunction,ComponentDrill*%
%ADD89R,2.50000X1.00000*%
%ADD90R,1.00000X2.50000*%
%ADD91R,1.50000X3.50000*%
%ADD92C,0.70000*%
%TA.AperFunction,ViaDrill,NotFilled*%
%ADD93C,0.71120*%
%ADD94C,0.20000*%
D84*
X4660000Y630000D02*
D03*
X4910000D02*
D03*
X5160000D02*
D03*
X4410000D02*
D03*
X5223089Y3144867D02*
D03*
X3623089Y3140000D02*
D03*
X4640000Y2590000D02*
D03*
X4890000D02*
D03*
X4390000D02*
D03*
X5210000Y184867D02*
D03*
X3610000Y180000D02*
D03*
D85*
X5490000Y3080000D02*
D03*
D86*
X5300000Y2430000D02*
D03*
Y2730000D02*
D03*
X5475000Y2580000D02*
D03*
D87*
X2930000Y220000D02*
D03*
D88*
X250000Y3050000D02*
D03*
D89*
X4649998Y2076876D02*
D03*
D90*
X4399998Y1594376D02*
D03*
D91*
X5009998D02*
D03*
D92*
X275002Y1550004D02*
D03*
Y1296004D02*
D03*
Y1042004D02*
D03*
Y788004D02*
D03*
Y534004D02*
D03*
Y280004D02*
D03*
D93*
X2970000Y1750000D02*
D03*
X4840000Y3100000D02*
D03*
X1290000Y1210000D02*
D03*
X2240000Y1200000D02*
D03*
X3790000Y2330000D02*
D03*
X4130000Y660000D02*
D03*
X3790000Y2710000D02*
D03*
X3770000Y1748500D02*
D03*
X3210000Y2500000D02*
D03*
X2900000Y600000D02*
D03*
X3500000Y1600000D02*
D03*
X4120000Y930000D02*
D03*
X4110000Y1250000D02*
D03*
X200000Y2550000D02*
D03*
X1700000Y170000D02*
D03*
X850000Y2300000D02*
D03*
X250000Y2190000D02*
D03*
X430000Y2550000D02*
D03*
X170000Y1880000D02*
D03*
X4270000Y3060000D02*
D03*
X2250000Y2380000D02*
D03*
X3028907Y2193548D02*
D03*
X3540000Y2960000D02*
D03*
X2550000Y2510000D02*
D03*
X700000Y2540000D02*
D03*
X2250000Y2180000D02*
D03*
Y1700000D02*
D03*
X1050000Y900000D02*
D03*
X2767500Y2002500D02*
D03*
X680000Y530000D02*
D03*
X2250000Y1900000D02*
D03*
X2600000Y250000D02*
D03*
D94*
X3309999Y879999D02*
D03*
X3200002D02*
D03*
X3090000D02*
D03*
X3309999Y990002D02*
D03*
X3200002D02*
D03*
X3090000D02*
D03*
X3309999Y1099999D02*
D03*
X3200002D02*
D03*
X3090000D02*
D03*
X3309999Y1210001D02*
D03*
X3200002D02*
D03*
X3090000D02*
D03*
X3309999Y1319998D02*
D03*
X3200002D02*
D03*
X3090000D02*
D03*
%TF.MD5,2561095420890efbbb79915d7a0dcbb6*%
M02*
