%TF.GenerationSoftware,Altium Limited,Altium Designer,23.4.1 (23)*%
G04 Layer_Color=32896*
%FSLAX45Y45*%
%MOMM*%
%TF.SameCoordinates,95043EA5-DFE4-4E97-A360-3BE786514F03*%
%TF.FilePolarity,Positive*%
%TF.FileFunction,Legend,Bot*%
%TF.Part,Single*%
G01*
G75*
%TA.AperFunction,NonConductor*%
%ADD46C,0.25000*%
%ADD48C,0.25400*%
%ADD49C,0.20000*%
%ADD50C,0.10000*%
G36*
X2210000Y2539288D02*
X510000D01*
Y3230000D01*
X2210000D01*
Y2539288D01*
D02*
G37*
%LPC*%
G36*
X2159200Y3179200D02*
X2148887D01*
Y2668890D01*
X2159200D01*
Y3179200D01*
D02*
G37*
G36*
X2143731D02*
X2138575D01*
Y2668890D01*
X2143731D01*
Y3179200D01*
D02*
G37*
G36*
X2117950D02*
X2112794D01*
Y2668890D01*
X2117950D01*
Y3179200D01*
D02*
G37*
G36*
X2102482D02*
X2092169D01*
Y2668890D01*
X2102482D01*
Y3179200D01*
D02*
G37*
G36*
X2087013D02*
X2071544D01*
Y2668890D01*
X2087013D01*
Y3179200D01*
D02*
G37*
G36*
X2066388D02*
X2061232D01*
Y2668890D01*
X2066388D01*
Y3179200D01*
D02*
G37*
G36*
X2045763D02*
X2040607D01*
Y2668890D01*
X2045763D01*
Y3179200D01*
D02*
G37*
G36*
X2035451D02*
X2014826D01*
Y2668890D01*
X2035451D01*
Y3179200D01*
D02*
G37*
G36*
X2009670D02*
X1994201D01*
Y2668890D01*
X2009670D01*
Y3179200D01*
D02*
G37*
G36*
X1989045D02*
X1983889D01*
Y2668890D01*
X1989045D01*
Y3179200D01*
D02*
G37*
G36*
X1973577D02*
X1963264D01*
Y2668890D01*
X1973577D01*
Y3179200D01*
D02*
G37*
G36*
X1942639D02*
X1937483D01*
Y2668890D01*
X1942639D01*
Y3179200D01*
D02*
G37*
G36*
X1932327D02*
X1927171D01*
Y2668890D01*
X1932327D01*
Y3179200D01*
D02*
G37*
G36*
X1916858D02*
X1911702D01*
Y2668890D01*
X1916858D01*
Y3179200D01*
D02*
G37*
G36*
X1906546D02*
X1896234D01*
Y2668890D01*
X1906546D01*
Y3179200D01*
D02*
G37*
G36*
X1875609D02*
X1870453D01*
Y2668890D01*
X1875609D01*
Y3179200D01*
D02*
G37*
G36*
X1849828D02*
X1844672D01*
Y2668890D01*
X1849828D01*
Y3179200D01*
D02*
G37*
G36*
X1834359D02*
X1824047D01*
Y2668890D01*
X1834359D01*
Y3179200D01*
D02*
G37*
G36*
X1818891D02*
X1813734D01*
Y2668890D01*
X1818891D01*
Y3179200D01*
D02*
G37*
G36*
X1798266D02*
X1777641D01*
Y2668890D01*
X1798266D01*
Y3179200D01*
D02*
G37*
G36*
X1772485D02*
X1767329D01*
Y2668890D01*
X1772485D01*
Y3179200D01*
D02*
G37*
G36*
X1762172D02*
X1741548D01*
Y2668890D01*
X1762172D01*
Y3179200D01*
D02*
G37*
G36*
X1731235D02*
X1726079D01*
Y2668890D01*
X1731235D01*
Y3179200D01*
D02*
G37*
G36*
X1720923D02*
X1715767D01*
Y2668890D01*
X1720923D01*
Y3179200D01*
D02*
G37*
G36*
X1705454D02*
X1689986D01*
Y2668890D01*
X1705454D01*
Y3179200D01*
D02*
G37*
G36*
X1684829D02*
X1679673D01*
Y2668890D01*
X1684829D01*
Y3179200D01*
D02*
G37*
G36*
X1674517D02*
X1653892D01*
Y2668890D01*
X1674517D01*
Y3179200D01*
D02*
G37*
G36*
X1648736D02*
X1638424D01*
Y2668890D01*
X1648736D01*
Y3179200D01*
D02*
G37*
G36*
X1633267D02*
X1622955D01*
Y2668890D01*
X1633267D01*
Y3179200D01*
D02*
G37*
G36*
X1612643D02*
X1602330D01*
Y2668890D01*
X1612643D01*
Y3179200D01*
D02*
G37*
G36*
X1592018D02*
X1586862D01*
Y2668890D01*
X1592018D01*
Y3179200D01*
D02*
G37*
G36*
X1581705D02*
X1561081D01*
Y2668890D01*
X1581705D01*
Y3179200D01*
D02*
G37*
G36*
X1555924D02*
X1540456D01*
Y2668890D01*
X1555924D01*
Y3179200D01*
D02*
G37*
G36*
X1535300D02*
X1514675D01*
Y2668890D01*
X1535300D01*
Y3179200D01*
D02*
G37*
G36*
X1509519D02*
X1504362D01*
Y2668890D01*
X1509519D01*
Y3179200D01*
D02*
G37*
G36*
X1494050D02*
X1488894D01*
Y2668890D01*
X1494050D01*
Y3179200D01*
D02*
G37*
G36*
X1478581D02*
X1463113D01*
Y2668890D01*
X1478581D01*
Y3179200D01*
D02*
G37*
G36*
X1457957D02*
X1452800D01*
Y2668890D01*
X1457957D01*
Y3179200D01*
D02*
G37*
G36*
X1447644D02*
X1427019D01*
Y2668890D01*
X1447644D01*
Y3179200D01*
D02*
G37*
G36*
X1421863D02*
X1416707D01*
Y2668890D01*
X1421863D01*
Y3179200D01*
D02*
G37*
G36*
X1406395D02*
X1396082D01*
Y2668890D01*
X1406395D01*
Y3179200D01*
D02*
G37*
G36*
X1385770D02*
X1370301D01*
Y2668890D01*
X1385770D01*
Y3179200D01*
D02*
G37*
G36*
X1365145D02*
X1359989D01*
Y2668890D01*
X1365145D01*
Y3179200D01*
D02*
G37*
G36*
X1349676D02*
X1334208D01*
Y2668890D01*
X1349676D01*
Y3179200D01*
D02*
G37*
G36*
X1329052D02*
X1318739D01*
Y2668890D01*
X1329052D01*
Y3179200D01*
D02*
G37*
G36*
X1308427D02*
X1303271D01*
Y2668890D01*
X1308427D01*
Y3179200D01*
D02*
G37*
G36*
X1292958D02*
X1282646D01*
Y2668890D01*
X1292958D01*
Y3179200D01*
D02*
G37*
G36*
X1272333D02*
X1256865D01*
Y2668890D01*
X1272333D01*
Y3179200D01*
D02*
G37*
G36*
X1251709D02*
X1241396D01*
Y2668890D01*
X1251709D01*
Y3179200D01*
D02*
G37*
G36*
X1231084D02*
X1225928D01*
Y2668890D01*
X1231084D01*
Y3179200D01*
D02*
G37*
G36*
X1220771D02*
X1205303D01*
Y2668890D01*
X1220771D01*
Y3179200D01*
D02*
G37*
G36*
X1194990D02*
X1184678D01*
Y2668890D01*
X1194990D01*
Y3179200D01*
D02*
G37*
G36*
X1179522D02*
X1169209D01*
Y2668890D01*
X1179522D01*
Y3179200D01*
D02*
G37*
G36*
X1158897D02*
X1148585D01*
Y2668890D01*
X1158897D01*
Y3179200D01*
D02*
G37*
G36*
X1138272D02*
X1127960D01*
Y2668890D01*
X1138272D01*
Y3179200D01*
D02*
G37*
G36*
X1112491D02*
X1102179D01*
Y2668890D01*
X1112491D01*
Y3179200D01*
D02*
G37*
G36*
X1097023D02*
X1086710D01*
Y2668890D01*
X1097023D01*
Y3179200D01*
D02*
G37*
G36*
X1081554D02*
X1071242D01*
Y2668890D01*
X1081554D01*
Y3179200D01*
D02*
G37*
G36*
X1066085D02*
X1055773D01*
Y2668890D01*
X1066085D01*
Y3179200D01*
D02*
G37*
G36*
X1045461D02*
X1035148D01*
Y2668890D01*
X1045461D01*
Y3179200D01*
D02*
G37*
G36*
X1024836D02*
X1009367D01*
Y2668890D01*
X1024836D01*
Y3179200D01*
D02*
G37*
G36*
X1004211D02*
X999055D01*
Y2668890D01*
X1004211D01*
Y3179200D01*
D02*
G37*
G36*
X993899D02*
X983586D01*
Y2668890D01*
X993899D01*
Y3179200D01*
D02*
G37*
G36*
X968118D02*
X957805D01*
Y2668890D01*
X968118D01*
Y3179200D01*
D02*
G37*
G36*
X942337D02*
X937180D01*
Y2668890D01*
X942337D01*
Y3179200D01*
D02*
G37*
G36*
X932024D02*
X916556D01*
Y2668890D01*
X932024D01*
Y3179200D01*
D02*
G37*
G36*
X911399D02*
X906243D01*
Y2668890D01*
X911399D01*
Y3179200D01*
D02*
G37*
G36*
X890775D02*
X880462D01*
Y2668890D01*
X890775D01*
Y3179200D01*
D02*
G37*
G36*
X875306D02*
X859837D01*
Y2668890D01*
X875306D01*
Y3179200D01*
D02*
G37*
G36*
X854681D02*
X849525D01*
Y2668890D01*
X854681D01*
Y3179200D01*
D02*
G37*
G36*
X844369D02*
X823744D01*
Y2668890D01*
X844369D01*
Y3179200D01*
D02*
G37*
G36*
X818588D02*
X803119D01*
Y2668890D01*
X818588D01*
Y3179200D01*
D02*
G37*
G36*
X797963D02*
X792807D01*
Y2668890D01*
X797963D01*
Y3179200D01*
D02*
G37*
G36*
X782494D02*
X777338D01*
Y2668890D01*
X782494D01*
Y3179200D01*
D02*
G37*
G36*
X772182D02*
X761870D01*
Y2668890D01*
X772182D01*
Y3179200D01*
D02*
G37*
G36*
X741245D02*
X736089D01*
Y2668890D01*
X741245D01*
Y3179200D01*
D02*
G37*
G36*
X725776D02*
X720620D01*
Y2668890D01*
X725776D01*
Y3179200D01*
D02*
G37*
G36*
X699995D02*
X689683D01*
Y2668890D01*
X699995D01*
Y3179200D01*
D02*
G37*
G36*
X684527D02*
X674214D01*
Y2668890D01*
X684527D01*
Y3179200D01*
D02*
G37*
G36*
X669058D02*
X663902D01*
Y2668890D01*
X669058D01*
Y3179200D01*
D02*
G37*
G36*
X648433D02*
X632965D01*
Y2668890D01*
X648433D01*
Y3179200D01*
D02*
G37*
G36*
X627808D02*
X617496D01*
Y2668890D01*
X627808D01*
Y3179200D01*
D02*
G37*
G36*
X602027D02*
X586559D01*
Y2668890D01*
X602027D01*
Y3179200D01*
D02*
G37*
G36*
X581403D02*
X576246D01*
Y2668890D01*
X581403D01*
Y3179200D01*
D02*
G37*
G36*
X571090D02*
X560778D01*
Y2668890D01*
X571090D01*
Y3179200D01*
D02*
G37*
G36*
X1260915Y2646616D02*
X1260774D01*
X1260351Y2646476D01*
X1259646Y2646194D01*
X1258659Y2645630D01*
X1258518D01*
X1258377Y2645489D01*
X1257673Y2644925D01*
X1256827Y2644502D01*
X1255981Y2644079D01*
X1255840D01*
X1255276Y2643938D01*
X1254430Y2643797D01*
X1251752D01*
X1250624Y2643938D01*
X1249214D01*
X1247241Y2644079D01*
X1244985Y2644220D01*
X1242166Y2644502D01*
X1241743D01*
X1241179Y2644643D01*
X1240474D01*
X1239487Y2644784D01*
X1238501Y2644925D01*
X1236104Y2645207D01*
X1233426Y2645348D01*
X1230606Y2645630D01*
X1227787Y2645771D01*
X1224404D01*
X1223558Y2645630D01*
X1222571Y2645348D01*
X1221725Y2644925D01*
X1220879Y2644220D01*
X1220316Y2643374D01*
X1220034Y2642246D01*
Y2642105D01*
Y2641824D01*
X1220175Y2641401D01*
X1220316Y2640837D01*
X1220598Y2640132D01*
X1221020Y2639568D01*
X1221584Y2638863D01*
X1222289Y2638158D01*
X1222430Y2638017D01*
X1222712Y2637876D01*
X1223135Y2637453D01*
X1223840Y2637031D01*
X1224686Y2636467D01*
X1225672Y2635762D01*
X1226941Y2634916D01*
X1228351Y2634070D01*
X1228633Y2633929D01*
X1229197Y2633506D01*
X1230183Y2632942D01*
X1231311Y2632238D01*
X1233849Y2630546D01*
X1234976Y2629841D01*
X1235963Y2629136D01*
X1236104D01*
X1236386Y2628854D01*
X1236809Y2628572D01*
X1237232Y2628008D01*
X1238642Y2626740D01*
X1240192Y2624907D01*
X1240051D01*
X1239487Y2625048D01*
X1238642D01*
X1237514Y2625189D01*
X1235258Y2625330D01*
X1231311D01*
X1230183Y2625189D01*
X1228774Y2625048D01*
X1227364Y2624766D01*
X1224404Y2623920D01*
X1224263D01*
X1223840Y2623638D01*
X1223135Y2623356D01*
X1222289Y2623075D01*
X1220457Y2621947D01*
X1219470Y2621242D01*
X1218765Y2620537D01*
X1218624Y2620396D01*
X1218483Y2620255D01*
X1217778Y2619409D01*
X1216791Y2618282D01*
X1215945Y2617295D01*
X1215805Y2617013D01*
X1215664Y2616731D01*
X1215382Y2616308D01*
X1215241Y2615603D01*
X1215100Y2614757D01*
X1214959Y2613770D01*
Y2612643D01*
Y2612502D01*
Y2612079D01*
X1215241Y2611374D01*
X1215523Y2610387D01*
X1215945Y2609118D01*
X1216791Y2607568D01*
X1217778Y2605735D01*
X1219188Y2603480D01*
X1219329Y2603198D01*
X1220034Y2602493D01*
X1221020Y2601224D01*
X1222430Y2599814D01*
X1224404Y2598264D01*
X1226800Y2596572D01*
X1229620Y2595021D01*
X1233003Y2593471D01*
X1233144D01*
X1233426Y2593330D01*
X1233990Y2593189D01*
X1234695Y2592907D01*
X1235540Y2592625D01*
X1236527Y2592343D01*
X1238924Y2591638D01*
X1241743Y2590933D01*
X1244985Y2590369D01*
X1248369Y2589947D01*
X1251752Y2589806D01*
X1252880D01*
X1253584Y2589947D01*
X1254712D01*
X1255981Y2590088D01*
X1257532Y2590228D01*
X1259364Y2590369D01*
X1259505D01*
X1260210Y2590510D01*
X1260915Y2590651D01*
X1261902Y2590933D01*
X1263029Y2591215D01*
X1264016Y2591638D01*
X1264862Y2592202D01*
X1265426Y2592766D01*
Y2592907D01*
X1265567Y2593048D01*
X1265849Y2593894D01*
X1266272Y2594881D01*
X1266413Y2596149D01*
Y2596290D01*
Y2596854D01*
X1266131Y2597559D01*
X1265849Y2598405D01*
X1265426Y2599251D01*
X1264721Y2599955D01*
X1263734Y2600519D01*
X1262325Y2600660D01*
X1262184D01*
X1261620Y2600378D01*
X1258659Y2599110D01*
X1258377Y2598969D01*
X1257814Y2598828D01*
X1256968Y2598405D01*
X1255699Y2598123D01*
X1254430Y2597700D01*
X1252880Y2597277D01*
X1251329Y2597136D01*
X1249778Y2596995D01*
X1249073D01*
X1248228Y2597136D01*
X1247100D01*
X1245690Y2597277D01*
X1243858Y2597559D01*
X1241743Y2597841D01*
X1239206Y2598264D01*
X1239065D01*
X1238924Y2598405D01*
X1237937Y2598546D01*
X1236668Y2598969D01*
X1234976Y2599533D01*
X1233144Y2600378D01*
X1231029Y2601365D01*
X1229056Y2602634D01*
X1227082Y2604185D01*
X1226800Y2604325D01*
X1226236Y2605030D01*
X1225531Y2605876D01*
X1224545Y2606863D01*
X1223699Y2607991D01*
X1222853Y2609259D01*
X1222289Y2610528D01*
X1222148Y2611656D01*
Y2611797D01*
X1222289Y2612361D01*
X1222430Y2613207D01*
X1222712Y2614193D01*
X1223417Y2615180D01*
X1224263Y2616308D01*
X1225390Y2617154D01*
X1227082Y2617859D01*
X1227364Y2618000D01*
X1227928Y2618141D01*
X1228915Y2618423D01*
X1230324Y2618704D01*
X1231875Y2618986D01*
X1233708Y2619127D01*
X1235822Y2619409D01*
X1239347D01*
X1240897Y2619268D01*
X1242871Y2618986D01*
X1245126Y2618563D01*
X1247382Y2618000D01*
X1249778Y2617295D01*
X1251893Y2616167D01*
X1252316D01*
X1252880Y2616308D01*
X1253444Y2616449D01*
X1254007Y2616590D01*
X1254571Y2617013D01*
X1254853Y2617436D01*
X1254994Y2618000D01*
Y2618141D01*
X1254853Y2618704D01*
X1254712Y2619409D01*
X1254430Y2620255D01*
X1254289Y2620537D01*
X1253725Y2621242D01*
X1253303Y2621806D01*
X1252739Y2622370D01*
X1252034Y2623215D01*
X1251047Y2624061D01*
X1243435Y2630405D01*
X1243153Y2630546D01*
X1242589Y2631110D01*
X1241602Y2631956D01*
X1240333Y2632942D01*
X1238924Y2634070D01*
X1237091Y2635480D01*
X1235258Y2636890D01*
X1233144Y2638299D01*
X1233708D01*
X1234413Y2638440D01*
X1235540Y2638299D01*
X1237232D01*
X1238219Y2638158D01*
X1239487D01*
X1240756Y2638017D01*
X1242166Y2637876D01*
X1243858Y2637735D01*
X1245690Y2637453D01*
X1245972D01*
X1246395Y2637312D01*
X1246959D01*
X1248369Y2637172D01*
X1250060Y2637031D01*
X1251893Y2636890D01*
X1253584Y2636749D01*
X1255276Y2636608D01*
X1256968D01*
X1257814Y2636749D01*
X1258941Y2637031D01*
X1260210Y2637453D01*
X1261620Y2638299D01*
X1262748Y2639427D01*
X1263593Y2641119D01*
X1263734Y2642105D01*
X1263875Y2643233D01*
Y2643515D01*
X1263734Y2643938D01*
X1263452Y2644784D01*
X1263029Y2645489D01*
X1262889Y2645630D01*
X1262466Y2646053D01*
X1261761Y2646476D01*
X1260915Y2646616D01*
D02*
G37*
G36*
X605204Y2665225D02*
X605063D01*
X604781Y2665084D01*
X604217Y2664943D01*
X603653Y2664520D01*
X603089Y2663956D01*
X602525Y2662969D01*
X602243Y2661700D01*
X602102Y2660009D01*
Y2659727D01*
Y2659163D01*
X602243Y2658035D01*
X602525Y2656484D01*
X602948Y2654511D01*
X603512Y2652114D01*
X604358Y2649295D01*
X605486Y2646194D01*
Y2646053D01*
X605627Y2645771D01*
X605768Y2645207D01*
X606050Y2644502D01*
X606332Y2643515D01*
X606613Y2642246D01*
X607036Y2640837D01*
X607600Y2639004D01*
X608023Y2637031D01*
X608587Y2634634D01*
X609151Y2632097D01*
X609856Y2629136D01*
X610420Y2626035D01*
X611125Y2622370D01*
X611970Y2618563D01*
X612647Y2614504D01*
X612675Y2614475D01*
Y2614334D01*
X612647Y2614504D01*
X612393Y2614757D01*
X612111Y2615321D01*
X611688Y2616026D01*
X611265Y2616872D01*
X610561Y2617859D01*
X609010Y2620114D01*
X607177Y2622652D01*
X604922Y2625330D01*
X602384Y2628008D01*
X599706Y2630405D01*
X599565Y2630546D01*
X599424Y2630687D01*
X599001Y2630969D01*
X598437Y2631392D01*
X597028Y2632379D01*
X595195Y2633506D01*
X593080Y2634634D01*
X590684Y2635621D01*
X588287Y2636326D01*
X587160Y2636608D01*
X585468D01*
X584763Y2636467D01*
X584058Y2636185D01*
X583071Y2635762D01*
X582226Y2635198D01*
X581239Y2634493D01*
X580252Y2633365D01*
X580111Y2633224D01*
X579829Y2632801D01*
X579547Y2632097D01*
X578983Y2631251D01*
X578560Y2630123D01*
X578278Y2628854D01*
X577997Y2627445D01*
X577856Y2625753D01*
Y2625612D01*
Y2625189D01*
Y2624484D01*
X577997Y2623497D01*
X578138Y2622370D01*
X578419Y2620960D01*
X578701Y2619409D01*
X579124Y2617718D01*
X579688Y2615744D01*
X580393Y2613911D01*
X581098Y2611797D01*
X582085Y2609682D01*
X583353Y2607427D01*
X584622Y2605171D01*
X586173Y2603057D01*
X588005Y2600801D01*
X588146Y2600660D01*
X588428Y2600378D01*
X588992Y2599673D01*
X589697Y2598969D01*
X590684Y2598123D01*
X591812Y2597136D01*
X592939Y2596149D01*
X594349Y2595021D01*
X597591Y2592907D01*
X601116Y2591074D01*
X603089Y2590369D01*
X605063Y2589806D01*
X607036Y2589383D01*
X609151Y2589242D01*
X609715D01*
X610279Y2589383D01*
X610984D01*
X612675Y2589947D01*
X613662Y2590228D01*
X614649Y2590792D01*
X614790Y2590933D01*
X615072Y2591074D01*
X615917Y2591920D01*
X616904Y2593330D01*
X617327Y2594176D01*
X617468Y2595021D01*
Y2595162D01*
Y2595303D01*
X617750Y2596149D01*
X618173Y2597136D01*
X618737Y2597982D01*
Y2598123D01*
X619019Y2598264D01*
X619583Y2599110D01*
X620147Y2600378D01*
X620288Y2601224D01*
X620429Y2601929D01*
Y2602070D01*
Y2602775D01*
X620288Y2603762D01*
Y2604607D01*
X620147Y2605453D01*
X620006Y2606440D01*
X619865Y2607709D01*
X619724Y2608978D01*
X619583Y2610528D01*
X619301Y2612220D01*
X619019Y2614193D01*
X618737Y2616308D01*
X618314Y2618563D01*
X613944Y2644079D01*
Y2644220D01*
X613803Y2644643D01*
X613662Y2645348D01*
X613521Y2646194D01*
X613380Y2647180D01*
X613239Y2648308D01*
X612675Y2650987D01*
X612111Y2653665D01*
X611688Y2656343D01*
X611406Y2657471D01*
X611125Y2658458D01*
X610843Y2659304D01*
X610702Y2660009D01*
Y2660150D01*
X610561Y2660573D01*
X610279Y2660995D01*
X609997Y2661700D01*
X609151Y2663110D01*
X608728Y2663674D01*
X608305Y2664097D01*
X608023Y2664238D01*
X607459Y2664661D01*
X606472Y2665084D01*
X605204Y2665225D01*
D02*
G37*
G36*
X2049752Y2660854D02*
X2049470D01*
X2048624Y2660713D01*
X2047497Y2660150D01*
X2046933Y2659868D01*
X2046369Y2659304D01*
X2046228D01*
X2046087Y2659022D01*
X2045523Y2658176D01*
X2045100Y2656907D01*
X2044818Y2656061D01*
Y2655075D01*
Y2654934D01*
Y2654652D01*
Y2654229D01*
Y2653665D01*
X2044959Y2652819D01*
Y2651832D01*
X2045100Y2650705D01*
X2045241Y2649436D01*
X2045523Y2648026D01*
X2045805Y2646476D01*
X2046087Y2644643D01*
X2046510Y2642669D01*
X2046933Y2640696D01*
X2047497Y2638440D01*
X2048060Y2636044D01*
X2048765Y2633506D01*
Y2633365D01*
X2048906Y2633224D01*
Y2632801D01*
X2049047Y2632238D01*
X2049470Y2630828D01*
X2049893Y2628854D01*
X2050598Y2626317D01*
X2051162Y2623356D01*
X2051867Y2620114D01*
X2052712Y2616308D01*
Y2616167D01*
X2052853Y2615885D01*
Y2615321D01*
X2052994Y2614616D01*
X2053276Y2612925D01*
X2053699Y2610810D01*
X2054122Y2608555D01*
X2054404Y2606440D01*
X2054545Y2604607D01*
X2054686Y2603903D01*
Y2603339D01*
Y2603198D01*
X2054545Y2603057D01*
X2054263Y2602916D01*
X2054122D01*
Y2603057D01*
X2053981Y2603198D01*
X2053699Y2603621D01*
X2053417Y2604185D01*
X2052571Y2605594D01*
X2051444Y2607568D01*
X2050175Y2609682D01*
X2048483Y2612220D01*
X2046792Y2614898D01*
X2044818Y2617577D01*
X2042845Y2620255D01*
X2040730Y2622934D01*
X2038474Y2625471D01*
X2036360Y2627727D01*
X2034104Y2629559D01*
X2031990Y2630969D01*
X2030862Y2631533D01*
X2029875Y2631956D01*
X2028889Y2632097D01*
X2027902Y2632238D01*
X2027479D01*
X2026915Y2632097D01*
X2026351Y2631815D01*
X2025646Y2631392D01*
X2024941Y2630828D01*
X2024236Y2630123D01*
X2023532Y2628995D01*
X2023391Y2628854D01*
X2023250Y2628290D01*
X2022968Y2627445D01*
X2022545Y2626176D01*
X2022122Y2624202D01*
X2021840Y2623075D01*
X2021558Y2621806D01*
X2021417Y2620396D01*
X2021135Y2618845D01*
X2020994Y2617154D01*
X2020712Y2615180D01*
Y2615039D01*
Y2614616D01*
X2020571Y2614052D01*
X2020430Y2613348D01*
Y2612361D01*
X2020148Y2611374D01*
X2019725Y2608837D01*
X2019162Y2606158D01*
X2018316Y2603480D01*
X2017188Y2600801D01*
X2016624Y2599673D01*
X2015919Y2598687D01*
X2015778Y2598546D01*
X2015637Y2598264D01*
X2015355Y2597841D01*
X2014932Y2597277D01*
X2014228Y2596008D01*
X2014087Y2595444D01*
X2013946Y2594881D01*
Y2594740D01*
X2014087Y2594176D01*
X2014510Y2593471D01*
X2015355Y2592766D01*
X2015637Y2592625D01*
X2016201Y2592343D01*
X2017047Y2592061D01*
X2018034Y2591920D01*
X2018598D01*
X2019303Y2592061D01*
X2020007Y2592343D01*
X2020994Y2592766D01*
X2021981Y2593471D01*
X2022968Y2594317D01*
X2023955Y2595585D01*
X2024096Y2595726D01*
X2024377Y2596290D01*
X2024800Y2597277D01*
X2025364Y2598687D01*
X2025787Y2600519D01*
X2026351Y2602775D01*
X2026915Y2605453D01*
X2027197Y2608696D01*
Y2608837D01*
Y2609118D01*
X2027338Y2609541D01*
Y2610105D01*
X2027479Y2611656D01*
X2027761Y2613489D01*
X2028043Y2615462D01*
X2028325Y2617436D01*
X2028607Y2619127D01*
X2028748Y2619832D01*
X2028889Y2620396D01*
Y2620537D01*
X2029029Y2620819D01*
X2029452Y2621806D01*
X2030298Y2622793D01*
X2030721Y2623075D01*
X2031426Y2623215D01*
X2031708D01*
X2032272Y2622793D01*
X2032836Y2622511D01*
X2033541Y2621947D01*
X2034386Y2621242D01*
X2035373Y2620255D01*
X2036501Y2618986D01*
X2037770Y2617436D01*
X2039320Y2615603D01*
X2040871Y2613348D01*
X2042845Y2610528D01*
X2044818Y2607427D01*
X2047074Y2603762D01*
X2049470Y2599673D01*
Y2599533D01*
X2049611Y2599392D01*
X2050175Y2598546D01*
X2050880Y2597277D01*
X2051726Y2595867D01*
X2052712Y2594317D01*
X2053699Y2592907D01*
X2054686Y2591497D01*
X2055532Y2590510D01*
X2055673Y2590369D01*
X2055814Y2590228D01*
X2056660Y2589524D01*
X2057787Y2588678D01*
X2058351Y2588537D01*
X2058915Y2588396D01*
X2059197D01*
X2060043Y2588537D01*
X2061030Y2588819D01*
X2062016Y2589524D01*
X2062157Y2589665D01*
X2062580Y2590228D01*
X2063144Y2591074D01*
X2063285Y2592202D01*
Y2592484D01*
Y2592766D01*
X2063144Y2593189D01*
Y2593894D01*
X2063003Y2594599D01*
X2062862Y2595585D01*
X2062721Y2596854D01*
Y2596995D01*
Y2597136D01*
X2062580Y2597559D01*
X2062439Y2598123D01*
X2062157Y2599533D01*
X2061875Y2601506D01*
X2061453Y2603903D01*
X2060889Y2606863D01*
X2060325Y2610105D01*
X2059761Y2613770D01*
X2059056Y2617577D01*
X2058351Y2621806D01*
X2057646Y2626317D01*
X2056942Y2630828D01*
X2056378Y2635621D01*
X2055673Y2640555D01*
X2054404Y2650423D01*
Y2650564D01*
Y2650705D01*
X2054263Y2651409D01*
X2054122Y2652537D01*
X2053840Y2653806D01*
X2053558Y2655216D01*
X2053276Y2656484D01*
X2052712Y2657753D01*
X2052290Y2658740D01*
X2052149Y2658881D01*
X2052008Y2659022D01*
X2051444Y2659868D01*
X2050598Y2660573D01*
X2050175Y2660713D01*
X2049752Y2660854D01*
D02*
G37*
G36*
X770330Y2652396D02*
X770048D01*
X769484Y2652255D01*
X768638Y2651832D01*
X767792Y2651128D01*
X767651Y2650987D01*
X767088Y2650423D01*
X766665Y2649577D01*
X766524Y2648590D01*
Y2648449D01*
Y2648308D01*
Y2647744D01*
X766665Y2647180D01*
Y2646335D01*
X766806Y2645207D01*
X767088Y2643938D01*
X767370Y2642528D01*
Y2642246D01*
X767511Y2641964D01*
Y2641401D01*
X767651Y2640696D01*
X767792Y2639850D01*
X767933Y2638722D01*
X768215Y2637594D01*
X768356Y2636044D01*
X768638Y2634493D01*
X768920Y2632520D01*
X769202Y2630405D01*
X769484Y2628149D01*
X769907Y2625471D01*
X770189Y2622652D01*
X770612Y2619550D01*
Y2619409D01*
X770753Y2618845D01*
Y2618000D01*
X770894Y2616872D01*
X771035Y2615462D01*
X771317Y2613911D01*
X771599Y2610669D01*
X772022Y2607145D01*
X772163Y2605453D01*
X772444Y2604044D01*
X772585Y2602634D01*
Y2601506D01*
X772726Y2600519D01*
Y2599955D01*
Y2599673D01*
Y2599110D01*
X772585Y2598405D01*
X772304Y2597841D01*
X772163D01*
X771881Y2597700D01*
X771458Y2597559D01*
X770612Y2597418D01*
X769625D01*
X768638Y2597559D01*
X767370Y2597700D01*
X765819Y2597841D01*
X763704Y2598123D01*
X761167Y2598546D01*
X760885D01*
X760180Y2598687D01*
X759052Y2598828D01*
X758207D01*
X757220Y2598969D01*
X756092Y2599110D01*
X754823Y2599251D01*
X753414D01*
X751863Y2599392D01*
X750030Y2599533D01*
X748057Y2599673D01*
X745942Y2599814D01*
X743687Y2599955D01*
X742841D01*
X742136Y2600096D01*
X741290D01*
X740303Y2600378D01*
X738048Y2600801D01*
X737907D01*
X737625Y2600942D01*
X737343Y2601083D01*
X736779D01*
X736215Y2600942D01*
X735369Y2600660D01*
X734524Y2599955D01*
X734383Y2599814D01*
X733960Y2599251D01*
X733678Y2598405D01*
X733537Y2597418D01*
Y2597277D01*
Y2596995D01*
X733678Y2596572D01*
X733819Y2596008D01*
X734383Y2594740D01*
X734805Y2594176D01*
X735510Y2593612D01*
X735651D01*
X735792Y2593330D01*
X736638Y2592907D01*
X738048Y2592484D01*
X739598Y2592202D01*
X740444D01*
X740867Y2592343D01*
X742277D01*
X743264Y2592484D01*
X743687D01*
X744110Y2592625D01*
X744814D01*
X746083Y2592766D01*
X749607D01*
X750876Y2592625D01*
X752286Y2592484D01*
X753977D01*
X755810Y2592202D01*
X757784Y2592061D01*
X759898Y2591779D01*
X764409Y2590933D01*
X769202Y2589947D01*
X773995Y2588537D01*
X774136D01*
X774418Y2588396D01*
X774841Y2588255D01*
X775264Y2588114D01*
X776674Y2587832D01*
X777942Y2587691D01*
X778224D01*
X779070Y2587973D01*
X780057Y2588396D01*
X780480Y2588819D01*
X780903Y2589383D01*
Y2589524D01*
X781044Y2589665D01*
X781326Y2590369D01*
X781748Y2591356D01*
X781889Y2592484D01*
Y2592625D01*
Y2592907D01*
X781748Y2593330D01*
Y2593894D01*
X781608Y2594599D01*
X781467Y2595444D01*
X781185Y2596572D01*
Y2596713D01*
X781044Y2597136D01*
X780903Y2597841D01*
X780762Y2598687D01*
X780480Y2600519D01*
X780339Y2601365D01*
X780198Y2602070D01*
Y2602352D01*
X780057Y2602916D01*
Y2603762D01*
X779916Y2605030D01*
X779775Y2605876D01*
X779634Y2606863D01*
X779493Y2607991D01*
X779352Y2609259D01*
X779211Y2610810D01*
X778929Y2612502D01*
Y2612643D01*
Y2612925D01*
X778788Y2613489D01*
X778647Y2614193D01*
Y2615180D01*
X778506Y2616167D01*
X778365Y2617436D01*
X778083Y2618845D01*
X777942Y2620396D01*
X777801Y2622088D01*
X777378Y2625894D01*
X776956Y2630123D01*
X776533Y2634775D01*
Y2634916D01*
Y2635339D01*
X776392Y2635903D01*
Y2636749D01*
X776251Y2637735D01*
X776110Y2638863D01*
X775828Y2641260D01*
X775546Y2643797D01*
X775405Y2646053D01*
X775264Y2647039D01*
X775123Y2647885D01*
X774982Y2648449D01*
Y2648872D01*
Y2649013D01*
Y2649154D01*
X774700Y2649718D01*
X774277Y2650564D01*
X773713Y2651409D01*
X773431Y2651550D01*
X772867Y2651973D01*
X771740Y2652255D01*
X770330Y2652396D01*
D02*
G37*
G36*
X1073375Y2654088D02*
X1072388D01*
X1071542Y2653947D01*
X1070696Y2653806D01*
X1069710Y2653665D01*
X1067172Y2652960D01*
X1064494Y2651973D01*
X1063084Y2651269D01*
X1061533Y2650282D01*
X1060124Y2649295D01*
X1058714Y2648167D01*
X1057304Y2646757D01*
X1056035Y2645207D01*
X1055895Y2645066D01*
X1055754Y2644784D01*
X1055472Y2644361D01*
X1054908Y2643656D01*
X1054485Y2642951D01*
X1053921Y2641964D01*
X1052652Y2639709D01*
X1051383Y2637031D01*
X1050256Y2634070D01*
X1049551Y2630828D01*
X1049410Y2629136D01*
X1049269Y2627445D01*
Y2627163D01*
Y2626458D01*
X1049410Y2625330D01*
X1049692Y2623920D01*
X1049974Y2622229D01*
X1050538Y2620396D01*
X1051383Y2618423D01*
X1052370Y2616449D01*
X1052511Y2616167D01*
X1052934Y2615603D01*
X1053498Y2614757D01*
X1054485Y2613770D01*
X1055472Y2612643D01*
X1056881Y2611515D01*
X1058291Y2610528D01*
X1059983Y2609823D01*
X1060124D01*
X1060687Y2609541D01*
X1061533Y2609400D01*
X1062379Y2609118D01*
X1063366Y2608837D01*
X1064212Y2608555D01*
X1065058Y2608414D01*
X1065480Y2608273D01*
X1066185D01*
X1066890Y2608414D01*
X1067736Y2608696D01*
X1068864Y2609259D01*
X1069992Y2609823D01*
X1071119Y2610810D01*
X1072247Y2612079D01*
X1072388Y2611938D01*
X1072811Y2611656D01*
X1073375Y2611233D01*
X1074221Y2610669D01*
X1075348Y2610105D01*
X1076617Y2609400D01*
X1078168Y2608696D01*
X1079718Y2607991D01*
X1079859Y2607850D01*
X1080423Y2607709D01*
X1081269Y2607427D01*
X1082115Y2607145D01*
X1084370Y2606440D01*
X1085357Y2606299D01*
X1086344Y2606158D01*
X1086908D01*
X1087472Y2606299D01*
X1088318Y2606440D01*
X1089163Y2606722D01*
X1090150Y2607145D01*
X1091278Y2607709D01*
X1092265Y2608555D01*
X1092406Y2608696D01*
X1092688Y2608978D01*
X1093111Y2609400D01*
X1093533Y2610105D01*
X1094520Y2611656D01*
X1094802Y2612643D01*
X1094943Y2613630D01*
Y2613770D01*
Y2613911D01*
X1094802Y2614757D01*
X1094661Y2616026D01*
X1094238Y2617859D01*
X1093393Y2619832D01*
X1092406Y2622370D01*
X1090855Y2625048D01*
X1090009Y2626458D01*
X1088881Y2627867D01*
X1088741Y2628008D01*
X1088600Y2628149D01*
X1087895Y2629136D01*
X1086626Y2630405D01*
X1085216Y2631815D01*
X1083525Y2633224D01*
X1081692Y2634493D01*
X1079859Y2635480D01*
X1078873Y2635621D01*
X1078027Y2635762D01*
X1077040D01*
X1076053Y2635621D01*
X1074925Y2635480D01*
X1073516Y2635198D01*
X1072247Y2634775D01*
X1070978Y2634211D01*
X1069851Y2633365D01*
X1069710Y2633224D01*
X1069569Y2633083D01*
X1069428Y2632660D01*
X1069287Y2631956D01*
Y2631815D01*
Y2631533D01*
Y2631110D01*
X1069428Y2630546D01*
Y2630405D01*
X1069287Y2630264D01*
X1069146Y2629982D01*
X1068723Y2629841D01*
X1068441D01*
X1067595Y2630123D01*
X1067454D01*
X1067313Y2630264D01*
X1066608Y2630405D01*
X1066185D01*
X1065339Y2630123D01*
X1064917Y2629841D01*
X1064494Y2629418D01*
X1064212Y2628854D01*
X1064071Y2628008D01*
Y2627867D01*
Y2627727D01*
X1064212Y2627445D01*
X1064353Y2626881D01*
X1064635Y2626176D01*
X1065058Y2625330D01*
X1065480Y2624202D01*
Y2624061D01*
X1065762Y2623638D01*
X1065903Y2623215D01*
X1066185Y2622511D01*
X1066749Y2621101D01*
X1067031Y2620537D01*
X1067172Y2619973D01*
Y2619832D01*
X1067313Y2619127D01*
X1067454Y2618141D01*
Y2616872D01*
Y2616731D01*
Y2616590D01*
X1067031Y2616026D01*
X1066749Y2615603D01*
X1066326Y2615321D01*
X1065621Y2615180D01*
X1064635Y2615039D01*
X1063930D01*
X1063225Y2615321D01*
X1062379Y2615603D01*
X1061251Y2616026D01*
X1059983Y2616731D01*
X1058855Y2617718D01*
X1057586Y2618986D01*
X1057445Y2619127D01*
X1057022Y2619691D01*
X1056458Y2620537D01*
X1055895Y2621524D01*
X1055331Y2622793D01*
X1054767Y2624061D01*
X1054344Y2625612D01*
X1054203Y2627022D01*
Y2627163D01*
Y2627727D01*
X1054344Y2628572D01*
X1054626Y2629841D01*
X1055049Y2631251D01*
X1055613Y2633083D01*
X1056317Y2635198D01*
X1057445Y2637453D01*
Y2637594D01*
X1057586Y2637735D01*
X1058009Y2638581D01*
X1058714Y2639709D01*
X1059701Y2640978D01*
X1060828Y2642528D01*
X1062238Y2643938D01*
X1063789Y2645348D01*
X1065480Y2646476D01*
X1065621Y2646616D01*
X1066185Y2646898D01*
X1067031Y2647321D01*
X1068159Y2647885D01*
X1070555Y2648731D01*
X1071683Y2649013D01*
X1072811Y2649154D01*
X1073093D01*
X1073657Y2649013D01*
X1074784Y2648872D01*
X1076335Y2648308D01*
X1078168Y2647462D01*
X1080423Y2646335D01*
X1082961Y2644643D01*
X1084370Y2643515D01*
X1085921Y2642387D01*
X1086062Y2642246D01*
X1086344Y2642105D01*
X1086767Y2641683D01*
X1087331Y2641260D01*
X1088741Y2639709D01*
X1090714Y2637735D01*
X1092829Y2635339D01*
X1095225Y2632379D01*
X1097622Y2628995D01*
X1100018Y2625189D01*
Y2625048D01*
X1100300Y2624766D01*
X1100582Y2624202D01*
X1101005Y2623497D01*
X1101428Y2622652D01*
X1101992Y2621665D01*
X1102978Y2619409D01*
X1104106Y2616872D01*
X1105093Y2614334D01*
X1105798Y2612079D01*
X1105939Y2611092D01*
X1106080Y2610105D01*
Y2609823D01*
X1105939Y2609118D01*
X1105657Y2607850D01*
X1105093Y2606440D01*
X1104247Y2604607D01*
X1102978Y2602775D01*
X1102133Y2601788D01*
X1101146Y2600801D01*
X1100018Y2599814D01*
X1098749Y2598828D01*
X1098608D01*
X1098467Y2598546D01*
X1098045Y2598405D01*
X1097481Y2597982D01*
X1096776Y2597700D01*
X1095930Y2597277D01*
X1093815Y2596290D01*
X1091278Y2595303D01*
X1088459Y2594599D01*
X1085075Y2594035D01*
X1081551Y2593753D01*
X1080564D01*
X1079436Y2593894D01*
X1077886Y2594035D01*
X1075912Y2594317D01*
X1073657Y2594740D01*
X1070978Y2595303D01*
X1068018Y2596149D01*
X1067877D01*
X1067595Y2596290D01*
X1067172Y2596431D01*
X1066608Y2596572D01*
X1065199Y2597136D01*
X1063225Y2597841D01*
X1061110Y2598687D01*
X1058996Y2599814D01*
X1056881Y2600942D01*
X1054908Y2602352D01*
X1054767D01*
X1054626Y2602634D01*
X1054062Y2603057D01*
X1053357Y2603480D01*
X1052793Y2603762D01*
X1052652D01*
X1052370Y2603621D01*
X1051947Y2603480D01*
X1051383Y2603057D01*
X1051243Y2602916D01*
X1050820Y2602775D01*
X1050538Y2602352D01*
X1050397Y2601929D01*
Y2601788D01*
Y2601365D01*
X1050538Y2600801D01*
Y2600096D01*
X1051102Y2598405D01*
X1051524Y2597559D01*
X1052088Y2596854D01*
X1052229Y2596713D01*
X1052370Y2596572D01*
X1052793Y2596290D01*
X1053498Y2595867D01*
X1054203Y2595303D01*
X1055331Y2594740D01*
X1056599Y2594176D01*
X1058009Y2593471D01*
X1058150Y2593330D01*
X1058855Y2593189D01*
X1059701Y2592907D01*
X1061110Y2592484D01*
X1062802Y2591920D01*
X1064917Y2591356D01*
X1067454Y2590792D01*
X1070273Y2590088D01*
X1070555D01*
X1070978Y2589947D01*
X1071542Y2589806D01*
X1073093Y2589665D01*
X1075066Y2589383D01*
X1077181Y2589101D01*
X1079577Y2588819D01*
X1082115Y2588678D01*
X1084511Y2588537D01*
X1085498D01*
X1086203Y2588678D01*
X1087190D01*
X1088177Y2588819D01*
X1090714Y2589242D01*
X1093674Y2589947D01*
X1096776Y2591074D01*
X1100159Y2592484D01*
X1103401Y2594458D01*
X1103542Y2594599D01*
X1103824Y2594740D01*
X1104247Y2595021D01*
X1104670Y2595585D01*
X1106080Y2596854D01*
X1107630Y2598546D01*
X1109322Y2600801D01*
X1110591Y2603480D01*
X1111155Y2604889D01*
X1111578Y2606440D01*
X1111860Y2608132D01*
X1112001Y2609823D01*
Y2609964D01*
Y2610105D01*
Y2610528D01*
X1111860Y2611092D01*
X1111719Y2611797D01*
X1111578Y2612643D01*
X1111437Y2613630D01*
X1111155Y2614757D01*
X1110309Y2617436D01*
X1109040Y2620537D01*
X1108194Y2622370D01*
X1107208Y2624343D01*
X1106221Y2626458D01*
X1104952Y2628572D01*
X1104811Y2628713D01*
X1104670Y2629136D01*
X1104247Y2629700D01*
X1103683Y2630546D01*
X1102978Y2631533D01*
X1102274Y2632660D01*
X1100300Y2635480D01*
X1097904Y2638440D01*
X1095225Y2641542D01*
X1092124Y2644643D01*
X1088881Y2647321D01*
X1088741Y2647462D01*
X1088459Y2647603D01*
X1088036Y2647885D01*
X1087331Y2648449D01*
X1086626Y2648872D01*
X1085639Y2649436D01*
X1083525Y2650705D01*
X1081128Y2651973D01*
X1078591Y2653101D01*
X1075912Y2653806D01*
X1074644Y2653947D01*
X1073375Y2654088D01*
D02*
G37*
G36*
X1480727Y2601929D02*
X1477908D01*
X1477485Y2601788D01*
X1476921Y2601647D01*
X1476075Y2601083D01*
X1475934Y2600942D01*
X1475511Y2600519D01*
X1475088Y2599955D01*
X1474948Y2599110D01*
Y2598969D01*
Y2598687D01*
Y2598264D01*
X1475088Y2597559D01*
X1475370Y2596290D01*
X1475934Y2595162D01*
X1476075Y2595021D01*
X1476639Y2594458D01*
X1477485Y2593612D01*
X1478895Y2592625D01*
X1479036D01*
X1479177Y2592343D01*
X1480022Y2591920D01*
X1480868Y2591497D01*
X1481714Y2591215D01*
X1481996D01*
X1482701Y2591356D01*
X1483547Y2591497D01*
X1484393Y2591920D01*
X1484533Y2592061D01*
X1484674Y2592343D01*
X1484815Y2592766D01*
X1484956Y2593330D01*
X1485097Y2594176D01*
X1485238Y2595162D01*
Y2596431D01*
Y2596572D01*
Y2596995D01*
Y2597559D01*
Y2598264D01*
X1485097Y2599533D01*
Y2600096D01*
X1484956Y2600378D01*
X1484815Y2600519D01*
X1484533Y2600801D01*
X1483970Y2601224D01*
X1483124Y2601506D01*
X1482983D01*
X1482842Y2601647D01*
X1481996Y2601788D01*
X1480727Y2601929D01*
D02*
G37*
G36*
X1320888D02*
X1318068D01*
X1317645Y2601788D01*
X1317081Y2601647D01*
X1316236Y2601083D01*
X1316095Y2600942D01*
X1315672Y2600519D01*
X1315249Y2599955D01*
X1315108Y2599110D01*
Y2598969D01*
Y2598687D01*
Y2598264D01*
X1315249Y2597559D01*
X1315531Y2596290D01*
X1316095Y2595162D01*
X1316236Y2595021D01*
X1316799Y2594458D01*
X1317645Y2593612D01*
X1319055Y2592625D01*
X1319196D01*
X1319337Y2592343D01*
X1320183Y2591920D01*
X1321029Y2591497D01*
X1321874Y2591215D01*
X1322156D01*
X1322861Y2591356D01*
X1323707Y2591497D01*
X1324553Y2591920D01*
X1324694Y2592061D01*
X1324835Y2592343D01*
X1324976Y2592766D01*
X1325117Y2593330D01*
X1325258Y2594176D01*
X1325399Y2595162D01*
Y2596431D01*
Y2596572D01*
Y2596995D01*
Y2597559D01*
Y2598264D01*
X1325258Y2599533D01*
Y2600096D01*
X1325117Y2600378D01*
X1324976Y2600519D01*
X1324694Y2600801D01*
X1324130Y2601224D01*
X1323284Y2601506D01*
X1323143D01*
X1323002Y2601647D01*
X1322156Y2601788D01*
X1320888Y2601929D01*
D02*
G37*
G36*
X886257Y2654088D02*
X885693D01*
X885130Y2653947D01*
X884566Y2653665D01*
X884002Y2653242D01*
X883438Y2652537D01*
X883015Y2651691D01*
X882874Y2650423D01*
Y2650282D01*
Y2650000D01*
X883015Y2649577D01*
X883297Y2649154D01*
X883438Y2649013D01*
X883579Y2648872D01*
X883720Y2648449D01*
X884143Y2648026D01*
X884566Y2647321D01*
X885271Y2646335D01*
X886116Y2645066D01*
X886257Y2644925D01*
X886539Y2644502D01*
X886962Y2643938D01*
X887526Y2642951D01*
X888231Y2641824D01*
X889218Y2640555D01*
X890204Y2639145D01*
X891191Y2637453D01*
X892460Y2635621D01*
X893729Y2633647D01*
X896407Y2629418D01*
X899227Y2624766D01*
X902187Y2619973D01*
Y2619832D01*
X902469Y2619550D01*
X902751Y2618986D01*
X903174Y2618282D01*
X903738Y2617436D01*
X904301Y2616449D01*
X905711Y2614052D01*
X907262Y2611374D01*
X908953Y2608696D01*
X910645Y2606017D01*
X912196Y2603480D01*
Y2603339D01*
X912337Y2603198D01*
X912901Y2602352D01*
X913605Y2601083D01*
X914592Y2599673D01*
X915438Y2597982D01*
X916284Y2596431D01*
X916989Y2594881D01*
X917412Y2593612D01*
X917553Y2593330D01*
X917976Y2592625D01*
X918680Y2591779D01*
X919949Y2590792D01*
X920090D01*
X920231Y2590651D01*
X920654Y2590510D01*
X921218Y2590369D01*
X922769Y2589947D01*
X924601Y2589806D01*
X924883Y2589947D01*
X925165Y2590369D01*
X925729Y2591215D01*
X926011Y2591779D01*
X926434Y2592484D01*
X926857Y2593330D01*
X927280Y2594458D01*
X927843Y2595585D01*
X928407Y2597136D01*
X929112Y2598687D01*
X929817Y2600660D01*
X929958Y2600942D01*
X930099Y2601224D01*
X930240Y2601788D01*
X930522Y2602634D01*
X930945Y2603480D01*
X931368Y2604748D01*
X931932Y2606299D01*
X932636Y2608132D01*
X933482Y2610246D01*
X934469Y2612784D01*
X935597Y2615603D01*
X936866Y2618845D01*
X938416Y2622511D01*
X939967Y2626599D01*
X941799Y2631251D01*
Y2631392D01*
X942081Y2631815D01*
X942222Y2632520D01*
X942645Y2633365D01*
X943068Y2634493D01*
X943491Y2635621D01*
X944478Y2638158D01*
X945465Y2640696D01*
X945888Y2641964D01*
X946311Y2642951D01*
X946592Y2643938D01*
X946874Y2644502D01*
X947156Y2645066D01*
Y2645207D01*
Y2645348D01*
Y2645630D01*
X947015Y2646053D01*
X946874Y2646757D01*
X946311Y2648026D01*
X945606Y2649436D01*
Y2649577D01*
X945324Y2649718D01*
X944760Y2650282D01*
X943773Y2650846D01*
X943209Y2651128D01*
X942363D01*
X941940Y2650987D01*
X941377Y2650705D01*
X940531Y2650141D01*
X939826Y2649154D01*
X939403Y2648449D01*
X938980Y2647603D01*
X938557Y2646616D01*
X938275Y2645630D01*
X937993Y2644220D01*
X937711Y2642810D01*
Y2642669D01*
X937570Y2642387D01*
X937429Y2641824D01*
X937288Y2640978D01*
X937007Y2639850D01*
X936584Y2638440D01*
X935879Y2636608D01*
X935174Y2634352D01*
X934328Y2631815D01*
X933200Y2628854D01*
X931932Y2625330D01*
X930381Y2621383D01*
X928548Y2617013D01*
X926434Y2611938D01*
X925306Y2609259D01*
X924178Y2606440D01*
X922910Y2603480D01*
X921500Y2600378D01*
X921359Y2600519D01*
X921218Y2600801D01*
X920795Y2601365D01*
X920372Y2602211D01*
X919244Y2603903D01*
X917976Y2606017D01*
X917835Y2606158D01*
X917553Y2606581D01*
X917130Y2607286D01*
X916566Y2608273D01*
X915861Y2609259D01*
X915015Y2610528D01*
X913183Y2613489D01*
X911209Y2616731D01*
X909235Y2620114D01*
X907262Y2623356D01*
X906416Y2624907D01*
X905711Y2626317D01*
Y2626458D01*
X905570Y2626599D01*
X905288Y2627022D01*
X905006Y2627445D01*
X904301Y2628854D01*
X903315Y2630687D01*
X902187Y2632801D01*
X900777Y2635057D01*
X899227Y2637594D01*
X897676Y2640273D01*
X896125Y2642810D01*
X894434Y2645348D01*
X892883Y2647603D01*
X891191Y2649718D01*
X889782Y2651550D01*
X888372Y2652960D01*
X887808Y2653383D01*
X887244Y2653806D01*
X886680Y2653947D01*
X886257Y2654088D01*
D02*
G37*
G36*
X1951224Y2636608D02*
X1950660D01*
X1949955Y2636467D01*
X1949251Y2636044D01*
X1948405Y2635621D01*
X1947418Y2634916D01*
X1946572Y2633929D01*
X1945867Y2632520D01*
X1945726Y2632379D01*
X1945444Y2631956D01*
X1944881Y2631392D01*
X1944176Y2631251D01*
X1943612D01*
X1943048Y2631110D01*
X1942343Y2630969D01*
X1941779Y2630546D01*
X1941215Y2630123D01*
X1940792Y2629418D01*
X1940651Y2628572D01*
Y2628290D01*
Y2627586D01*
X1940933Y2626458D01*
X1941215Y2624907D01*
Y2624766D01*
X1941356Y2624343D01*
X1941497Y2623638D01*
X1941638Y2622793D01*
X1941779Y2621806D01*
X1941920Y2620678D01*
X1942343Y2617859D01*
X1942907Y2614898D01*
X1943189Y2611938D01*
X1943471Y2609259D01*
X1943612Y2608132D01*
Y2607004D01*
Y2606863D01*
Y2606581D01*
Y2606017D01*
Y2605312D01*
X1943471Y2603621D01*
X1943189Y2601506D01*
X1942625Y2599392D01*
X1942061Y2597418D01*
X1941497Y2596431D01*
X1941074Y2595726D01*
X1940510Y2595021D01*
X1939806Y2594599D01*
X1939665D01*
X1939524Y2594458D01*
X1938819Y2593894D01*
X1938114Y2593048D01*
X1937973Y2592625D01*
X1937832Y2592061D01*
Y2591779D01*
X1938114Y2591215D01*
X1938537Y2590510D01*
X1939101Y2589947D01*
X1939665Y2589524D01*
X1939806D01*
X1939947Y2589242D01*
X1940792Y2588819D01*
X1941920Y2588396D01*
X1943189Y2588114D01*
X1943330D01*
X1943753Y2588255D01*
X1944317Y2588396D01*
X1945022Y2588678D01*
X1945867Y2589242D01*
X1946854Y2590088D01*
X1947700Y2591074D01*
X1948546Y2592625D01*
X1948687Y2592907D01*
X1948828Y2593471D01*
X1949251Y2594458D01*
X1949533Y2595867D01*
X1949955Y2597700D01*
X1950378Y2599955D01*
X1950519Y2602493D01*
X1950660Y2605453D01*
Y2605312D01*
X1950942Y2605171D01*
X1951224Y2604748D01*
X1951647Y2604185D01*
X1952916Y2602775D01*
X1954466Y2600942D01*
X1956299Y2598969D01*
X1958273Y2596995D01*
X1960387Y2595162D01*
X1962643Y2593471D01*
X1962925Y2593330D01*
X1963630Y2592907D01*
X1964757Y2592202D01*
X1966167Y2591497D01*
X1967718Y2590792D01*
X1969550Y2590088D01*
X1971383Y2589665D01*
X1973216Y2589524D01*
X1973779D01*
X1974343Y2589665D01*
X1975189Y2589806D01*
X1976176Y2590228D01*
X1977022Y2590651D01*
X1978008Y2591356D01*
X1978995Y2592202D01*
X1979136Y2592343D01*
X1979277Y2592766D01*
X1979700Y2593330D01*
X1980123Y2594176D01*
X1980546Y2595162D01*
X1980828Y2596431D01*
X1981110Y2597841D01*
X1981251Y2599392D01*
Y2599533D01*
Y2599955D01*
Y2600519D01*
X1981110Y2601365D01*
X1980969Y2602352D01*
X1980687Y2603621D01*
X1980405Y2605030D01*
X1979982Y2606722D01*
X1979418Y2608414D01*
X1978854Y2610246D01*
X1978008Y2612220D01*
X1977022Y2614334D01*
X1975894Y2616590D01*
X1974484Y2618845D01*
X1972934Y2621242D01*
X1971242Y2623638D01*
X1971101Y2623779D01*
X1970819Y2624202D01*
X1970255Y2624907D01*
X1969550Y2625612D01*
X1968564Y2626599D01*
X1967577Y2627727D01*
X1966308Y2628854D01*
X1965039Y2630123D01*
X1961938Y2632520D01*
X1960246Y2633647D01*
X1958555Y2634634D01*
X1956722Y2635480D01*
X1954889Y2636044D01*
X1953057Y2636467D01*
X1951224Y2636608D01*
D02*
G37*
G36*
X672507D02*
X671943D01*
X671238Y2636467D01*
X670533Y2636044D01*
X669688Y2635621D01*
X668701Y2634916D01*
X667855Y2633929D01*
X667150Y2632520D01*
X667009Y2632379D01*
X666727Y2631956D01*
X666163Y2631392D01*
X665458Y2631251D01*
X664895D01*
X664331Y2631110D01*
X663626Y2630969D01*
X663062Y2630546D01*
X662498Y2630123D01*
X662075Y2629418D01*
X661934Y2628572D01*
Y2628290D01*
Y2627586D01*
X662216Y2626458D01*
X662498Y2624907D01*
Y2624766D01*
X662639Y2624343D01*
X662780Y2623638D01*
X662921Y2622793D01*
X663062Y2621806D01*
X663203Y2620678D01*
X663626Y2617859D01*
X664190Y2614898D01*
X664472Y2611938D01*
X664754Y2609259D01*
X664895Y2608132D01*
Y2607004D01*
Y2606863D01*
Y2606581D01*
Y2606017D01*
Y2605312D01*
X664754Y2603621D01*
X664472Y2601506D01*
X663908Y2599392D01*
X663344Y2597418D01*
X662780Y2596431D01*
X662357Y2595726D01*
X661793Y2595021D01*
X661088Y2594599D01*
X660947D01*
X660806Y2594458D01*
X660102Y2593894D01*
X659397Y2593048D01*
X659256Y2592625D01*
X659115Y2592061D01*
Y2591779D01*
X659397Y2591215D01*
X659820Y2590510D01*
X660383Y2589947D01*
X660947Y2589524D01*
X661088D01*
X661229Y2589242D01*
X662075Y2588819D01*
X663203Y2588396D01*
X664472Y2588114D01*
X664613D01*
X665036Y2588255D01*
X665599Y2588396D01*
X666304Y2588678D01*
X667150Y2589242D01*
X668137Y2590088D01*
X668983Y2591074D01*
X669828Y2592625D01*
X669969Y2592907D01*
X670110Y2593471D01*
X670533Y2594458D01*
X670815Y2595867D01*
X671238Y2597700D01*
X671661Y2599955D01*
X671802Y2602493D01*
X671943Y2605453D01*
Y2605312D01*
X672225Y2605171D01*
X672507Y2604748D01*
X672930Y2604185D01*
X674199Y2602775D01*
X675749Y2600942D01*
X677582Y2598969D01*
X679555Y2596995D01*
X681670Y2595162D01*
X683925Y2593471D01*
X684207Y2593330D01*
X684912Y2592907D01*
X686040Y2592202D01*
X687450Y2591497D01*
X689000Y2590792D01*
X690833Y2590088D01*
X692666Y2589665D01*
X694498Y2589524D01*
X695062D01*
X695626Y2589665D01*
X696472Y2589806D01*
X697459Y2590228D01*
X698304Y2590651D01*
X699291Y2591356D01*
X700278Y2592202D01*
X700419Y2592343D01*
X700560Y2592766D01*
X700983Y2593330D01*
X701406Y2594176D01*
X701829Y2595162D01*
X702111Y2596431D01*
X702393Y2597841D01*
X702534Y2599392D01*
Y2599533D01*
Y2599955D01*
Y2600519D01*
X702393Y2601365D01*
X702252Y2602352D01*
X701970Y2603621D01*
X701688Y2605030D01*
X701265Y2606722D01*
X700701Y2608414D01*
X700137Y2610246D01*
X699291Y2612220D01*
X698304Y2614334D01*
X697177Y2616590D01*
X695767Y2618845D01*
X694216Y2621242D01*
X692525Y2623638D01*
X692384Y2623779D01*
X692102Y2624202D01*
X691538Y2624907D01*
X690833Y2625612D01*
X689846Y2626599D01*
X688859Y2627727D01*
X687591Y2628854D01*
X686322Y2630123D01*
X683221Y2632520D01*
X681529Y2633647D01*
X679837Y2634634D01*
X678005Y2635480D01*
X676172Y2636044D01*
X674340Y2636467D01*
X672507Y2636608D01*
D02*
G37*
G36*
X1394534Y2647462D02*
X1392138D01*
X1391010Y2647321D01*
X1389600Y2647039D01*
X1387768Y2646476D01*
X1385794Y2645912D01*
X1383539Y2644925D01*
X1381283Y2643656D01*
X1381142D01*
X1381001Y2643515D01*
X1380155Y2642951D01*
X1379027Y2642246D01*
X1377759Y2641260D01*
X1376208Y2639991D01*
X1374798Y2638581D01*
X1373389Y2637031D01*
X1372261Y2635339D01*
X1372120Y2635198D01*
X1371838Y2634493D01*
X1371415Y2633506D01*
X1370851Y2632097D01*
X1370428Y2630405D01*
X1370005Y2628431D01*
X1369723Y2626035D01*
X1369582Y2623356D01*
Y2623215D01*
Y2622793D01*
X1369723Y2622229D01*
X1369864Y2621383D01*
X1370005Y2620396D01*
X1370428Y2619127D01*
X1370851Y2617718D01*
X1371415Y2616167D01*
X1372261Y2614475D01*
X1373248Y2612784D01*
X1374375Y2610810D01*
X1375785Y2608837D01*
X1377477Y2606863D01*
X1379450Y2604748D01*
X1381706Y2602493D01*
X1384384Y2600378D01*
X1384525Y2600237D01*
X1385089Y2599955D01*
X1385794Y2599392D01*
X1386922Y2598546D01*
X1388331Y2597700D01*
X1390023Y2596713D01*
X1391856Y2595726D01*
X1393970Y2594740D01*
X1396367Y2593612D01*
X1398763Y2592625D01*
X1401442Y2591638D01*
X1404261Y2590792D01*
X1407221Y2590088D01*
X1410323Y2589524D01*
X1413565Y2589101D01*
X1416807Y2588960D01*
X1417089D01*
X1417935Y2589101D01*
X1419204Y2589242D01*
X1420755Y2589524D01*
X1422446Y2590088D01*
X1424138Y2590933D01*
X1425830Y2592061D01*
X1427380Y2593612D01*
X1427521Y2593894D01*
X1427944Y2594458D01*
X1428508Y2595444D01*
X1429213Y2596854D01*
X1429918Y2598546D01*
X1430482Y2600519D01*
X1430904Y2602634D01*
X1431045Y2605171D01*
Y2605312D01*
Y2605594D01*
Y2606017D01*
X1430904Y2606722D01*
Y2607427D01*
X1430763Y2608414D01*
X1430341Y2610669D01*
X1429777Y2613489D01*
X1428931Y2616590D01*
X1427662Y2620114D01*
X1425970Y2623920D01*
Y2624061D01*
X1425689Y2624343D01*
X1425407Y2624907D01*
X1424984Y2625612D01*
X1424420Y2626458D01*
X1423856Y2627586D01*
X1422164Y2629841D01*
X1419909Y2632520D01*
X1417371Y2635339D01*
X1414270Y2638158D01*
X1410746Y2640837D01*
X1410605Y2640978D01*
X1410323Y2641119D01*
X1409759Y2641401D01*
X1409054Y2641824D01*
X1408208Y2642387D01*
X1407221Y2642951D01*
X1404825Y2644220D01*
X1402006Y2645348D01*
X1399045Y2646476D01*
X1396085Y2647180D01*
X1394534Y2647462D01*
D02*
G37*
G36*
X1858194Y2662687D02*
X1858053D01*
X1857771Y2662546D01*
X1857207Y2662405D01*
X1856643Y2661982D01*
X1856080Y2661418D01*
X1855516Y2660432D01*
X1855234Y2659163D01*
X1855093Y2657330D01*
Y2657048D01*
X1855234Y2656766D01*
X1855375Y2656061D01*
X1855516Y2655216D01*
X1855939Y2653947D01*
X1856362Y2652396D01*
X1857066Y2650423D01*
Y2650282D01*
X1857207Y2650000D01*
X1857348Y2649436D01*
X1857630Y2648731D01*
X1857912Y2647885D01*
X1858194Y2646757D01*
X1858617Y2645489D01*
X1858899Y2643938D01*
X1859463Y2642387D01*
X1859886Y2640696D01*
X1860309Y2638722D01*
X1860873Y2636749D01*
X1861859Y2632238D01*
X1862987Y2627304D01*
Y2627163D01*
X1863128Y2626740D01*
X1863269Y2626035D01*
X1863410Y2625048D01*
X1863551Y2623920D01*
X1863833Y2622511D01*
X1864115Y2621101D01*
X1864256Y2619409D01*
X1864820Y2616026D01*
X1865243Y2612361D01*
X1865525Y2608696D01*
X1865666Y2605453D01*
Y2605312D01*
Y2605030D01*
Y2604607D01*
Y2604185D01*
X1865525Y2602775D01*
X1865243Y2601224D01*
X1864820Y2599673D01*
X1864115Y2598264D01*
X1863692Y2597841D01*
X1863269Y2597418D01*
X1862705Y2597136D01*
X1862000Y2596995D01*
X1861577D01*
X1861155Y2597136D01*
X1860450D01*
X1858899Y2597700D01*
X1858053Y2597982D01*
X1857066Y2598546D01*
X1856925Y2598687D01*
X1856503Y2598969D01*
X1855798Y2599251D01*
X1855093Y2599392D01*
X1854811D01*
X1854388Y2599110D01*
X1853965Y2598687D01*
X1853683Y2598123D01*
Y2597559D01*
Y2597418D01*
Y2597136D01*
X1853824Y2596713D01*
X1854106Y2596149D01*
X1854670Y2595444D01*
X1855234Y2594599D01*
X1856221Y2593612D01*
X1857489Y2592625D01*
X1857630Y2592484D01*
X1858194Y2592202D01*
X1858899Y2591779D01*
X1859886Y2591215D01*
X1861155Y2590651D01*
X1862423Y2590228D01*
X1863833Y2589947D01*
X1865384Y2589806D01*
X1865666D01*
X1866511Y2590088D01*
X1867498Y2590510D01*
X1868203Y2590933D01*
X1868767Y2591497D01*
X1869472Y2592202D01*
X1870036Y2593048D01*
X1870740Y2594176D01*
X1871163Y2595444D01*
X1871586Y2596995D01*
X1872009Y2598828D01*
X1872150Y2600801D01*
X1872291Y2603198D01*
Y2603339D01*
Y2603621D01*
Y2604044D01*
Y2604607D01*
Y2606017D01*
X1872163Y2607555D01*
X1872150Y2607568D01*
Y2607709D01*
X1872163Y2607555D01*
X1872432Y2607286D01*
X1872714Y2606863D01*
X1873137Y2606158D01*
X1874265Y2604607D01*
X1875815Y2602493D01*
X1877648Y2600237D01*
X1879763Y2597841D01*
X1882018Y2595585D01*
X1884415Y2593612D01*
X1884697Y2593471D01*
X1885542Y2592907D01*
X1886670Y2592061D01*
X1888221Y2591215D01*
X1890053Y2590228D01*
X1892027Y2589524D01*
X1894001Y2588960D01*
X1896115Y2588678D01*
X1896820D01*
X1897525Y2588819D01*
X1898512Y2589101D01*
X1899498Y2589383D01*
X1900626Y2589947D01*
X1901613Y2590792D01*
X1902600Y2591779D01*
X1902741Y2591920D01*
X1903023Y2592343D01*
X1903305Y2593048D01*
X1903727Y2594035D01*
X1904291Y2595303D01*
X1904573Y2596713D01*
X1904855Y2598405D01*
X1904996Y2600237D01*
Y2600378D01*
Y2600660D01*
Y2601365D01*
X1904855Y2602070D01*
X1904714Y2603057D01*
X1904573Y2604325D01*
X1904291Y2605594D01*
X1903868Y2607145D01*
X1902882Y2610387D01*
X1902177Y2612220D01*
X1901331Y2614193D01*
X1900344Y2616167D01*
X1899075Y2618141D01*
X1897807Y2620255D01*
X1896256Y2622370D01*
X1896115Y2622511D01*
X1895833Y2622934D01*
X1895410Y2623497D01*
X1894705Y2624202D01*
X1893860Y2625048D01*
X1893014Y2626035D01*
X1890617Y2628149D01*
X1887798Y2630123D01*
X1884556Y2631956D01*
X1882864Y2632801D01*
X1881031Y2633365D01*
X1879199Y2633647D01*
X1877366Y2633788D01*
X1876661D01*
X1875674Y2633647D01*
X1874688Y2633365D01*
X1873419Y2632801D01*
X1872009Y2632238D01*
X1870600Y2631251D01*
X1869190Y2629982D01*
X1863269Y2657753D01*
Y2657894D01*
X1863128Y2658176D01*
X1862987Y2658740D01*
X1862705Y2659304D01*
X1862000Y2660713D01*
X1861436Y2661277D01*
X1860873Y2661700D01*
X1860732D01*
X1860591Y2661841D01*
X1859886Y2662264D01*
X1859040Y2662546D01*
X1858194Y2662687D01*
D02*
G37*
G36*
X1794556Y2635762D02*
X1794274D01*
X1793428Y2635621D01*
X1792160Y2635480D01*
X1790609Y2635057D01*
X1788917Y2634493D01*
X1787085Y2633506D01*
X1785252Y2632238D01*
X1783561Y2630405D01*
X1783420Y2630123D01*
X1782856Y2629418D01*
X1782151Y2628431D01*
X1781305Y2626881D01*
X1780600Y2625048D01*
X1779895Y2622934D01*
X1779331Y2620537D01*
X1779190Y2618000D01*
Y2617859D01*
Y2617577D01*
Y2616872D01*
X1779331Y2616167D01*
X1779472Y2615180D01*
X1779613Y2614052D01*
X1779895Y2612643D01*
X1780318Y2611233D01*
X1781305Y2608132D01*
X1782010Y2606440D01*
X1782997Y2604607D01*
X1783983Y2602775D01*
X1785111Y2601083D01*
X1786521Y2599251D01*
X1788072Y2597418D01*
X1788213Y2597277D01*
X1788495Y2596995D01*
X1788917Y2596572D01*
X1789622Y2596008D01*
X1790327Y2595162D01*
X1791314Y2594458D01*
X1793569Y2592766D01*
X1796389Y2590933D01*
X1799490Y2589524D01*
X1801041Y2588819D01*
X1802732Y2588396D01*
X1804424Y2588114D01*
X1806257Y2587973D01*
X1806539D01*
X1807244Y2588114D01*
X1808371Y2588255D01*
X1809640Y2588537D01*
X1811191Y2589101D01*
X1812882Y2589806D01*
X1814433Y2590933D01*
X1815984Y2592343D01*
X1816125Y2592484D01*
X1816548Y2593189D01*
X1817111Y2594035D01*
X1817816Y2595303D01*
X1818521Y2596995D01*
X1819085Y2598828D01*
X1819508Y2600942D01*
X1819649Y2603339D01*
Y2603480D01*
Y2603903D01*
Y2604466D01*
X1819508Y2605171D01*
X1819367Y2606158D01*
X1819226Y2607427D01*
X1819085Y2608696D01*
X1818662Y2610246D01*
X1817816Y2613489D01*
X1816548Y2617154D01*
X1815702Y2619127D01*
X1814715Y2621101D01*
X1813587Y2623075D01*
X1812318Y2625048D01*
X1812177Y2625189D01*
X1812037Y2625471D01*
X1811614Y2626035D01*
X1811050Y2626740D01*
X1810204Y2627586D01*
X1809358Y2628431D01*
X1807244Y2630405D01*
X1804706Y2632379D01*
X1801605Y2634070D01*
X1800054Y2634775D01*
X1798221Y2635339D01*
X1796389Y2635621D01*
X1794556Y2635762D01*
D02*
G37*
G36*
X836576Y2652396D02*
X833897D01*
X832347Y2652114D01*
X830232Y2651832D01*
X827976Y2651269D01*
X825580Y2650564D01*
X823184Y2649436D01*
X821069Y2648026D01*
X820787Y2647885D01*
X820223Y2647321D01*
X819377Y2646335D01*
X818250Y2645066D01*
X817263Y2643515D01*
X816417Y2641683D01*
X815853Y2639709D01*
X815571Y2637312D01*
Y2637031D01*
X815712Y2636185D01*
X815853Y2634916D01*
X816276Y2633365D01*
X816981Y2631533D01*
X817968Y2629418D01*
X819377Y2627304D01*
X821351Y2625048D01*
X821633Y2624766D01*
X822338Y2624061D01*
X823606Y2623075D01*
X825298Y2621806D01*
X827413Y2620396D01*
X829809Y2618986D01*
X832629Y2617436D01*
X835730Y2616167D01*
X835871D01*
X836153Y2615885D01*
X836576Y2615603D01*
X836717Y2615321D01*
X836576Y2615180D01*
X836294Y2614757D01*
X835589Y2614193D01*
X834602Y2613207D01*
X833897Y2612643D01*
X833051Y2611938D01*
X832065Y2611092D01*
X830796Y2610105D01*
X829527Y2609118D01*
X827976Y2607850D01*
X827836Y2607709D01*
X827554Y2607568D01*
X827131Y2607145D01*
X826426Y2606722D01*
X825721Y2606158D01*
X824734Y2605453D01*
X822620Y2603903D01*
X820082Y2602070D01*
X817263Y2600237D01*
X814443Y2598264D01*
X811624Y2596431D01*
X811483D01*
X811342Y2596149D01*
X810496Y2595585D01*
X809791Y2594458D01*
X809650Y2593753D01*
X809509Y2593048D01*
Y2592766D01*
X809650Y2592202D01*
X810214Y2591356D01*
X810496Y2590933D01*
X811060Y2590369D01*
X811342Y2590228D01*
X811906Y2589806D01*
X812752Y2589242D01*
X813739Y2589101D01*
X814161D01*
X814725Y2589383D01*
X815571Y2589665D01*
X816699Y2590088D01*
X818109Y2590792D01*
X819800Y2591779D01*
X821774Y2593189D01*
X822056Y2593330D01*
X822761Y2593894D01*
X823888Y2594740D01*
X825298Y2595867D01*
X826990Y2597277D01*
X828963Y2598828D01*
X830937Y2600519D01*
X833192Y2602352D01*
X833333Y2602493D01*
X833756Y2602775D01*
X834320Y2603339D01*
X835166Y2604044D01*
X836153Y2604889D01*
X837281Y2605735D01*
X839818Y2607850D01*
X842355Y2609823D01*
X844611Y2611515D01*
X845598Y2612220D01*
X846444Y2612784D01*
X847148Y2613207D01*
X847571Y2613348D01*
X848558D01*
X849122Y2613489D01*
X850532Y2613630D01*
X851096Y2613770D01*
X851659Y2614052D01*
X851800Y2614193D01*
X852223Y2614616D01*
X852646Y2615462D01*
X852787Y2616731D01*
Y2616872D01*
Y2617013D01*
X852646Y2617718D01*
X852223Y2618563D01*
X851378Y2619550D01*
X851237D01*
X851096Y2619691D01*
X850391Y2620255D01*
X849122Y2620678D01*
X847712Y2620819D01*
X847148D01*
X846444Y2620678D01*
X845457Y2620537D01*
X845175D01*
X844470Y2620396D01*
X843765Y2620255D01*
X842919D01*
X842355Y2620396D01*
X841510Y2620537D01*
X840382Y2620960D01*
X838690Y2621524D01*
X836717Y2622370D01*
X834179Y2623638D01*
X831360Y2625330D01*
X831219D01*
X830937Y2625612D01*
X830655Y2625894D01*
X830091Y2626176D01*
X828681Y2627304D01*
X827131Y2628713D01*
X825721Y2630546D01*
X824311Y2632520D01*
X823747Y2633647D01*
X823465Y2634775D01*
X823184Y2636044D01*
X823043Y2637312D01*
Y2637453D01*
Y2637876D01*
X823184Y2638581D01*
X823465Y2639427D01*
X824029Y2640414D01*
X824593Y2641542D01*
X825580Y2642528D01*
X826849Y2643515D01*
X826990Y2643656D01*
X827554Y2643938D01*
X828258Y2644361D01*
X829386Y2644925D01*
X830796Y2645348D01*
X832347Y2645771D01*
X834179Y2646053D01*
X836294Y2646194D01*
X837844D01*
X838972Y2646053D01*
X840241D01*
X841651Y2645912D01*
X844893Y2645489D01*
X845034D01*
X845598Y2645348D01*
X846303D01*
X847148Y2645207D01*
X848981Y2644784D01*
X849686Y2644643D01*
X850250Y2644502D01*
X850391Y2644361D01*
X850955Y2644079D01*
X851518Y2643374D01*
X852223Y2642246D01*
Y2642105D01*
X852364Y2641824D01*
X852505Y2641260D01*
X852787Y2640273D01*
X853069Y2638722D01*
X853351Y2637876D01*
X853492Y2636749D01*
X853774Y2635621D01*
X854056Y2634211D01*
X854338Y2632660D01*
X854620Y2630969D01*
Y2630828D01*
Y2630546D01*
X854761Y2629982D01*
X854902Y2629418D01*
X855043Y2628572D01*
X855184Y2627586D01*
X855607Y2625189D01*
X856030Y2622511D01*
X856452Y2619409D01*
X856875Y2616308D01*
X857298Y2613066D01*
Y2612925D01*
Y2612643D01*
X857439Y2612220D01*
Y2611656D01*
X857580Y2610246D01*
X857721Y2608414D01*
X857862Y2606299D01*
X858003Y2604325D01*
X858144Y2602352D01*
Y2600660D01*
Y2600519D01*
Y2600096D01*
Y2599533D01*
Y2598828D01*
X858003Y2597136D01*
X857721Y2595303D01*
Y2595162D01*
Y2594881D01*
X857580Y2594035D01*
X857439Y2592766D01*
Y2591638D01*
Y2591356D01*
X857580Y2590792D01*
X858003Y2590088D01*
X858849Y2589101D01*
X859131Y2588819D01*
X859695Y2588396D01*
X860541Y2587973D01*
X861668Y2587691D01*
X861809D01*
X862373Y2587832D01*
X863078Y2588114D01*
X863783Y2588537D01*
X864629Y2589383D01*
X865334Y2590792D01*
X865615Y2591497D01*
X865897Y2592484D01*
X866038Y2593612D01*
Y2594881D01*
Y2595021D01*
Y2595726D01*
Y2596713D01*
X865897Y2597982D01*
Y2599673D01*
X865756Y2601788D01*
X865475Y2604325D01*
X865334Y2607004D01*
X864911Y2610105D01*
X864629Y2613630D01*
X864065Y2617295D01*
X863501Y2621383D01*
X862796Y2625753D01*
X862091Y2630405D01*
X861104Y2635339D01*
X860118Y2640555D01*
Y2640837D01*
X859977Y2641260D01*
X859836Y2641824D01*
Y2642246D01*
Y2642387D01*
X860118Y2642951D01*
Y2643092D01*
X860400Y2643374D01*
X860541Y2643797D01*
X860823Y2644361D01*
X861386Y2645630D01*
X861527Y2646194D01*
X861668Y2646616D01*
Y2646757D01*
Y2646898D01*
X861527Y2647603D01*
X860963Y2648449D01*
X860682Y2648872D01*
X860118Y2649295D01*
X859977D01*
X859836Y2649436D01*
X859131Y2650000D01*
X858285Y2650423D01*
X857298Y2650564D01*
X853774Y2650282D01*
X853633D01*
X853210Y2650423D01*
X852505D01*
X851659Y2650564D01*
X850673Y2650846D01*
X849545Y2650987D01*
X846726Y2651409D01*
X843765Y2651691D01*
X840805Y2652114D01*
X837844Y2652255D01*
X836576Y2652396D01*
D02*
G37*
G36*
X1684117Y2637172D02*
X1683976D01*
X1683412Y2637031D01*
X1682848Y2636749D01*
X1682284Y2636185D01*
X1682143Y2636044D01*
X1681861Y2635621D01*
X1681579Y2634916D01*
X1681438Y2634211D01*
Y2633929D01*
Y2633365D01*
X1681720Y2632660D01*
X1682002Y2631956D01*
Y2631815D01*
X1682284Y2631674D01*
X1682566Y2631251D01*
X1682848Y2630687D01*
X1683412Y2629841D01*
X1683976Y2628995D01*
X1684539Y2627867D01*
X1685244Y2626599D01*
X1685949Y2625189D01*
X1686795Y2623638D01*
X1687641Y2621806D01*
X1688487Y2619832D01*
X1689332Y2617718D01*
X1690319Y2615462D01*
X1691165Y2612925D01*
X1692152Y2610246D01*
Y2610105D01*
X1692293Y2609682D01*
X1692575Y2609118D01*
X1692857Y2608273D01*
X1693139Y2607286D01*
X1693562Y2606158D01*
X1694407Y2603621D01*
X1695253Y2600942D01*
X1696240Y2598264D01*
X1696663Y2597136D01*
X1697086Y2596008D01*
X1697509Y2595162D01*
X1697791Y2594458D01*
Y2594317D01*
X1698073Y2593894D01*
X1698354Y2593471D01*
X1698636Y2592907D01*
X1699059Y2592202D01*
X1699482Y2591779D01*
X1699905Y2591356D01*
X1700328Y2591215D01*
X1701174D01*
X1702161Y2591356D01*
X1703288Y2591638D01*
X1704698Y2592061D01*
X1706108Y2592766D01*
X1707518Y2593612D01*
X1708786Y2594881D01*
X1708927Y2595021D01*
X1709350Y2595726D01*
X1709632Y2596290D01*
X1710055Y2596995D01*
X1710619Y2597841D01*
X1711042Y2598828D01*
X1711747Y2600096D01*
X1712311Y2601506D01*
X1713015Y2603057D01*
X1713861Y2605030D01*
X1714707Y2607145D01*
X1715553Y2609541D01*
X1716540Y2612079D01*
X1717526Y2615039D01*
Y2615180D01*
X1717667Y2615321D01*
X1717808Y2616167D01*
X1718231Y2617295D01*
X1718654Y2618423D01*
X1718936Y2618282D01*
X1719359Y2617859D01*
X1719782Y2617154D01*
X1720205Y2616590D01*
X1720628Y2615885D01*
X1721051Y2615180D01*
X1721615Y2614193D01*
X1722178Y2613066D01*
X1722883Y2611656D01*
X1723588Y2610105D01*
X1724434Y2608414D01*
Y2608273D01*
X1724575Y2607991D01*
X1724857Y2607568D01*
X1725139Y2607004D01*
X1725844Y2605453D01*
X1726830Y2603480D01*
X1727958Y2601224D01*
X1729368Y2598828D01*
X1730778Y2596290D01*
X1732187Y2593894D01*
X1732328Y2593612D01*
X1732892Y2592907D01*
X1733597Y2591920D01*
X1734443Y2590792D01*
X1735289Y2589524D01*
X1736275Y2588537D01*
X1737121Y2587832D01*
X1737544Y2587691D01*
X1737967Y2587550D01*
X1738249D01*
X1738813Y2587832D01*
X1739800Y2588396D01*
X1740505Y2588819D01*
X1741068Y2589524D01*
X1741914Y2590369D01*
X1742619Y2591356D01*
X1743465Y2592625D01*
X1744311Y2594176D01*
X1745157Y2596008D01*
X1746002Y2597982D01*
X1746848Y2600378D01*
X1747694Y2603198D01*
Y2603339D01*
X1747835Y2603903D01*
X1748117Y2604748D01*
X1748399Y2605876D01*
X1748681Y2607145D01*
X1749104Y2608696D01*
X1749527Y2610387D01*
X1749950Y2612361D01*
X1750795Y2616308D01*
X1751500Y2620537D01*
X1752064Y2624766D01*
X1752205Y2626740D01*
Y2628572D01*
Y2628713D01*
Y2629136D01*
X1752064Y2629700D01*
Y2630405D01*
X1751500Y2632097D01*
X1751218Y2632801D01*
X1750654Y2633647D01*
X1750513Y2633788D01*
X1750372Y2633929D01*
X1749668Y2634775D01*
X1748399Y2635621D01*
X1747694Y2635903D01*
X1746989Y2636044D01*
X1746425D01*
X1745861Y2635903D01*
X1745720D01*
X1745297Y2635762D01*
X1744734Y2635339D01*
X1743888Y2634493D01*
X1743747Y2634211D01*
X1743324Y2633647D01*
X1742901Y2632942D01*
X1742760Y2631956D01*
Y2631674D01*
Y2631533D01*
Y2631392D01*
Y2630969D01*
X1742901Y2630405D01*
X1743042Y2629700D01*
X1743183Y2628713D01*
X1743324Y2627445D01*
Y2627304D01*
Y2626881D01*
X1743465Y2626317D01*
Y2625612D01*
Y2624625D01*
X1743606Y2623356D01*
Y2622088D01*
Y2620678D01*
Y2620396D01*
Y2619550D01*
X1743465Y2618282D01*
X1743324Y2616590D01*
X1743042Y2614475D01*
X1742619Y2612079D01*
X1742055Y2609400D01*
X1741209Y2606581D01*
Y2606440D01*
X1741068Y2606299D01*
X1740786Y2605453D01*
X1740364Y2604185D01*
X1739800Y2602775D01*
X1739095Y2601365D01*
X1738531Y2600096D01*
X1737826Y2599251D01*
X1737403Y2599110D01*
X1737121Y2598969D01*
X1736839Y2599110D01*
X1736416Y2599673D01*
X1736134Y2600096D01*
X1735712Y2600660D01*
X1735289Y2601224D01*
X1734725Y2602070D01*
X1734020Y2603198D01*
X1733315Y2604466D01*
X1732469Y2605876D01*
X1731482Y2607709D01*
X1730496Y2609682D01*
X1729227Y2611938D01*
Y2612079D01*
X1729086Y2612361D01*
X1728804Y2612784D01*
X1728522Y2613207D01*
X1727817Y2614757D01*
X1726830Y2616449D01*
X1725985Y2618282D01*
X1724998Y2620114D01*
X1724011Y2621806D01*
X1723306Y2623215D01*
X1721896Y2625753D01*
X1721756Y2626035D01*
X1721333Y2626740D01*
X1720769Y2627727D01*
X1720064Y2628854D01*
X1718231Y2631533D01*
X1717244Y2632660D01*
X1716258Y2633647D01*
X1716117D01*
X1715694Y2633506D01*
X1715130Y2633365D01*
X1714425Y2632942D01*
X1713720Y2632520D01*
X1713156Y2631815D01*
X1712733Y2630969D01*
X1712592Y2629841D01*
Y2629700D01*
Y2629277D01*
X1712733Y2628149D01*
Y2628008D01*
Y2627727D01*
X1712874Y2627022D01*
Y2626317D01*
Y2626176D01*
Y2626035D01*
Y2625471D01*
Y2624907D01*
X1712733Y2624202D01*
X1712592Y2623356D01*
X1712311Y2621242D01*
X1711888Y2618845D01*
X1711183Y2616026D01*
X1710196Y2613066D01*
X1708927Y2609823D01*
Y2609682D01*
X1708786Y2609400D01*
X1708504Y2608978D01*
X1708222Y2608555D01*
X1707518Y2607145D01*
X1706672Y2605594D01*
X1705685Y2603903D01*
X1704698Y2602634D01*
X1704275Y2602070D01*
X1703852Y2601647D01*
X1703429Y2601365D01*
X1703007Y2601224D01*
X1702725Y2601365D01*
X1702443Y2601647D01*
X1702020Y2602352D01*
X1701456Y2603480D01*
X1701174Y2604185D01*
X1700751Y2605030D01*
X1700469Y2606017D01*
X1700046Y2607286D01*
X1699482Y2608696D01*
X1699059Y2610246D01*
Y2610387D01*
X1698918Y2610810D01*
X1698636Y2611374D01*
X1698354Y2612220D01*
X1698073Y2613348D01*
X1697650Y2614475D01*
X1696804Y2617154D01*
X1695676Y2620114D01*
X1694548Y2623215D01*
X1693280Y2626035D01*
X1692716Y2627304D01*
X1692152Y2628572D01*
Y2628713D01*
X1692011Y2628854D01*
X1691588Y2629559D01*
X1691024Y2630546D01*
X1690319Y2631815D01*
X1689614Y2633083D01*
X1688769Y2634352D01*
X1688064Y2635339D01*
X1687500Y2635903D01*
X1687359D01*
X1687218Y2636044D01*
X1686513Y2636608D01*
X1685385Y2637031D01*
X1684117Y2637172D01*
D02*
G37*
G36*
X1536541Y2635903D02*
X1536259D01*
X1535554Y2635762D01*
X1534709Y2635339D01*
X1533863Y2634634D01*
X1533722Y2634493D01*
X1533299Y2633929D01*
X1533017Y2633083D01*
X1532876Y2631956D01*
Y2631815D01*
Y2631674D01*
X1533017Y2631251D01*
X1533299Y2630687D01*
X1533722Y2629982D01*
X1534427Y2629277D01*
X1535273Y2628431D01*
X1536400Y2627586D01*
X1536541Y2627445D01*
X1536964Y2627163D01*
X1537810Y2626458D01*
X1538938Y2625330D01*
X1540206Y2623920D01*
X1541898Y2621947D01*
X1542885Y2620819D01*
X1543872Y2619550D01*
X1544999Y2618000D01*
X1546127Y2616449D01*
Y2616308D01*
X1546409Y2616026D01*
X1546691Y2615603D01*
X1547255Y2614898D01*
X1547819Y2613911D01*
X1548524Y2612925D01*
X1549370Y2611656D01*
X1550215Y2610246D01*
X1551202Y2608696D01*
X1552330Y2607004D01*
X1553458Y2605171D01*
X1554585Y2603198D01*
X1557264Y2598687D01*
X1559942Y2593753D01*
Y2593612D01*
X1560083Y2593471D01*
X1560506Y2592625D01*
X1561211Y2591638D01*
X1562057Y2590369D01*
X1563044Y2589101D01*
X1564030Y2587973D01*
X1564876Y2587127D01*
X1565299Y2586986D01*
X1565722Y2586845D01*
X1566004D01*
X1566850Y2587268D01*
X1567555Y2587550D01*
X1568119Y2587973D01*
X1568823Y2588678D01*
X1569669Y2589665D01*
Y2589806D01*
Y2590228D01*
X1569810Y2590933D01*
X1570092Y2592061D01*
X1570515Y2593753D01*
X1570797Y2594740D01*
X1571220Y2596008D01*
X1571643Y2597277D01*
X1572066Y2598828D01*
X1572630Y2600519D01*
X1573334Y2602352D01*
X1573475Y2602634D01*
X1573616Y2603198D01*
X1574039Y2604185D01*
X1574462Y2605453D01*
X1575026Y2607004D01*
X1575590Y2608837D01*
X1576154Y2610810D01*
X1576859Y2612925D01*
X1578127Y2617295D01*
X1579255Y2621806D01*
X1579678Y2623779D01*
X1580101Y2625753D01*
X1580242Y2627586D01*
X1580383Y2629136D01*
Y2629418D01*
Y2630123D01*
X1580101Y2630969D01*
X1579819Y2632097D01*
X1579396Y2633224D01*
X1578691Y2634070D01*
X1577704Y2634775D01*
X1576295Y2635057D01*
X1576154D01*
X1575590Y2634916D01*
X1575026Y2634775D01*
X1574180Y2634352D01*
X1573475Y2633788D01*
X1572771Y2632801D01*
X1572348Y2631533D01*
X1572207Y2629700D01*
Y2629559D01*
Y2628995D01*
Y2628149D01*
Y2627163D01*
Y2625048D01*
X1572066Y2623920D01*
Y2622934D01*
Y2622793D01*
X1571925Y2622511D01*
Y2621947D01*
X1571643Y2620960D01*
X1571502Y2619832D01*
X1571079Y2618423D01*
X1570656Y2616590D01*
X1570092Y2614334D01*
X1569951Y2614052D01*
X1569810Y2613207D01*
X1569387Y2612079D01*
X1568964Y2610528D01*
X1568400Y2608696D01*
X1567837Y2606722D01*
X1566286Y2602634D01*
Y2602493D01*
X1566145Y2602211D01*
X1566004Y2601647D01*
X1565722Y2601083D01*
X1565299Y2599673D01*
X1564876Y2598405D01*
X1564735Y2598687D01*
X1564312Y2599392D01*
X1563607Y2600519D01*
X1562621Y2602070D01*
X1562480Y2602211D01*
X1562339Y2602634D01*
X1561916Y2603339D01*
X1561352Y2604185D01*
X1560647Y2605171D01*
X1559942Y2606440D01*
X1558251Y2609259D01*
X1556277Y2612361D01*
X1554303Y2615603D01*
X1552471Y2618704D01*
X1550638Y2621524D01*
Y2621665D01*
X1550497Y2621806D01*
X1549933Y2622652D01*
X1549088Y2623920D01*
X1547960Y2625330D01*
X1546832Y2627022D01*
X1545704Y2628713D01*
X1544436Y2630264D01*
X1543308Y2631533D01*
X1543167Y2631674D01*
X1542885Y2632097D01*
X1542321Y2632520D01*
X1541757Y2633224D01*
X1540347Y2634352D01*
X1539784Y2634916D01*
X1539220Y2635198D01*
X1538938Y2635339D01*
X1538374Y2635621D01*
X1537528Y2635762D01*
X1536541Y2635903D01*
D02*
G37*
G36*
X2109372Y2652678D02*
X2108103D01*
X2106835Y2652537D01*
X2105143Y2652396D01*
X2103451Y2652114D01*
X2101478Y2651550D01*
X2099645Y2650987D01*
X2098095Y2650141D01*
X2097954Y2650000D01*
X2097390Y2649718D01*
X2096826Y2649154D01*
X2095980Y2648590D01*
X2095275Y2647744D01*
X2094570Y2646757D01*
X2094147Y2645771D01*
X2094006Y2644643D01*
Y2644361D01*
X2094147Y2643656D01*
X2094429Y2642387D01*
X2094993Y2640555D01*
Y2640414D01*
X2095134Y2640132D01*
X2095416Y2639709D01*
X2095839Y2639286D01*
X2096403Y2638722D01*
X2097249Y2638299D01*
X2098095Y2638017D01*
X2099363Y2637876D01*
Y2638158D01*
Y2638722D01*
X2099504Y2639709D01*
X2099786Y2640837D01*
X2100068Y2642105D01*
X2100632Y2643233D01*
X2101337Y2644079D01*
X2102324Y2644784D01*
X2102465D01*
X2102888Y2644925D01*
X2103451Y2645207D01*
X2104297Y2645489D01*
X2105425Y2645630D01*
X2106694Y2645912D01*
X2108103Y2646053D01*
X2111205D01*
X2111910Y2645912D01*
X2112896D01*
X2115011Y2645630D01*
X2117548Y2645207D01*
X2120368Y2644502D01*
X2123187Y2643656D01*
X2126007Y2642387D01*
X2126148D01*
X2126289Y2642246D01*
X2127134Y2641824D01*
X2128262Y2640978D01*
X2129672Y2639991D01*
X2131082Y2638722D01*
X2132209Y2637312D01*
X2133055Y2635621D01*
X2133196Y2634775D01*
X2133337Y2633788D01*
Y2633647D01*
Y2633224D01*
X2133196Y2632520D01*
X2132914Y2631674D01*
X2132491Y2630687D01*
X2131927Y2629700D01*
X2131223Y2628572D01*
X2130095Y2627586D01*
X2129954Y2627445D01*
X2129390Y2627163D01*
X2128544Y2626599D01*
X2127134Y2625894D01*
X2125161Y2624907D01*
X2124033Y2624484D01*
X2122764Y2623920D01*
X2121355Y2623356D01*
X2119663Y2622793D01*
X2117971Y2622229D01*
X2115998Y2621665D01*
X2115857D01*
X2115575Y2621524D01*
X2115011Y2621383D01*
X2114306Y2621101D01*
X2113460Y2620819D01*
X2112474Y2620537D01*
X2110077Y2619691D01*
X2107681Y2618704D01*
X2105143Y2617718D01*
X2102888Y2616590D01*
X2101760Y2615885D01*
X2100914Y2615321D01*
X2100773Y2615180D01*
X2100209Y2614757D01*
X2099504Y2614052D01*
X2098658Y2613066D01*
X2097813Y2611938D01*
X2097108Y2610669D01*
X2096544Y2609118D01*
X2096403Y2607427D01*
Y2607286D01*
X2096544Y2606581D01*
X2096685Y2605735D01*
X2097249Y2604466D01*
X2097954Y2602916D01*
X2099081Y2601224D01*
X2100632Y2599251D01*
X2101619Y2598264D01*
X2102747Y2597277D01*
X2103029Y2596995D01*
X2103874Y2596431D01*
X2105143Y2595444D01*
X2106976Y2594317D01*
X2109090Y2592907D01*
X2111769Y2591638D01*
X2114588Y2590369D01*
X2117830Y2589242D01*
X2117971D01*
X2118253Y2589101D01*
X2118676Y2588960D01*
X2119240Y2588819D01*
X2120932Y2588396D01*
X2122905Y2587832D01*
X2125302Y2587268D01*
X2127839Y2586845D01*
X2130377Y2586563D01*
X2132773Y2586422D01*
X2133619D01*
X2134606Y2586563D01*
X2135734D01*
X2138271Y2586986D01*
X2139540Y2587268D01*
X2140668Y2587691D01*
X2140809D01*
X2141090Y2587973D01*
X2141936Y2588537D01*
X2142782Y2589383D01*
X2143064Y2589947D01*
X2143205Y2590510D01*
Y2590792D01*
X2143064Y2591356D01*
X2142923Y2592343D01*
X2142500Y2593612D01*
Y2593753D01*
X2142359Y2593894D01*
X2141936Y2594599D01*
X2141513Y2595303D01*
X2141231Y2595444D01*
X2140949Y2595585D01*
X2140386D01*
X2139822Y2595444D01*
X2139117Y2595162D01*
X2138976D01*
X2138271Y2594881D01*
X2137425Y2594740D01*
X2136297Y2594458D01*
X2134888Y2594176D01*
X2133337Y2593894D01*
X2131786Y2593753D01*
X2130095Y2593612D01*
X2129249D01*
X2128685Y2593753D01*
X2127980D01*
X2127134Y2593894D01*
X2124879Y2594176D01*
X2122341Y2594740D01*
X2119522Y2595585D01*
X2116421Y2596713D01*
X2113037Y2598264D01*
X2112896D01*
X2112615Y2598546D01*
X2112192Y2598687D01*
X2111628Y2599110D01*
X2110077Y2599955D01*
X2108385Y2601224D01*
X2106835Y2602493D01*
X2105284Y2604044D01*
X2104720Y2604748D01*
X2104297Y2605594D01*
X2104015Y2606440D01*
X2103874Y2607145D01*
Y2607286D01*
Y2607427D01*
X2104156Y2608132D01*
X2104579Y2608696D01*
X2105002Y2609259D01*
X2105707Y2609823D01*
X2106694Y2610387D01*
X2106835Y2610528D01*
X2107258Y2610669D01*
X2108103Y2611092D01*
X2109513Y2611656D01*
X2110359Y2612079D01*
X2111346Y2612361D01*
X2112474Y2612784D01*
X2113742Y2613348D01*
X2115152Y2613770D01*
X2116844Y2614334D01*
X2118676Y2614898D01*
X2120650Y2615603D01*
X2120791D01*
X2121214Y2615744D01*
X2121919Y2616026D01*
X2122905Y2616308D01*
X2123892Y2616731D01*
X2125161Y2617154D01*
X2127980Y2618282D01*
X2130941Y2619550D01*
X2133619Y2620960D01*
X2134888Y2621806D01*
X2136016Y2622511D01*
X2137002Y2623356D01*
X2137707Y2624061D01*
X2137848Y2624202D01*
X2138130Y2624766D01*
X2138694Y2625612D01*
X2139258Y2626740D01*
X2139822Y2628149D01*
X2140386Y2629559D01*
X2140668Y2631251D01*
X2140809Y2632942D01*
Y2633083D01*
Y2633365D01*
X2140668Y2633788D01*
Y2634352D01*
X2140245Y2636044D01*
X2139540Y2638017D01*
X2138976Y2639145D01*
X2138271Y2640273D01*
X2137566Y2641542D01*
X2136579Y2642669D01*
X2135311Y2643938D01*
X2134042Y2645066D01*
X2132491Y2646194D01*
X2130659Y2647180D01*
X2130518D01*
X2130236Y2647462D01*
X2129672Y2647744D01*
X2128826Y2648026D01*
X2127980Y2648449D01*
X2126852Y2648872D01*
X2125584Y2649436D01*
X2124174Y2650000D01*
X2120932Y2650987D01*
X2117407Y2651832D01*
X2113460Y2652396D01*
X2109372Y2652678D01*
D02*
G37*
%LPD*%
G36*
X588710Y2629136D02*
X589979Y2628713D01*
X591812Y2628008D01*
X592798Y2627586D01*
X593926Y2626881D01*
X595054Y2626176D01*
X596323Y2625189D01*
X597732Y2624061D01*
X599142Y2622793D01*
X600693Y2621242D01*
X602243Y2619550D01*
X602384Y2619409D01*
X602666Y2619127D01*
X603089Y2618563D01*
X603653Y2617859D01*
X604358Y2617013D01*
X605063Y2616026D01*
X606050Y2614757D01*
X606895Y2613489D01*
X608869Y2610528D01*
X610702Y2607286D01*
X612393Y2603762D01*
X613803Y2600096D01*
X613662Y2599955D01*
X613380Y2599533D01*
X612957Y2598828D01*
X612393Y2598123D01*
X611547Y2597277D01*
X610702Y2596713D01*
X609574Y2596149D01*
X608446Y2596008D01*
X607600D01*
X606613Y2596290D01*
X605345Y2596572D01*
X603794Y2596995D01*
X602102Y2597700D01*
X600270Y2598687D01*
X598296Y2599955D01*
X598014Y2600096D01*
X597309Y2600660D01*
X596323Y2601647D01*
X595054Y2602916D01*
X593503Y2604607D01*
X591953Y2606440D01*
X590402Y2608837D01*
X588851Y2611374D01*
Y2611515D01*
X588710Y2611656D01*
X588428Y2612079D01*
X588146Y2612643D01*
X587583Y2613911D01*
X586737Y2615603D01*
X586032Y2617577D01*
X585327Y2619691D01*
X584904Y2621665D01*
X584763Y2623638D01*
Y2623779D01*
Y2624061D01*
Y2624484D01*
X584904Y2625048D01*
X585045Y2626317D01*
X585609Y2627586D01*
Y2627727D01*
X585750Y2627867D01*
X586173Y2628431D01*
X586878Y2628995D01*
X587301Y2629277D01*
X588005D01*
X588710Y2629136D01*
D02*
G37*
G36*
X1075912Y2629982D02*
X1076899Y2629700D01*
X1078168Y2629277D01*
X1079577Y2628431D01*
X1081128Y2627304D01*
X1082679Y2625753D01*
X1084229Y2623638D01*
X1084370Y2623356D01*
X1084793Y2622652D01*
X1085498Y2621524D01*
X1086203Y2620255D01*
X1087049Y2618845D01*
X1087613Y2617436D01*
X1088177Y2616026D01*
X1088318Y2614898D01*
Y2614616D01*
X1088177Y2613911D01*
X1087895Y2613207D01*
X1087472Y2612502D01*
X1087331Y2612361D01*
X1086626Y2612220D01*
X1086203Y2612079D01*
X1085498D01*
X1084652Y2611938D01*
X1083243D01*
X1082820Y2612079D01*
X1082256Y2612220D01*
X1081410Y2612502D01*
X1080423Y2612925D01*
X1079155Y2613489D01*
X1077886Y2614193D01*
X1077745Y2614334D01*
X1077322Y2614616D01*
X1076617Y2615039D01*
X1075912Y2615603D01*
X1075207Y2616167D01*
X1074503Y2616872D01*
X1074080Y2617436D01*
X1073939Y2618141D01*
Y2618282D01*
Y2618845D01*
Y2619268D01*
X1074080Y2619832D01*
Y2620537D01*
X1074221Y2621524D01*
Y2621665D01*
Y2621806D01*
Y2622229D01*
Y2622793D01*
X1073939Y2624061D01*
X1073375Y2625612D01*
Y2625753D01*
X1073234Y2625894D01*
X1072811Y2626599D01*
X1072529Y2627163D01*
X1072388Y2627445D01*
Y2627586D01*
Y2627727D01*
X1072670Y2628008D01*
X1073093Y2628431D01*
X1073516Y2628854D01*
X1074221Y2629418D01*
X1075066Y2630123D01*
X1075348D01*
X1075912Y2629982D01*
D02*
G37*
G36*
X1954326Y2629559D02*
X1955453Y2629136D01*
X1957145Y2628431D01*
X1957991Y2627867D01*
X1958978Y2627163D01*
X1960105Y2626317D01*
X1961233Y2625189D01*
X1962502Y2624061D01*
X1963771Y2622652D01*
X1965039Y2620960D01*
X1966449Y2619127D01*
X1966590Y2618986D01*
X1966731Y2618704D01*
X1967154Y2618141D01*
X1967577Y2617436D01*
X1968141Y2616449D01*
X1968704Y2615462D01*
X1970114Y2612925D01*
X1971524Y2610246D01*
X1972652Y2607286D01*
X1973497Y2604325D01*
X1973638Y2602916D01*
X1973779Y2601506D01*
Y2601365D01*
Y2600801D01*
X1973638Y2599955D01*
X1973356Y2599110D01*
X1973075Y2598264D01*
X1972511Y2597418D01*
X1971665Y2596854D01*
X1970678Y2596713D01*
X1970396D01*
X1969832Y2596854D01*
X1968704Y2597277D01*
X1967295Y2597841D01*
X1965321Y2598969D01*
X1964334Y2599814D01*
X1963066Y2600660D01*
X1961797Y2601788D01*
X1960528Y2603057D01*
X1959119Y2604466D01*
X1957568Y2606158D01*
X1957427Y2606299D01*
X1957145Y2606581D01*
X1956863Y2607145D01*
X1956299Y2607709D01*
X1955594Y2608555D01*
X1954889Y2609541D01*
X1953339Y2611938D01*
X1951929Y2614616D01*
X1950519Y2617436D01*
X1949955Y2618986D01*
X1949674Y2620537D01*
X1949392Y2621947D01*
X1949251Y2623497D01*
Y2623638D01*
Y2623779D01*
Y2624484D01*
X1949392Y2625471D01*
X1949814Y2626599D01*
X1950237Y2627727D01*
X1950942Y2628713D01*
X1951929Y2629418D01*
X1952634Y2629700D01*
X1953621D01*
X1954326Y2629559D01*
D02*
G37*
G36*
X675608D02*
X676736Y2629136D01*
X678428Y2628431D01*
X679273Y2627867D01*
X680260Y2627163D01*
X681388Y2626317D01*
X682516Y2625189D01*
X683785Y2624061D01*
X685053Y2622652D01*
X686322Y2620960D01*
X687732Y2619127D01*
X687873Y2618986D01*
X688014Y2618704D01*
X688437Y2618141D01*
X688859Y2617436D01*
X689423Y2616449D01*
X689987Y2615462D01*
X691397Y2612925D01*
X692807Y2610246D01*
X693934Y2607286D01*
X694780Y2604325D01*
X694921Y2602916D01*
X695062Y2601506D01*
Y2601365D01*
Y2600801D01*
X694921Y2599955D01*
X694639Y2599110D01*
X694357Y2598264D01*
X693793Y2597418D01*
X692948Y2596854D01*
X691961Y2596713D01*
X691679D01*
X691115Y2596854D01*
X689987Y2597277D01*
X688577Y2597841D01*
X686604Y2598969D01*
X685617Y2599814D01*
X684348Y2600660D01*
X683080Y2601788D01*
X681811Y2603057D01*
X680401Y2604466D01*
X678851Y2606158D01*
X678710Y2606299D01*
X678428Y2606581D01*
X678146Y2607145D01*
X677582Y2607709D01*
X676877Y2608555D01*
X676172Y2609541D01*
X674621Y2611938D01*
X673212Y2614616D01*
X671802Y2617436D01*
X671238Y2618986D01*
X670956Y2620537D01*
X670674Y2621947D01*
X670533Y2623497D01*
Y2623638D01*
Y2623779D01*
Y2624484D01*
X670674Y2625471D01*
X671097Y2626599D01*
X671520Y2627727D01*
X672225Y2628713D01*
X673212Y2629418D01*
X673917Y2629700D01*
X674903D01*
X675608Y2629559D01*
D02*
G37*
G36*
X1395803Y2639568D02*
X1396931D01*
X1398340Y2639286D01*
X1399609Y2639004D01*
X1401019Y2638581D01*
X1402288Y2638017D01*
X1402428Y2637876D01*
X1402851Y2637735D01*
X1403556Y2637172D01*
X1404543Y2636467D01*
X1405671Y2635621D01*
X1407221Y2634352D01*
X1408772Y2632942D01*
X1410746Y2631110D01*
X1411028Y2630828D01*
X1411592Y2630264D01*
X1412578Y2629136D01*
X1413847Y2627867D01*
X1415257Y2626176D01*
X1416666Y2624202D01*
X1418076Y2622088D01*
X1419486Y2619832D01*
X1419627Y2619550D01*
X1420050Y2618704D01*
X1420473Y2617577D01*
X1421037Y2615885D01*
X1421741Y2614052D01*
X1422164Y2611938D01*
X1422587Y2609682D01*
X1422728Y2607286D01*
Y2607145D01*
Y2607004D01*
Y2606158D01*
X1422587Y2604889D01*
X1422305Y2603339D01*
X1421882Y2601647D01*
X1421177Y2600096D01*
X1420332Y2598828D01*
X1419204Y2597841D01*
X1419063Y2597700D01*
X1418640Y2597559D01*
X1417935Y2597277D01*
X1416948Y2596995D01*
X1415821Y2596572D01*
X1414552Y2596290D01*
X1413142Y2596149D01*
X1411592Y2596008D01*
X1410605D01*
X1409477Y2596290D01*
X1407926Y2596572D01*
X1405953Y2596995D01*
X1403697Y2597700D01*
X1401160Y2598687D01*
X1398340Y2600096D01*
X1398199D01*
X1397917Y2600237D01*
X1397495Y2600519D01*
X1396931Y2600801D01*
X1395380Y2601788D01*
X1393406Y2603057D01*
X1391151Y2604607D01*
X1388754Y2606440D01*
X1386076Y2608555D01*
X1383539Y2610951D01*
X1383398Y2611092D01*
X1383257Y2611233D01*
X1382411Y2612079D01*
X1381424Y2613348D01*
X1380155Y2614898D01*
X1378886Y2616590D01*
X1377759Y2618423D01*
X1377054Y2620114D01*
X1376913Y2620960D01*
X1376772Y2621806D01*
Y2621947D01*
Y2622229D01*
Y2622793D01*
X1376913Y2623356D01*
Y2624202D01*
X1377054Y2625189D01*
X1377618Y2627304D01*
Y2627445D01*
X1377759Y2627867D01*
X1377900Y2628431D01*
X1378041Y2629136D01*
X1378605Y2630546D01*
X1378886Y2631110D01*
X1379309Y2631674D01*
X1379450Y2631956D01*
X1380014Y2632660D01*
X1381142Y2633929D01*
X1381847Y2634634D01*
X1382693Y2635621D01*
X1382834Y2635762D01*
X1383116Y2636044D01*
X1383539Y2636467D01*
X1384102Y2637031D01*
X1385512Y2638158D01*
X1386217Y2638722D01*
X1386781Y2639004D01*
X1386922Y2638863D01*
X1387486Y2638440D01*
X1388472Y2637876D01*
X1389882Y2637735D01*
X1390164Y2637876D01*
X1390587Y2638158D01*
X1391433Y2638722D01*
X1391715Y2638863D01*
X1392279Y2639286D01*
X1393124Y2639568D01*
X1393970Y2639709D01*
X1394816D01*
X1395803Y2639568D01*
D02*
G37*
G36*
X1878917Y2627586D02*
X1880326Y2627163D01*
X1882018Y2626599D01*
X1884133Y2625471D01*
X1885260Y2624625D01*
X1886529Y2623779D01*
X1887657Y2622652D01*
X1888926Y2621383D01*
X1890194Y2619973D01*
X1891463Y2618282D01*
X1891604Y2618141D01*
X1891745Y2617859D01*
X1892027Y2617436D01*
X1892450Y2616731D01*
X1893014Y2615885D01*
X1893578Y2614898D01*
X1894846Y2612643D01*
X1896115Y2609964D01*
X1897102Y2607145D01*
X1897948Y2604044D01*
X1898089Y2602634D01*
X1898230Y2601083D01*
Y2600801D01*
Y2600237D01*
X1898089Y2599392D01*
X1897807Y2598546D01*
X1897384Y2597559D01*
X1896679Y2596713D01*
X1895833Y2596149D01*
X1894705Y2595867D01*
X1894141D01*
X1893437Y2596008D01*
X1892450Y2596290D01*
X1891322Y2596713D01*
X1889912Y2597277D01*
X1888362Y2598123D01*
X1886670Y2599251D01*
X1886388Y2599392D01*
X1885824Y2599955D01*
X1884837Y2600801D01*
X1883569Y2601929D01*
X1882159Y2603480D01*
X1880467Y2605453D01*
X1878635Y2607709D01*
X1876802Y2610387D01*
Y2610528D01*
X1876520Y2610669D01*
X1876379Y2611092D01*
X1875956Y2611656D01*
X1875252Y2613066D01*
X1874265Y2614616D01*
X1873278Y2616590D01*
X1872573Y2618423D01*
X1872009Y2620255D01*
X1871727Y2621806D01*
Y2621947D01*
Y2622088D01*
X1872009Y2622934D01*
X1872432Y2624202D01*
X1872996Y2624907D01*
X1873560Y2625612D01*
X1873701Y2625753D01*
X1873842Y2625894D01*
X1874688Y2626740D01*
X1876097Y2627445D01*
X1876943Y2627586D01*
X1877789Y2627727D01*
X1878494D01*
X1878917Y2627586D01*
D02*
G37*
G36*
X1796530Y2628854D02*
X1797799Y2628572D01*
X1799490Y2628008D01*
X1801323Y2626881D01*
X1802310Y2626317D01*
X1803296Y2625471D01*
X1804283Y2624484D01*
X1805270Y2623356D01*
X1806257Y2622088D01*
X1807244Y2620537D01*
Y2620396D01*
X1807384Y2620114D01*
X1807666Y2619691D01*
X1807948Y2619127D01*
X1808371Y2618282D01*
X1808794Y2617436D01*
X1809640Y2615321D01*
X1810627Y2612925D01*
X1811332Y2610246D01*
X1811896Y2607286D01*
X1812177Y2604466D01*
Y2604325D01*
Y2603762D01*
X1812037Y2602916D01*
X1811896Y2601929D01*
X1811473Y2599673D01*
X1811050Y2598546D01*
X1810486Y2597418D01*
X1810345Y2597277D01*
X1810204Y2596995D01*
X1809781Y2596572D01*
X1809217Y2596149D01*
X1808512Y2595585D01*
X1807666Y2595162D01*
X1806680Y2594881D01*
X1805552Y2594740D01*
X1805270D01*
X1804424Y2594881D01*
X1803155Y2595162D01*
X1801605Y2595585D01*
X1799631Y2596431D01*
X1797517Y2597700D01*
X1796248Y2598405D01*
X1795120Y2599392D01*
X1793992Y2600378D01*
X1792724Y2601647D01*
X1792583Y2601788D01*
X1792442Y2601929D01*
X1792160Y2602352D01*
X1791737Y2602916D01*
X1790609Y2604325D01*
X1789481Y2606158D01*
X1788354Y2608414D01*
X1787226Y2611092D01*
X1786521Y2614052D01*
X1786239Y2615603D01*
Y2617154D01*
Y2617436D01*
Y2618000D01*
X1786380Y2618986D01*
X1786521Y2620114D01*
X1786803Y2621524D01*
X1787367Y2622934D01*
X1787931Y2624343D01*
X1788776Y2625612D01*
X1788917Y2625753D01*
X1789199Y2626176D01*
X1789763Y2626740D01*
X1790609Y2627304D01*
X1791455Y2627867D01*
X1792583Y2628431D01*
X1793992Y2628854D01*
X1795402Y2628995D01*
X1795684D01*
X1796530Y2628854D01*
D02*
G37*
D46*
X3565000Y1485000D02*
G03*
X3565000Y1485000I-12500J0D01*
G01*
X1367500Y45000D02*
G03*
X1367500Y45000I-12500J0D01*
G01*
X2380426Y430000D02*
G03*
X2380426Y430000I-12500J0D01*
G01*
D48*
X1280000Y860000D02*
X2180000D01*
X1280000D02*
Y1560000D01*
X2180000D01*
Y860000D02*
Y1560000D01*
X5023089Y2994867D02*
Y3291833D01*
Y3146067D02*
X5223089D01*
X3822853Y3291833D02*
X5023089D01*
X3623089Y3140000D02*
X3823089D01*
X3822853Y2991833D02*
Y3143033D01*
Y3291833D01*
Y2991833D02*
Y3143033D01*
Y2991833D02*
X5023089D01*
X5010000Y34867D02*
Y331833D01*
Y186066D02*
X5210000D01*
X3809764Y331833D02*
X5010000D01*
X3610000Y180000D02*
X3810000D01*
X3809764Y31833D02*
Y183033D01*
Y331833D01*
Y31833D02*
Y183033D01*
Y31833D02*
X5010000D01*
X4303134Y2146175D02*
X4201567Y1993825D01*
Y2146175D02*
X4303134Y1993825D01*
X4150783D02*
Y2146175D01*
X4074608D01*
X4049216Y2120783D01*
Y2070000D01*
X4074608Y2044608D01*
X4150783D01*
X3896865Y1993825D02*
X3998433D01*
X3896865Y2095392D01*
Y2120783D01*
X3922257Y2146175D01*
X3973041D01*
X3998433Y2120783D01*
X2167040Y1801071D02*
Y1699504D01*
X2116256Y1648720D01*
X2065473Y1699504D01*
Y1801071D01*
X2014689D02*
Y1648720D01*
X1938514D01*
X1913122Y1674112D01*
Y1775679D01*
X1938514Y1801071D01*
X2014689D01*
X1862338Y1648720D02*
X1811555D01*
X1836947D01*
Y1801071D01*
X1862338Y1775679D01*
X4811567Y2910784D02*
X4836959Y2936175D01*
X4887742D01*
X4913134Y2910784D01*
Y2885392D01*
X4887742Y2860000D01*
X4836959D01*
X4811567Y2834608D01*
Y2809217D01*
X4836959Y2783825D01*
X4887742D01*
X4913134Y2809217D01*
X4760783Y2783825D02*
Y2885392D01*
X4710000Y2936175D01*
X4659216Y2885392D01*
Y2783825D01*
Y2860000D01*
X4760783D01*
X4506866Y2783825D02*
X4608433D01*
X4506866Y2885392D01*
Y2910784D01*
X4532257Y2936175D01*
X4583041D01*
X4608433Y2910784D01*
X5476175Y2170784D02*
X5501567Y2196175D01*
X5552351D01*
X5577742Y2170784D01*
Y2145392D01*
X5552351Y2120000D01*
X5501567D01*
X5476175Y2094608D01*
Y2069217D01*
X5501567Y2043825D01*
X5552351D01*
X5577742Y2069217D01*
X5425392Y2043825D02*
Y2145392D01*
X5374608Y2196175D01*
X5323825Y2145392D01*
Y2043825D01*
Y2120000D01*
X5425392D01*
X5273041Y2043825D02*
X5222258D01*
X5247649D01*
Y2196175D01*
X5273041Y2170784D01*
X3681567Y500784D02*
X3706959Y526175D01*
X3757742D01*
X3783134Y500784D01*
Y475392D01*
X3757742Y450000D01*
X3706959D01*
X3681567Y424608D01*
Y399217D01*
X3706959Y373825D01*
X3757742D01*
X3783134Y399217D01*
X3630783Y373825D02*
Y475392D01*
X3580000Y526175D01*
X3529216Y475392D01*
Y373825D01*
Y450000D01*
X3630783D01*
X3478433Y500784D02*
X3453041Y526175D01*
X3402257D01*
X3376865Y500784D01*
Y475392D01*
X3402257Y450000D01*
X3427649D01*
X3402257D01*
X3376865Y424608D01*
Y399217D01*
X3402257Y373825D01*
X3453041D01*
X3478433Y399217D01*
X2853134Y526175D02*
Y424608D01*
X2802351Y373825D01*
X2751567Y424608D01*
Y526175D01*
X2700784D02*
X2599216D01*
X2650000D01*
Y373825D01*
X2446866D02*
X2548433D01*
X2446866Y475392D01*
Y500784D01*
X2472257Y526175D01*
X2523041D01*
X2548433Y500784D01*
X1257742Y416175D02*
Y314608D01*
X1206959Y263825D01*
X1156175Y314608D01*
Y416175D01*
X1105392D02*
X1003825D01*
X1054608D01*
Y263825D01*
X953041D02*
X902258D01*
X927649D01*
Y416175D01*
X953041Y390784D01*
X2065438Y448825D02*
Y601175D01*
X1989263D01*
X1963871Y575783D01*
Y525000D01*
X1989263Y499608D01*
X2065438D01*
X2014655D02*
X1963871Y448825D01*
X1913088D02*
X1862304D01*
X1887696D01*
Y601175D01*
X1913088Y575783D01*
X1786129D02*
X1760737Y601175D01*
X1709953D01*
X1684562Y575783D01*
Y550392D01*
X1709953Y525000D01*
X1735345D01*
X1709953D01*
X1684562Y499608D01*
Y474216D01*
X1709953Y448825D01*
X1760737D01*
X1786129Y474216D01*
X890438Y73825D02*
Y226175D01*
X814263D01*
X788871Y200783D01*
Y150000D01*
X814263Y124608D01*
X890438D01*
X839655D02*
X788871Y73825D01*
X738088D02*
X687304D01*
X712696D01*
Y226175D01*
X738088Y200783D01*
X509562Y73825D02*
X611129D01*
X509562Y175392D01*
Y200783D01*
X534953Y226175D01*
X585737D01*
X611129Y200783D01*
X3063134Y3106175D02*
Y3004608D01*
X3012351Y2953825D01*
X2961567Y3004608D01*
Y3106175D01*
X2910784D02*
Y2953825D01*
X2834608D01*
X2809216Y2979217D01*
Y3080784D01*
X2834608Y3106175D01*
X2910784D01*
X2656866Y2953825D02*
X2758433D01*
X2656866Y3055392D01*
Y3080784D01*
X2682258Y3106175D01*
X2733041D01*
X2758433Y3080784D01*
X827742Y1706175D02*
X726175Y1553825D01*
Y1706175D02*
X827742Y1553825D01*
X573824Y1680784D02*
X599216Y1706175D01*
X650000D01*
X675392Y1680784D01*
Y1655392D01*
X650000Y1630000D01*
X599216D01*
X573824Y1604608D01*
Y1579217D01*
X599216Y1553825D01*
X650000D01*
X675392Y1579217D01*
X523041Y1553825D02*
X472257D01*
X497649D01*
Y1706175D01*
X523041Y1680784D01*
X1470438Y463825D02*
Y616175D01*
X1394263D01*
X1368871Y590783D01*
Y540000D01*
X1394263Y514608D01*
X1470438D01*
X1419655D02*
X1368871Y463825D01*
X1318088D02*
X1267304D01*
X1292696D01*
Y616175D01*
X1318088Y590783D01*
X1089561Y616175D02*
X1191129D01*
Y540000D01*
X1140345Y565392D01*
X1114953D01*
X1089561Y540000D01*
Y489216D01*
X1114953Y463825D01*
X1165737D01*
X1191129Y489216D01*
X3321567Y2006175D02*
Y1853825D01*
X3220000D01*
X3169216D02*
X3118433D01*
X3143824D01*
Y2006175D01*
X3169216Y1980783D01*
X1521371Y793284D02*
X1546763Y818676D01*
X1597546D01*
X1622938Y793284D01*
Y691717D01*
X1597546Y666325D01*
X1546763D01*
X1521371Y691717D01*
X1470587Y666325D02*
X1419804D01*
X1445195D01*
Y818676D01*
X1470587Y793284D01*
X1242061Y666325D02*
X1343629D01*
X1242061Y767892D01*
Y793284D01*
X1267453Y818676D01*
X1318237D01*
X1343629Y793284D01*
X3949216Y2555392D02*
X3923825Y2580784D01*
Y2631567D01*
X3949216Y2656959D01*
X4050783D01*
X4076175Y2631567D01*
Y2580784D01*
X4050783Y2555392D01*
X3949216Y2504608D02*
X3923825Y2479216D01*
Y2428433D01*
X3949216Y2403041D01*
X3974608D01*
X4000000Y2428433D01*
X4025392Y2403041D01*
X4050783D01*
X4076175Y2428433D01*
Y2479216D01*
X4050783Y2504608D01*
X4025392D01*
X4000000Y2479216D01*
X3974608Y2504608D01*
X3949216D01*
X4000000Y2479216D02*
Y2428433D01*
X4755392Y970783D02*
X4780783Y996175D01*
X4831567D01*
X4856959Y970783D01*
Y869216D01*
X4831567Y843825D01*
X4780783D01*
X4755392Y869216D01*
X4628433Y843825D02*
Y996175D01*
X4704608Y920000D01*
X4603041D01*
X3785392Y1630783D02*
X3810784Y1656175D01*
X3861567D01*
X3886959Y1630783D01*
Y1529216D01*
X3861567Y1503825D01*
X3810784D01*
X3785392Y1529216D01*
X3633041Y1503825D02*
X3734608D01*
X3633041Y1605392D01*
Y1630783D01*
X3658433Y1656175D01*
X3709216D01*
X3734608Y1630783D01*
D49*
X3892500Y700000D02*
X3955000D01*
X3892500Y1400000D02*
X3955000D01*
X3505000Y700000D02*
X3567500D01*
X3505000Y1400000D02*
X3567500D01*
X3955000Y700000D02*
Y1400000D01*
X3505000Y700000D02*
Y1400000D01*
X3725428Y2499999D02*
Y2539999D01*
X3850426Y2499999D02*
Y2539999D01*
X4709998Y1222500D02*
X4749998D01*
X4709998Y1097501D02*
X4749998D01*
X3140002Y3065432D02*
X3420002D01*
X3140002Y2895430D02*
X3420002D01*
Y3045432D02*
Y3065432D01*
X3140002Y3045432D02*
Y3065432D01*
X3420002Y2895430D02*
Y2915430D01*
X3140002Y2895430D02*
Y2915430D01*
X2825001Y2075003D02*
Y2305000D01*
X3575003Y2075003D02*
Y2305000D01*
X2825001Y2595002D02*
Y2825004D01*
X3575003Y2595002D02*
Y2825004D01*
X2825001Y2075003D02*
X3575003D01*
X2825001Y2825004D02*
X3575003D01*
X1445000Y75000D02*
X1545000D01*
Y155000D01*
X1445000Y375000D02*
X1545000D01*
Y295000D02*
Y375000D01*
X2177926Y400000D02*
X2277926D01*
X2177926Y320000D02*
Y400000D01*
Y100000D02*
X2277926D01*
X2177926D02*
Y180000D01*
D50*
X3492500Y3045431D02*
G03*
X3492500Y3045431I-5000J0D01*
G01*
%TF.MD5,3864a66f249a25bdf37a26de7c28d60a*%
M02*
