%TF.GenerationSoftware,Altium Limited,Altium Designer,23.4.1 (23)*%
G04 Layer_Physical_Order=1*
G04 Layer_Color=255*
%FSLAX45Y45*%
%MOMM*%
%TF.SameCoordinates,95043EA5-DFE4-4E97-A360-3BE786514F03*%
%TF.FilePolarity,Positive*%
%TF.FileFunction,Copper,L1,Top,Signal*%
%TF.Part,Single*%
G01*
G75*
%TA.AperFunction,SMDPad,CuDef*%
%ADD10R,2.00000X0.90000*%
%ADD11R,0.90000X2.00000*%
%ADD12R,0.95000X0.95000*%
%ADD13R,0.95000X1.00000*%
%TA.AperFunction,ConnectorPad*%
%ADD14R,1.00000X0.95000*%
%TA.AperFunction,SMDPad,CuDef*%
%ADD15R,0.95000X0.95000*%
%TA.AperFunction,ConnectorPad*%
%ADD16R,1.45000X0.85000*%
%TA.AperFunction,SMDPad,CuDef*%
%ADD17O,1.00000X0.60000*%
%ADD18R,1.00000X0.95000*%
%ADD19R,1.40000X0.45000*%
%ADD20R,3.10000X5.18000*%
%ADD21R,1.15000X1.35000*%
%TA.AperFunction,Conductor*%
%ADD22C,1.00000*%
%ADD23C,0.25400*%
%ADD24C,0.40000*%
%ADD25C,0.50000*%
%TA.AperFunction,ComponentPad*%
%ADD26C,2.00000*%
%ADD27R,2.00000X2.00000*%
%TA.AperFunction,ViaPad*%
%ADD28C,3.00000*%
%TA.AperFunction,ComponentPad*%
%ADD29O,1.50000X1.52400*%
%ADD30C,1.50000*%
%ADD31O,1.50000X2.00000*%
G04:AMPARAMS|DCode=32|XSize=5mm|YSize=3mm|CornerRadius=0.75mm|HoleSize=0mm|Usage=FLASHONLY|Rotation=180.000|XOffset=0mm|YOffset=0mm|HoleType=Round|Shape=RoundedRectangle|*
%AMROUNDEDRECTD32*
21,1,5.00000,1.50000,0,0,180.0*
21,1,3.50000,3.00000,0,0,180.0*
1,1,1.50000,-1.75000,0.75000*
1,1,1.50000,1.75000,0.75000*
1,1,1.50000,1.75000,-0.75000*
1,1,1.50000,-1.75000,-0.75000*
%
%ADD32ROUNDEDRECTD32*%
G04:AMPARAMS|DCode=33|XSize=3mm|YSize=5mm|CornerRadius=0.75mm|HoleSize=0mm|Usage=FLASHONLY|Rotation=180.000|XOffset=0mm|YOffset=0mm|HoleType=Round|Shape=RoundedRectangle|*
%AMROUNDEDRECTD33*
21,1,3.00000,3.50000,0,0,180.0*
21,1,1.50000,5.00000,0,0,180.0*
1,1,1.50000,-0.75000,1.75000*
1,1,1.50000,0.75000,1.75000*
1,1,1.50000,0.75000,-1.75000*
1,1,1.50000,-0.75000,-1.75000*
%
%ADD33ROUNDEDRECTD33*%
G04:AMPARAMS|DCode=34|XSize=5mm|YSize=5mm|CornerRadius=1.25mm|HoleSize=0mm|Usage=FLASHONLY|Rotation=180.000|XOffset=0mm|YOffset=0mm|HoleType=Round|Shape=RoundedRectangle|*
%AMROUNDEDRECTD34*
21,1,5.00000,2.50000,0,0,180.0*
21,1,2.50000,5.00000,0,0,180.0*
1,1,2.50000,-1.25000,1.25000*
1,1,2.50000,1.25000,1.25000*
1,1,2.50000,1.25000,-1.25000*
1,1,2.50000,-1.25000,-1.25000*
%
%ADD34ROUNDEDRECTD34*%
%ADD35R,2.00000X2.00000*%
%TA.AperFunction,ViaPad*%
%ADD36C,1.27000*%
%ADD37C,0.50000*%
G36*
X4761186Y3172350D02*
X4769193Y3144359D01*
X4762190Y3132230D01*
X4756500Y3110993D01*
Y3089007D01*
X4762190Y3067770D01*
X4773183Y3048730D01*
X4788730Y3033183D01*
X4792808Y3030828D01*
X4815581Y2986570D01*
X4822498Y2955023D01*
X4822498Y2918123D01*
Y2838126D01*
X4844117D01*
Y2701939D01*
X4843682Y2701822D01*
X4816318Y2686024D01*
X4812433Y2682138D01*
X4764083Y2671983D01*
X4724316Y2683027D01*
X4716997Y2690345D01*
X4688403Y2706854D01*
X4656509Y2715400D01*
X4652700D01*
Y2590000D01*
Y2464600D01*
X4656509D01*
X4688403Y2473146D01*
X4716997Y2489655D01*
X4724316Y2496973D01*
X4764083Y2508017D01*
X4812433Y2497861D01*
X4816318Y2493976D01*
X4843682Y2478178D01*
X4874202Y2470000D01*
X4905798D01*
X4936319Y2478178D01*
X4963682Y2493976D01*
X4986024Y2516318D01*
X5001822Y2543681D01*
X5010000Y2574202D01*
Y2605798D01*
X5001822Y2636318D01*
X4986024Y2663682D01*
X4963682Y2686024D01*
X4936319Y2701822D01*
X4935880Y2701940D01*
Y2838126D01*
X4957498D01*
Y2918123D01*
X4957498Y2970234D01*
X4957561Y2976281D01*
X4958881Y3042553D01*
X4959163Y3044692D01*
X4989529Y3063451D01*
X5028777Y3074072D01*
X5168641Y2934208D01*
Y2934207D01*
X5168642Y2934207D01*
X5168644Y2934205D01*
D01*
X5209395Y2893454D01*
X5232245Y2822755D01*
X5217018Y2802910D01*
X5207445Y2779800D01*
X5204180Y2755000D01*
Y2705000D01*
X5207445Y2680200D01*
X5217018Y2657090D01*
X5232245Y2637245D01*
X5252090Y2622018D01*
X5259204Y2619071D01*
X5262734Y2603034D01*
X5261797Y2556693D01*
X5259436Y2546870D01*
X5249367Y2542700D01*
X5228394Y2526607D01*
X5212301Y2505634D01*
X5202184Y2481210D01*
X5198734Y2455000D01*
Y2442700D01*
X5300000D01*
Y2430000D01*
X5312700D01*
Y2305406D01*
X5326210Y2307184D01*
X5350633Y2317301D01*
X5371606Y2333394D01*
X5387699Y2354367D01*
X5397815Y2378790D01*
X5401266Y2405000D01*
X5411891Y2416667D01*
X5462299Y2448553D01*
Y2580000D01*
Y2707162D01*
X5416711Y2734419D01*
X5395819Y2755001D01*
X5392554Y2779800D01*
X5382982Y2802910D01*
X5367754Y2822755D01*
X5356968Y2831032D01*
X5325156Y2869611D01*
X5320355Y2876797D01*
X5313942Y2883210D01*
X5313941Y2883210D01*
X5262211Y2934940D01*
Y2934940D01*
X5262211D01*
X5262211Y2934941D01*
X5262211D01*
X5257421Y2939731D01*
X5276984Y3019163D01*
X5307051Y3028544D01*
X5314168Y3027301D01*
X5333497Y3013601D01*
X5339348Y2999475D01*
X5357952Y2971632D01*
X5381631Y2947953D01*
X5409475Y2929348D01*
X5440413Y2916533D01*
X5473257Y2910000D01*
X5506743D01*
X5539587Y2916533D01*
X5570525Y2929348D01*
X5580000Y2935679D01*
X5634578Y2914736D01*
X5650000Y2900589D01*
Y50000D01*
X5315715D01*
X5294954Y87775D01*
X5287699Y120000D01*
X5297699Y133033D01*
X5307816Y157457D01*
X5309752Y172167D01*
X5110248D01*
X5112184Y157457D01*
X5122301Y133033D01*
X5132301Y120000D01*
X5125046Y87775D01*
X5104285Y50000D01*
X3708427D01*
X3705905Y53395D01*
X3684350Y120000D01*
X3686019Y121669D01*
X3698525Y143331D01*
X3705000Y167493D01*
Y192507D01*
X3698525Y216668D01*
X3686019Y238331D01*
X3668331Y256019D01*
X3646668Y268525D01*
X3622507Y275000D01*
X3597493D01*
X3573331Y268525D01*
X3551669Y256019D01*
X3533981Y238331D01*
X3521474Y216668D01*
X3515000Y192507D01*
Y167493D01*
X3521474Y143331D01*
X3533981Y121669D01*
X3535650Y120000D01*
X3514095Y53395D01*
X3511573Y50000D01*
X3099411D01*
X3075942Y88712D01*
X3067639Y120000D01*
X3080652Y139475D01*
X3093467Y170413D01*
X3100000Y203257D01*
Y236743D01*
X3093467Y269587D01*
X3080652Y300525D01*
X3062047Y328369D01*
X3038369Y352048D01*
X3010525Y370652D01*
X2979587Y383467D01*
X2946743Y390000D01*
X2913257D01*
X2880413Y383467D01*
X2849475Y370652D01*
X2821631Y352048D01*
X2797952Y328369D01*
X2779348Y300525D01*
X2766533Y269587D01*
X2760000Y236743D01*
Y203257D01*
X2766533Y170413D01*
X2779348Y139475D01*
X2792361Y120000D01*
X2784058Y88712D01*
X2760589Y50000D01*
X1791978D01*
X1791771Y50270D01*
X1766817Y118730D01*
X1777809Y137770D01*
X1783500Y159007D01*
Y180993D01*
X1777809Y202230D01*
X1766817Y221270D01*
X1751270Y236817D01*
X1732230Y247810D01*
X1710993Y253500D01*
X1689007D01*
X1669009Y248141D01*
X1522674Y394476D01*
X1516170Y408285D01*
X1560575Y478285D01*
X2257910D01*
Y718285D01*
X1210251D01*
Y1072561D01*
X1223380Y1088338D01*
X1277300Y1120506D01*
Y1210000D01*
Y1299494D01*
X1223380Y1331663D01*
X1210251Y1347439D01*
Y1503100D01*
X2096500Y2389349D01*
X2145405Y2375137D01*
X2168329Y2362183D01*
X2172190Y2347770D01*
X2183183Y2328730D01*
X2192204Y2319709D01*
X2192240Y2319621D01*
X2195772Y2280000D01*
X2192240Y2240379D01*
X2192204Y2240291D01*
X2183183Y2231270D01*
X2172190Y2212230D01*
X2166500Y2190993D01*
Y2169007D01*
X2172190Y2147770D01*
X2175489Y2142057D01*
X2176616Y2102865D01*
X2167901Y2068539D01*
X2160119Y2057269D01*
X2102293Y1999443D01*
X2080524Y1977674D01*
X2080523D01*
X2080521Y1977671D01*
X2076425Y1973575D01*
X2076424Y1973574D01*
X2069197Y1962759D01*
X2066659Y1950000D01*
X2066659Y1944203D01*
D01*
X2066659Y1913417D01*
Y1775797D01*
X2066659Y1775797D01*
X2066659Y1770000D01*
X2069197Y1757245D01*
X2069197Y1757241D01*
X2074177Y1749789D01*
X2074177Y1749788D01*
X2076424Y1746425D01*
X2076424Y1746424D01*
X2080523Y1742326D01*
X2080523Y1742325D01*
X2102292Y1720557D01*
X2126985Y1695865D01*
X2130348Y1693617D01*
X2137801Y1688637D01*
X2138356Y1688527D01*
X2176476Y1660347D01*
X2183183Y1648730D01*
X2198730Y1633183D01*
X2217770Y1622190D01*
X2239007Y1616500D01*
X2260993D01*
X2282230Y1622190D01*
X2301270Y1633183D01*
X2316817Y1648730D01*
X2327810Y1667770D01*
X2333500Y1689007D01*
Y1710993D01*
X2327810Y1732230D01*
X2316817Y1751270D01*
X2307796Y1760291D01*
X2307760Y1760379D01*
X2304228Y1800000D01*
X2307760Y1839621D01*
X2307796Y1839709D01*
X2316817Y1848730D01*
X2327168Y1866659D01*
X2424416D01*
Y1721289D01*
Y1594289D01*
Y1467289D01*
Y1340289D01*
Y1213289D01*
Y1086289D01*
Y959289D01*
Y832289D01*
Y705289D01*
X2566659D01*
Y327168D01*
X2548730Y316817D01*
X2533183Y301270D01*
X2522190Y282230D01*
X2516500Y260993D01*
Y239007D01*
X2522190Y217770D01*
X2533183Y198730D01*
X2548730Y183183D01*
X2567770Y172190D01*
X2589007Y166500D01*
X2610993D01*
X2632230Y172190D01*
X2651270Y183183D01*
X2666817Y198730D01*
X2677809Y217770D01*
X2683500Y239007D01*
Y260993D01*
X2677809Y282230D01*
X2666817Y301270D01*
X2651270Y316817D01*
X2633341Y327168D01*
Y705289D01*
X2636659Y705289D01*
X2664416D01*
Y832289D01*
Y959289D01*
Y992362D01*
X2668959Y997625D01*
X2672886Y1000647D01*
X2732498Y1034162D01*
X2815001D01*
Y959999D01*
Y895000D01*
Y830001D01*
Y725400D01*
X2809601D01*
Y690200D01*
X2905001D01*
X3000401D01*
Y725400D01*
X3000401Y725400D01*
X3016841Y788591D01*
X3041847Y815599D01*
X3059036Y815599D01*
X3187302D01*
Y1099999D01*
X3212702D01*
Y815599D01*
X3334997D01*
X3358152Y815599D01*
X3398180Y772366D01*
X3404998Y755786D01*
Y635001D01*
X3459117D01*
Y539573D01*
X3434999D01*
Y404573D01*
X3574998D01*
Y404573D01*
X3585001D01*
Y404573D01*
X3725001D01*
Y404573D01*
X3772498Y447499D01*
X3907497D01*
Y447498D01*
X3962499Y435000D01*
X3962499Y435000D01*
X3972321Y435000D01*
X4097499D01*
Y509794D01*
X4118760Y575733D01*
X4140972Y576499D01*
X4140993Y576500D01*
X4162230Y582190D01*
X4181270Y593183D01*
X4196817Y608730D01*
X4207810Y627770D01*
X4211730Y642400D01*
X4220451Y652961D01*
X4265829Y678770D01*
X4290000Y662975D01*
Y510000D01*
X4530000D01*
Y510000D01*
X4600000Y526077D01*
X4613682Y518178D01*
X4644202Y510000D01*
X4675798D01*
X4706319Y518178D01*
X4733682Y533976D01*
X4741520Y541815D01*
X4785000Y550518D01*
X4828480Y541815D01*
X4836318Y533976D01*
X4863682Y518178D01*
X4894202Y510000D01*
X4925798D01*
X4956319Y518178D01*
X4983682Y533976D01*
X4991520Y541815D01*
X5035000Y550518D01*
X5078480Y541815D01*
X5086318Y533976D01*
X5113682Y518178D01*
X5144202Y510000D01*
X5175798D01*
X5206319Y518178D01*
X5233682Y533976D01*
X5256024Y556318D01*
X5271822Y583682D01*
X5280000Y614202D01*
Y645798D01*
X5271822Y676318D01*
X5256024Y703682D01*
X5233682Y726024D01*
X5206319Y741822D01*
X5175798Y750000D01*
X5175782D01*
Y1135000D01*
X5175783Y1135001D01*
X5172678Y1150608D01*
X5163837Y1163839D01*
X5163837Y1163840D01*
X5098838Y1228838D01*
X5085607Y1237679D01*
X5070000Y1240784D01*
X5069999Y1240783D01*
X4393894D01*
X4385459Y1253556D01*
X4423116Y1323556D01*
X4474997D01*
X4499797Y1326821D01*
X4522907Y1336394D01*
X4542752Y1351621D01*
X4557980Y1371466D01*
X4567552Y1394576D01*
X4570817Y1419376D01*
Y1769376D01*
X4567552Y1794176D01*
X4557980Y1817286D01*
X4543577Y1836056D01*
X4544254Y1841243D01*
X4567914Y1906056D01*
X4767453D01*
X4784002Y1875987D01*
X4790096Y1836056D01*
X4778134Y1826239D01*
X4759340Y1803338D01*
X4745374Y1777210D01*
X4736774Y1748860D01*
X4733870Y1719376D01*
Y1607077D01*
X4997298D01*
Y1870504D01*
X4924833D01*
X4903149Y1913504D01*
X4897650Y1940504D01*
X4907980Y1953966D01*
X4917553Y1977076D01*
X4920818Y2001876D01*
Y2151876D01*
X4917553Y2176676D01*
X4907980Y2199786D01*
X4892753Y2219631D01*
X4872908Y2234858D01*
X4849798Y2244431D01*
X4824998Y2247696D01*
X4474998D01*
X4450198Y2244431D01*
X4427088Y2234858D01*
X4407243Y2219631D01*
X4392016Y2199786D01*
X4382443Y2176676D01*
X4379178Y2151876D01*
Y2001876D01*
X4382443Y1977076D01*
X4392016Y1953966D01*
X4406419Y1935196D01*
X4405742Y1930009D01*
X4382081Y1865196D01*
X4324998D01*
X4300198Y1861931D01*
X4277088Y1852358D01*
X4257243Y1837131D01*
X4242015Y1817286D01*
X4232443Y1794176D01*
X4229178Y1769376D01*
Y1538106D01*
X4050604D01*
Y1818273D01*
X4048198Y1836546D01*
X4041145Y1853575D01*
X4029925Y1868197D01*
X3789924Y2108198D01*
X3775302Y2119418D01*
X3758273Y2126471D01*
X3740000Y2128877D01*
X3349083D01*
X3346690Y2198877D01*
X3372445Y2224632D01*
X3382391Y2239517D01*
X3385883Y2257075D01*
Y2313361D01*
X3402501Y2331529D01*
X3472501Y2312066D01*
Y2312066D01*
X3520042D01*
X3521728Y2311368D01*
X3540001Y2308962D01*
X3703883D01*
X3711135Y2301710D01*
X3712190Y2297770D01*
X3723183Y2278730D01*
X3738730Y2263183D01*
X3757770Y2252190D01*
X3779007Y2246500D01*
X3800993D01*
X3822230Y2252190D01*
X3841270Y2263183D01*
X3856817Y2278730D01*
X3867810Y2297770D01*
X3873500Y2319007D01*
Y2340993D01*
X3867810Y2362230D01*
X3856817Y2381270D01*
X3841270Y2396817D01*
X3822230Y2407810D01*
X3800993Y2413500D01*
X3799043D01*
X3783052Y2429491D01*
X3768430Y2440711D01*
X3751401Y2447764D01*
X3733128Y2450170D01*
X3672573D01*
X3607501Y2462069D01*
X3607501Y2520170D01*
Y2597068D01*
X3607502D01*
X3612499Y2642497D01*
X3612499D01*
Y2719336D01*
X3617899Y2787098D01*
X3617899Y2845259D01*
Y2847298D01*
X3472099D01*
X3472098Y2787098D01*
X3477499Y2719336D01*
Y2642496D01*
X3408166Y2640884D01*
X3381333D01*
X3379511Y2642101D01*
X3360002Y2645982D01*
X3320002D01*
X3300493Y2642101D01*
X3283954Y2631050D01*
X3272903Y2614511D01*
X3226106Y2591103D01*
X3202061Y2588918D01*
X3196462Y2589426D01*
X3132563Y2607761D01*
X3125335Y2618577D01*
Y2618577D01*
X3123617Y2619726D01*
X3116051Y2631049D01*
X3116050Y2631050D01*
X3099512Y2642101D01*
X3099511Y2642101D01*
X3080002Y2645982D01*
X3067120D01*
X3038156Y2674946D01*
X3023271Y2684892D01*
X3005713Y2688384D01*
X2922499D01*
Y2710002D01*
X2787499D01*
Y2575003D01*
X2787499D01*
X2786116Y2505575D01*
X2784395Y2492500D01*
Y2156204D01*
X2740312Y2101053D01*
X2728006Y2101022D01*
X2664416Y2163835D01*
Y2229289D01*
Y2350889D01*
X2669816D01*
Y2408589D01*
X2544416D01*
Y2433989D01*
X2669816D01*
Y2491689D01*
X2643970D01*
X2639665Y2497300D01*
X2550000D01*
Y2522700D01*
X2638633D01*
X2632842Y2544314D01*
X2621138Y2564586D01*
X2604586Y2581138D01*
X2600000Y2583786D01*
Y2892849D01*
X2921510Y3214360D01*
X3475495D01*
X3487843Y3206481D01*
X3528089Y3152507D01*
Y3127493D01*
X3530392Y3118900D01*
X3530098Y3109068D01*
X3513953Y3065269D01*
X3498286Y3039356D01*
X3495572Y3037002D01*
X3485414Y3031138D01*
X3468862Y3014586D01*
X3457158Y2994314D01*
X3451367Y2972700D01*
X3628633D01*
X3628017Y2975000D01*
X3631572Y3007831D01*
X3658659Y3049773D01*
X3665202Y3054617D01*
X3681420Y3063981D01*
X3699108Y3081669D01*
X3711615Y3103332D01*
X3718089Y3127493D01*
Y3152507D01*
X3758335Y3206481D01*
X3770683Y3214360D01*
X4737278D01*
X4761186Y3172350D01*
D02*
G37*
G36*
X182700Y1791367D02*
X204314Y1797158D01*
X212881Y1802105D01*
X262294D01*
Y1875005D01*
X287694D01*
Y1802105D01*
X350394Y1802104D01*
X396659Y1805791D01*
X466659Y1759659D01*
Y1412269D01*
X396659Y1387003D01*
X389115Y1396091D01*
X395002Y1430004D01*
X395002Y1446542D01*
Y1670004D01*
X155002D01*
Y1448537D01*
X155001Y1430004D01*
X167153Y1360004D01*
X158148Y1344407D01*
X149602Y1312513D01*
Y1308704D01*
X275002D01*
Y1283304D01*
X149602D01*
Y1279495D01*
X158148Y1247602D01*
X174657Y1219007D01*
X184511Y1209153D01*
X193673Y1170385D01*
X185399Y1122107D01*
X178978Y1115686D01*
X163180Y1088322D01*
X155002Y1057802D01*
Y1026206D01*
X163180Y995686D01*
X178978Y968322D01*
X189352Y957948D01*
X196305Y915004D01*
X189352Y872060D01*
X178978Y861686D01*
X163180Y834322D01*
X155002Y803802D01*
Y772206D01*
X163180Y741686D01*
X178978Y714322D01*
X189352Y703948D01*
X196305Y661004D01*
X189352Y618060D01*
X178978Y607686D01*
X163180Y580322D01*
X155002Y549802D01*
Y518206D01*
X163180Y487686D01*
X178978Y460322D01*
X189352Y449948D01*
X196305Y407004D01*
X189352Y364060D01*
X178978Y353686D01*
X163180Y326322D01*
X155002Y295802D01*
Y264206D01*
X163180Y233686D01*
X178978Y206322D01*
X201320Y183980D01*
X228683Y168182D01*
X259203Y160004D01*
X290800D01*
X321320Y168182D01*
X348684Y183980D01*
X371026Y206322D01*
X386824Y233686D01*
X395002Y264206D01*
Y295802D01*
X386824Y326322D01*
X371026Y353686D01*
X360651Y364060D01*
X353699Y407004D01*
X360651Y449948D01*
X371026Y460322D01*
X386824Y487686D01*
X395002Y518206D01*
Y549802D01*
X386824Y580322D01*
X371026Y607686D01*
X360651Y618060D01*
X353699Y661004D01*
X360651Y703948D01*
X371026Y714322D01*
X386824Y741686D01*
X395002Y772206D01*
Y803802D01*
X386824Y834322D01*
X371026Y861686D01*
X360651Y872060D01*
X353699Y915004D01*
X360651Y957948D01*
X371026Y968322D01*
X386824Y995686D01*
X395002Y1026206D01*
Y1057802D01*
X386824Y1088322D01*
X371026Y1115686D01*
X364604Y1122107D01*
X356331Y1170385D01*
X365493Y1209153D01*
X375347Y1219007D01*
X391856Y1247602D01*
X395159Y1259929D01*
X396660Y1265528D01*
X433315Y1260702D01*
X466659Y1204513D01*
Y400328D01*
X466659Y400328D01*
X466659Y389879D01*
X469197Y377123D01*
X469197Y377120D01*
X476424Y366304D01*
X476424Y366304D01*
X483812Y358917D01*
X483812Y358915D01*
X491303Y351425D01*
X491304Y351424D01*
X502118Y344199D01*
X502120Y344197D01*
X514878Y341659D01*
X514879Y341659D01*
X516686Y341659D01*
X525327Y341659D01*
X525328Y341659D01*
X546665Y341659D01*
X1481190D01*
X1621858Y200990D01*
X1616500Y180993D01*
Y159007D01*
X1622190Y137770D01*
X1633183Y118730D01*
X1608229Y50270D01*
X1608022Y50000D01*
X50000D01*
Y1775281D01*
X100103Y1801002D01*
X120000Y1806215D01*
X135686Y1797158D01*
X157300Y1791367D01*
Y1880000D01*
X182700D01*
Y1791367D01*
D02*
G37*
G36*
X2048178Y2435329D02*
X1206932Y1594082D01*
X1157434Y1544585D01*
X1157433Y1544584D01*
X1153335Y1540485D01*
X1146108Y1529669D01*
X1143570Y1516910D01*
Y1511114D01*
X1143569Y1511113D01*
X1143569Y1441113D01*
Y1311658D01*
X1143569Y1241658D01*
Y1178343D01*
D01*
X1143569Y1171658D01*
Y1026568D01*
X1114496Y1005113D01*
X1073569Y985721D01*
X1062700Y988633D01*
Y900000D01*
X1050000D01*
Y887300D01*
X961367D01*
X967158Y865686D01*
X978862Y845414D01*
X979306Y844970D01*
Y598285D01*
X979510Y596736D01*
Y472886D01*
X979510D01*
X966340Y408341D01*
X770705D01*
X765756Y415223D01*
X746428Y478341D01*
X746817Y478730D01*
X757810Y497770D01*
X763500Y519007D01*
Y540993D01*
X757810Y562230D01*
X746817Y581270D01*
X731270Y596817D01*
X712230Y607810D01*
X690993Y613500D01*
X669007D01*
X647770Y607810D01*
X628730Y596817D01*
X613183Y581270D01*
X602190Y562230D01*
X533341Y575739D01*
Y653130D01*
X576414Y705289D01*
X816413D01*
Y832289D01*
Y959289D01*
Y1086289D01*
Y1213289D01*
Y1340289D01*
Y1467289D01*
Y1594289D01*
Y1721289D01*
Y1848289D01*
Y1975289D01*
Y2102289D01*
Y2150084D01*
X839007Y2216500D01*
X860993D01*
X882230Y2222190D01*
X901270Y2233183D01*
X916817Y2248730D01*
X927810Y2267770D01*
X933500Y2289007D01*
Y2310993D01*
X927810Y2332230D01*
X916817Y2351270D01*
X901270Y2366817D01*
X882230Y2377810D01*
X860993Y2383500D01*
X836401Y2422966D01*
X862523Y2496772D01*
X888371Y2500000D01*
X2021390D01*
X2048178Y2435329D01*
D02*
G37*
G36*
X4639217Y983107D02*
Y785392D01*
X4572728Y740187D01*
X4530000Y750000D01*
X4530000Y750000D01*
X4364744D01*
X4358838Y758838D01*
X4288839Y828838D01*
X4275607Y837679D01*
X4260000Y840784D01*
X4259999Y840783D01*
X4251973D01*
X4229617Y865766D01*
X4206887Y910784D01*
X4208633Y917300D01*
X4120000D01*
Y942700D01*
X4208633D01*
X4204877Y956718D01*
X4210201Y975905D01*
X4241197Y1024723D01*
X4243686Y1026719D01*
X4595605D01*
X4639217Y983107D01*
D02*
G37*
%LPC*%
G36*
X3628633Y2947300D02*
X3451367D01*
X3457158Y2925686D01*
X3468862Y2905414D01*
X3472099Y2902178D01*
Y2872698D01*
X3617899D01*
Y2917124D01*
X3622842Y2925686D01*
X3628633Y2947300D01*
D02*
G37*
G36*
X3802700Y2798633D02*
Y2722700D01*
X3878633D01*
X3872842Y2744314D01*
X3861138Y2764586D01*
X3844586Y2781138D01*
X3824314Y2792842D01*
X3802700Y2798633D01*
D02*
G37*
G36*
X3777300D02*
X3755686Y2792842D01*
X3735414Y2781138D01*
X3718862Y2764586D01*
X3707158Y2744314D01*
X3701367Y2722700D01*
X3777300D01*
Y2798633D01*
D02*
G37*
G36*
X3878633Y2697300D02*
X3802700D01*
Y2621367D01*
X3824314Y2627158D01*
X3844586Y2638862D01*
X3861138Y2655414D01*
X3872842Y2675686D01*
X3878633Y2697300D01*
D02*
G37*
G36*
X3777300D02*
X3701367D01*
X3707158Y2675686D01*
X3718862Y2655414D01*
X3735414Y2638862D01*
X3755686Y2627158D01*
X3777300Y2621367D01*
Y2697300D01*
D02*
G37*
G36*
X5487699Y2704595D02*
Y2592700D01*
X5576266D01*
Y2605000D01*
X5572816Y2631210D01*
X5562699Y2655633D01*
X5546606Y2676607D01*
X5525633Y2692699D01*
X5501210Y2702816D01*
X5487699Y2704595D01*
D02*
G37*
G36*
X4280993Y3143500D02*
X4259007D01*
X4237770Y3137810D01*
X4218730Y3126817D01*
X4203183Y3111270D01*
X4192190Y3092230D01*
X4186500Y3070993D01*
Y3049007D01*
X4192190Y3027770D01*
X4203183Y3008730D01*
X4218730Y2993183D01*
X4237770Y2982190D01*
X4259007Y2976500D01*
X4293759Y2936905D01*
X4302500Y2909793D01*
Y2838125D01*
X4324118D01*
Y2690527D01*
X4316318Y2686024D01*
X4293976Y2663682D01*
X4278178Y2636318D01*
X4270000Y2605798D01*
Y2574202D01*
X4278178Y2543681D01*
X4293976Y2516318D01*
X4316318Y2493976D01*
X4343682Y2478178D01*
X4374202Y2470000D01*
X4405798D01*
X4436319Y2478178D01*
X4463682Y2493976D01*
X4467567Y2497861D01*
X4515917Y2508017D01*
X4555685Y2496973D01*
X4563003Y2489655D01*
X4591598Y2473146D01*
X4623491Y2464600D01*
X4627300D01*
Y2590000D01*
Y2715400D01*
X4623491D01*
X4591598Y2706854D01*
X4563003Y2690345D01*
X4555685Y2683027D01*
X4515917Y2671983D01*
X4467567Y2682138D01*
X4463682Y2686024D01*
X4436319Y2701822D01*
X4415881Y2707298D01*
Y2838125D01*
X4437500D01*
Y2918125D01*
X4437500Y2973125D01*
X4437500Y3043126D01*
Y3123125D01*
X4324962D01*
X4321270Y3126817D01*
X4302230Y3137810D01*
X4280993Y3143500D01*
D02*
G37*
G36*
X5576266Y2567300D02*
X5487699D01*
Y2455406D01*
X5501210Y2457184D01*
X5525633Y2467301D01*
X5546606Y2483394D01*
X5562699Y2504367D01*
X5572816Y2528790D01*
X5576266Y2555000D01*
Y2567300D01*
D02*
G37*
G36*
X5287300Y2417300D02*
X5198734D01*
Y2405000D01*
X5202184Y2378790D01*
X5212301Y2354367D01*
X5228394Y2333394D01*
X5249367Y2317301D01*
X5273790Y2307184D01*
X5287300Y2305406D01*
Y2417300D01*
D02*
G37*
G36*
X5134998Y1870504D02*
X5022698D01*
Y1607077D01*
X5286126D01*
Y1719376D01*
X5283222Y1748860D01*
X5274622Y1777210D01*
X5260656Y1803338D01*
X5241861Y1826239D01*
X5218960Y1845034D01*
X5192832Y1859000D01*
X5164481Y1867600D01*
X5134998Y1870504D01*
D02*
G37*
G36*
X5286126Y1581677D02*
X5022698D01*
Y1318248D01*
X5134998D01*
X5164481Y1321152D01*
X5192832Y1329752D01*
X5218960Y1343718D01*
X5241861Y1362513D01*
X5260656Y1385414D01*
X5274622Y1411542D01*
X5283222Y1439892D01*
X5286126Y1469376D01*
Y1581677D01*
D02*
G37*
G36*
X4997298D02*
X4733870D01*
Y1469376D01*
X4736774Y1439892D01*
X4745374Y1411542D01*
X4759340Y1385414D01*
X4778134Y1362513D01*
X4801036Y1343718D01*
X4827164Y1329752D01*
X4855514Y1321152D01*
X4884998Y1318248D01*
X4997298D01*
Y1581677D01*
D02*
G37*
G36*
X1302700Y1298633D02*
Y1222700D01*
X1378633D01*
X1372842Y1244314D01*
X1361138Y1264586D01*
X1344586Y1281138D01*
X1324314Y1292842D01*
X1302700Y1298633D01*
D02*
G37*
G36*
X1378633Y1197300D02*
X1302700D01*
Y1121367D01*
X1324314Y1127159D01*
X1344586Y1138862D01*
X1361138Y1155414D01*
X1372842Y1175686D01*
X1378633Y1197300D01*
D02*
G37*
G36*
X2250993Y1283500D02*
X2229007D01*
X2207770Y1277809D01*
X2188730Y1266817D01*
X2173183Y1251270D01*
X2162190Y1232230D01*
X2156500Y1210993D01*
Y1189007D01*
X2162190Y1167770D01*
X2173183Y1148730D01*
X2188730Y1133183D01*
X2207770Y1122190D01*
X2229007Y1116500D01*
X2250993D01*
X2272230Y1122190D01*
X2291270Y1133183D01*
X2306817Y1148730D01*
X2317810Y1167770D01*
X2323500Y1189007D01*
Y1210993D01*
X2317810Y1232230D01*
X2306817Y1251270D01*
X2291270Y1266817D01*
X2272230Y1277809D01*
X2250993Y1283500D01*
D02*
G37*
G36*
X3000401Y664800D02*
X2905001D01*
X2809601D01*
Y629601D01*
X2809601Y629601D01*
X2809601Y629598D01*
X2811100Y588296D01*
X2817158Y565689D01*
X2817158Y565686D01*
X2818535Y563301D01*
X2828862Y545414D01*
X2845414Y528862D01*
X2865686Y517158D01*
X2887300Y511367D01*
Y600000D01*
X2912700D01*
Y511367D01*
X2934314Y517158D01*
X2954586Y528862D01*
X2971138Y545414D01*
X2971139Y545415D01*
X2982842Y565686D01*
X2994476Y608042D01*
X3000402Y629601D01*
X3000401D01*
Y664800D01*
D02*
G37*
G36*
X5222700Y285661D02*
Y197567D01*
X5309752D01*
X5307816Y212276D01*
X5297699Y236700D01*
X5281606Y257673D01*
X5260633Y273766D01*
X5236210Y283882D01*
X5222700Y285661D01*
D02*
G37*
G36*
X5197300D02*
X5183790Y283882D01*
X5159367Y273766D01*
X5138394Y257673D01*
X5122301Y236700D01*
X5112184Y212276D01*
X5110248Y197567D01*
X5197300D01*
Y285661D01*
D02*
G37*
G36*
X1037300Y988633D02*
X1015686Y982842D01*
X995414Y971138D01*
X978862Y954586D01*
X967158Y934314D01*
X961367Y912700D01*
X1037300D01*
Y988633D01*
D02*
G37*
%LPD*%
D10*
X696413Y1659289D02*
D03*
Y1532289D02*
D03*
Y2421289D02*
D03*
Y2294289D02*
D03*
Y2167289D02*
D03*
Y2040289D02*
D03*
Y1913289D02*
D03*
Y1786289D02*
D03*
Y1024289D02*
D03*
Y1151289D02*
D03*
Y897289D02*
D03*
Y770289D02*
D03*
Y1405289D02*
D03*
Y1278289D02*
D03*
X2544416D02*
D03*
Y897289D02*
D03*
Y1913289D02*
D03*
Y1024289D02*
D03*
Y770289D02*
D03*
Y2167289D02*
D03*
Y2040289D02*
D03*
Y2294289D02*
D03*
Y1786289D02*
D03*
Y1659289D02*
D03*
Y1532289D02*
D03*
Y1405289D02*
D03*
Y1151289D02*
D03*
Y2421289D02*
D03*
D11*
X1049910Y598285D02*
D03*
X1176910D02*
D03*
X2065910D02*
D03*
X1557910D02*
D03*
X1303910D02*
D03*
X1430910D02*
D03*
X1684910D02*
D03*
X1811910D02*
D03*
X1938910D02*
D03*
X2192910D02*
D03*
D12*
X4370000Y2905625D02*
D03*
Y3055625D02*
D03*
X4889998Y3055623D02*
D03*
Y2905626D02*
D03*
X2757497Y1874999D02*
D03*
Y1725002D02*
D03*
X2854999Y2492500D02*
D03*
Y2642502D02*
D03*
X3839998Y665001D02*
D03*
Y514999D02*
D03*
X3544999Y2859998D02*
D03*
X3540001Y2379566D02*
D03*
Y2529568D02*
D03*
X3544999Y2709996D02*
D03*
D13*
X4029999Y505000D02*
D03*
Y655002D02*
D03*
X425001Y2300001D02*
D03*
Y2449998D02*
D03*
X3764998Y1470002D02*
D03*
Y1619999D02*
D03*
D14*
X274994Y1875005D02*
D03*
X424996D02*
D03*
D15*
X425003Y2091660D02*
D03*
X275006D02*
D03*
X3525000Y1930421D02*
D03*
X3375003D02*
D03*
X3374998Y1750005D02*
D03*
X3525000D02*
D03*
D16*
X200001Y2272498D02*
D03*
Y2477501D02*
D03*
D17*
X3340002Y2405000D02*
D03*
Y2595002D02*
D03*
X3060002Y2405000D02*
D03*
Y2500001D02*
D03*
Y2595002D02*
D03*
X3340002Y2500001D02*
D03*
D18*
X3504999Y472073D02*
D03*
X3655001D02*
D03*
X3274998Y2192072D02*
D03*
X3125001D02*
D03*
X3044574Y1750000D02*
D03*
X3194577D02*
D03*
D19*
X3494998Y677500D02*
D03*
Y742499D02*
D03*
Y807503D02*
D03*
Y872501D02*
D03*
Y937500D02*
D03*
Y1002498D02*
D03*
Y1067502D02*
D03*
Y1132501D02*
D03*
Y1197499D02*
D03*
Y1262498D02*
D03*
Y1327502D02*
D03*
Y1392500D02*
D03*
Y1457499D02*
D03*
Y1522502D02*
D03*
X2905001Y677500D02*
D03*
Y742499D02*
D03*
Y807503D02*
D03*
Y872501D02*
D03*
Y937500D02*
D03*
Y1002498D02*
D03*
Y1067502D02*
D03*
Y1132501D02*
D03*
Y1197499D02*
D03*
Y1262498D02*
D03*
Y1327502D02*
D03*
Y1392500D02*
D03*
Y1457499D02*
D03*
Y1522502D02*
D03*
D20*
X3200002Y1099999D02*
D03*
D21*
X3851872Y930003D02*
D03*
X4026873D02*
D03*
X3851872Y1250002D02*
D03*
X4026873D02*
D03*
D22*
X3044574Y1750000D02*
Y1842074D01*
X2970000Y1750000D02*
X3044574D01*
X4845621Y3100000D02*
X4889998Y3055623D01*
X4840000Y3100000D02*
X4845621D01*
X3540001Y2379566D02*
X3733128D01*
X3782694Y2330000D01*
X3790000D01*
X3764998Y1467502D02*
X3980000D01*
X2952929Y2058274D02*
X3740000D01*
X3980000Y1467502D02*
Y1818273D01*
X3740000Y2058274D02*
X3980000Y1818273D01*
X3980000Y1467502D02*
X4301901D01*
X3980000D02*
X3980000Y1467502D01*
X4399998Y1565598D02*
Y1594376D01*
X4301901Y1467502D02*
X4399998Y1565598D01*
X2854999Y2156204D02*
X2952929Y2058274D01*
X3764998Y1743498D02*
X3770000Y1748500D01*
X3764998Y1619999D02*
Y1743498D01*
X696413Y2294289D02*
X836983D01*
X842694Y2300000D01*
X850000D01*
X250000Y2190000D02*
X360001Y2300001D01*
X425001D01*
X4373122Y1567500D02*
X4399998Y1594376D01*
X3284785Y1750000D02*
X3374993D01*
X3194577D02*
X3284785D01*
X3525000Y1750005D02*
Y1930421D01*
X3374993Y1750000D02*
X3374998Y1750005D01*
X696413Y2421289D02*
X698207Y2423083D01*
Y2538207D01*
X700000Y2540000D01*
X255868Y1315138D02*
X275002Y1296004D01*
X1049910Y598285D02*
Y899910D01*
X1050000Y900000D01*
X691413Y2426289D02*
X696413Y2421289D01*
X2757497Y1874999D02*
X2762334Y1879835D01*
Y1997334D01*
X2767500Y2002500D01*
X3132921Y1930421D02*
X3375003D01*
X3044574Y1842074D02*
X3132921Y1930421D01*
X2854999Y2156204D02*
Y2492500D01*
D23*
X2100000Y1770000D02*
Y1950000D01*
X2190289Y2040289D02*
X2544416D01*
X2100000Y1950000D02*
X2190289Y2040289D01*
X514879Y375000D02*
X1495000D01*
X1700000Y170000D01*
X459803Y2124041D02*
X490704D01*
X441663Y2075000D02*
Y2105901D01*
X459803Y2124041D01*
X490704D02*
X533952Y2167289D01*
X696413D01*
X441663Y2075000D02*
X500000D01*
X4365625Y3060000D02*
X4370000Y3055625D01*
X4270000Y3060000D02*
X4365625D01*
X2275521Y2384479D02*
X2350000Y2310000D01*
X2254479Y2384479D02*
X2275521D01*
X2250000Y2380000D02*
X2254479Y2384479D01*
X2528705Y2310000D02*
X2544416Y2294289D01*
X2350000Y2310000D02*
X2528705D01*
X4370000Y2610000D02*
X4390000Y2590000D01*
X5296779Y2733221D02*
X5300000Y2730000D01*
X2907700Y3247700D02*
X4902300D01*
X5296779Y2853221D01*
Y2733221D02*
Y2853221D01*
X1176910Y598285D02*
Y1516910D01*
X2907700Y3247700D01*
X2544416Y2421289D02*
X2550000Y2426873D01*
Y2510000D01*
X2150560Y1719440D02*
X2230560D01*
X2100000Y1770000D02*
X2150560Y1719440D01*
X2251195Y2178805D02*
X2532900D01*
X2250000Y2180000D02*
X2251195Y2178805D01*
X2230560Y1719440D02*
X2250000Y1700000D01*
X2712097Y1437903D02*
Y1510121D01*
X2765000Y1212378D02*
Y1385000D01*
X2712097Y1437903D02*
X2765000Y1385000D01*
X2710000Y1165000D02*
X2742499Y1132501D01*
X2574705Y1375000D02*
X2685121D01*
X2710000Y1165000D02*
Y1350121D01*
X2685121Y1375000D02*
X2710000Y1350121D01*
X2779879Y1197499D02*
X2905001D01*
X2765000Y1212378D02*
X2779879Y1197499D01*
X2532900Y2178805D02*
X2544416Y2167289D01*
X2531127Y1900000D02*
X2544416Y1913289D01*
X2250000Y1900000D02*
X2531127D01*
X500000Y1875000D02*
Y2075000D01*
Y389879D02*
Y1875000D01*
X424996Y1875005D02*
X425001Y1875000D01*
X500000D01*
X425003Y2091660D02*
X441663Y2075000D01*
X500000Y389879D02*
X514879Y375000D01*
X2544416Y770289D02*
X2567700D01*
X2600000Y737989D01*
Y250000D02*
Y737989D01*
X2544416Y1532289D02*
X2551705Y1525000D01*
X2697218D01*
X2712097Y1510121D01*
X2772376Y1457499D02*
X2905001D01*
X2757497Y1472378D02*
Y1725002D01*
Y1472378D02*
X2772376Y1457499D01*
X2544416Y1405289D02*
X2574705Y1375000D01*
X2742499Y1132501D02*
X2905001D01*
X2667637Y1132363D02*
X2732498Y1067502D01*
X2544416Y1151289D02*
X2563342Y1132363D01*
X2667637D01*
X2732498Y1067502D02*
X2905001D01*
X2895201Y1057702D02*
X2905001Y1067502D01*
X3637300Y489774D02*
X3655001Y472073D01*
X3494998Y677500D02*
X3495198D01*
X3504999Y667700D01*
X3060002Y2405000D02*
X3065002Y2400000D01*
X2905001Y1522502D02*
X2914801Y1532302D01*
X3060002Y2595002D02*
X3101760D01*
X2905001Y1392500D02*
Y1457499D01*
D24*
X5070000Y1200000D02*
X5134999Y1135001D01*
Y655001D02*
X5160000Y630000D01*
X5134999Y655001D02*
Y1135001D01*
X4867499Y1132501D02*
X4925000Y1075000D01*
X4910000Y630000D02*
X4925000Y645000D01*
Y1075000D01*
X4612498Y1067502D02*
X4680000Y1000000D01*
X4660000Y630000D02*
X4680000Y650000D01*
Y1000000D01*
X3799805Y800000D02*
X4260000D01*
X4330000Y710000D02*
X4410000Y630000D01*
X4330000Y710000D02*
Y730000D01*
X4260000Y800000D02*
X4330000Y730000D01*
X3710000Y600000D02*
X3767573Y542427D01*
X3812569D01*
X3839998Y514999D01*
X3710000Y600000D02*
Y709326D01*
X3839998Y514999D02*
X4020000D01*
X4029999Y505000D01*
X4032497Y657501D02*
X4127502D01*
X4130000Y660000D01*
X4029999Y655002D02*
X4032497Y657501D01*
X4020000Y665001D02*
X4029999Y655002D01*
X3622498Y1327502D02*
X3734998Y1440002D01*
X3340001Y2500000D02*
X3340002Y2500001D01*
X3210000Y2500000D02*
X3340001D01*
X2902500Y677500D02*
X2905001D01*
X2900000Y675000D02*
X2902500Y677500D01*
X2900000Y600000D02*
Y675000D01*
X3497500Y1522502D02*
X3500000Y1525003D01*
X3494998Y1522502D02*
X3497500D01*
X3500000Y1525003D02*
Y1600000D01*
X4026873Y930003D02*
X4026877Y930000D01*
X4120000D01*
X4026873Y1250002D02*
X4026875Y1250000D01*
X4110000D01*
X3839998Y665001D02*
X4020000D01*
X3581566Y740000D02*
X3637300Y684267D01*
X200000Y2477503D02*
X200001Y2477501D01*
X200000Y2477503D02*
Y2550000D01*
X425001Y2449998D02*
X427501Y2452498D01*
Y2547501D01*
X430000Y2550000D01*
X272496Y1877502D02*
X274994Y1875005D01*
X172498Y1877502D02*
X272496D01*
X170000Y1880000D02*
X172498Y1877502D01*
X3662498Y1262498D02*
X3770000Y1370000D01*
X4150000D02*
X4320000Y1200000D01*
X3770000Y1370000D02*
X4150000D01*
X4320000Y1200000D02*
X5070000D01*
X3662305Y937500D02*
X3799805Y800000D01*
X3494998Y1067502D02*
X4612498D01*
X3494998Y1132501D02*
X4867499D01*
X3525000Y1750005D02*
X3609995D01*
X3640000Y1490000D02*
Y1720000D01*
X3609995Y1750005D02*
X3640000Y1720000D01*
X3280000Y1560000D02*
Y1745215D01*
X3284785Y1750000D01*
X3242503Y1522502D02*
X3280000Y1560000D01*
X2905001Y1522502D02*
X3242503D01*
X3494998Y807503D02*
X3611824D01*
X3710000Y709326D01*
X3494998Y742499D02*
X3497496Y740000D01*
X3581566D01*
X3637300Y489774D02*
Y684267D01*
X3632498Y872501D02*
X3839998Y665001D01*
X3494998Y872501D02*
X3632498D01*
X3494998Y937500D02*
X3662305D01*
X3829369Y920000D02*
X3851872Y942504D01*
X3790000Y920000D02*
X3829369D01*
X3494998Y1002498D02*
X3707502D01*
X3790000Y920000D01*
X3494998Y1457499D02*
X3607499D01*
X3640000Y1490000D01*
X3494998Y1392500D02*
Y1457499D01*
Y1327502D02*
X3622498D01*
X3734998Y1440002D02*
X3737498D01*
X3494998Y1262498D02*
X3662498D01*
X3760000Y1250002D02*
X3851872D01*
X3494998Y1197499D02*
X3707498D01*
X3760000Y1250002D01*
D25*
X3340002Y2595002D02*
X3536789D01*
X3541791Y2590000D02*
Y2706789D01*
X3536789Y2595002D02*
X3541791Y2590000D01*
X4370000Y2610000D02*
Y2905625D01*
X4889998Y2590002D02*
Y2905626D01*
Y2590002D02*
X4890000Y2590000D01*
X4889998Y2905626D02*
X4899177Y2896447D01*
X3504999Y472073D02*
Y667700D01*
X3042708Y2595002D02*
X3060002D01*
X3038089Y2599621D02*
Y2610126D01*
X3005713Y2642502D02*
X3038089Y2610126D01*
Y2599621D02*
X3042708Y2595002D01*
X2854999Y2642502D02*
X3005713D01*
X2862500Y2500001D02*
X3060002D01*
X2854999Y2492500D02*
X2862500Y2500001D01*
X3060002Y2257070D02*
Y2405000D01*
X3340002Y2257075D02*
Y2405000D01*
X3299998Y2217072D02*
X3340002Y2257075D01*
X3299998Y2214572D02*
Y2217072D01*
X3277498Y2192072D02*
X3299998Y2214572D01*
X3274998Y2192072D02*
X3277498D01*
D26*
X4660000Y630000D02*
D03*
X4910000D02*
D03*
X5160000D02*
D03*
X4640000Y2590000D02*
D03*
X4890000D02*
D03*
X4390000D02*
D03*
X275002Y1296004D02*
D03*
Y1042004D02*
D03*
Y788004D02*
D03*
Y534004D02*
D03*
Y280004D02*
D03*
D27*
X4410000Y630000D02*
D03*
D28*
X5490000Y3080000D02*
D03*
X2930000Y220000D02*
D03*
X250000Y3050000D02*
D03*
D29*
X5223089Y3144867D02*
D03*
X5210000Y184867D02*
D03*
D30*
X3623089Y3140000D02*
D03*
X3610000Y180000D02*
D03*
D31*
X5300000Y2430000D02*
D03*
Y2730000D02*
D03*
X5475000Y2580000D02*
D03*
D32*
X4649998Y2076876D02*
D03*
D33*
X4399998Y1594376D02*
D03*
D34*
X5009998D02*
D03*
D35*
X275002Y1550004D02*
D03*
D36*
X2970000Y1750000D02*
D03*
X4840000Y3100000D02*
D03*
X1290000Y1210000D02*
D03*
X2240000Y1200000D02*
D03*
X3790000Y2330000D02*
D03*
X4130000Y660000D02*
D03*
X3790000Y2710000D02*
D03*
X3770000Y1748500D02*
D03*
X3210000Y2500000D02*
D03*
X2900000Y600000D02*
D03*
X3500000Y1600000D02*
D03*
X4120000Y930000D02*
D03*
X4110000Y1250000D02*
D03*
X200000Y2550000D02*
D03*
X1700000Y170000D02*
D03*
X850000Y2300000D02*
D03*
X250000Y2190000D02*
D03*
X430000Y2550000D02*
D03*
X170000Y1880000D02*
D03*
X4270000Y3060000D02*
D03*
X2250000Y2380000D02*
D03*
X3028907Y2193548D02*
D03*
X3540000Y2960000D02*
D03*
X2550000Y2510000D02*
D03*
X700000Y2540000D02*
D03*
X2250000Y2180000D02*
D03*
Y1700000D02*
D03*
X1050000Y900000D02*
D03*
X2767500Y2002500D02*
D03*
X680000Y530000D02*
D03*
X2250000Y1900000D02*
D03*
X2600000Y250000D02*
D03*
D37*
X3309999Y879999D02*
D03*
X3200002D02*
D03*
X3090000D02*
D03*
X3309999Y990002D02*
D03*
X3200002D02*
D03*
X3090000D02*
D03*
X3309999Y1099999D02*
D03*
X3200002D02*
D03*
X3090000D02*
D03*
X3309999Y1210001D02*
D03*
X3200002D02*
D03*
X3090000D02*
D03*
X3309999Y1319998D02*
D03*
X3200002D02*
D03*
X3090000D02*
D03*
%TF.MD5,a5f150fe1f258aeadfb41aaa20f785d1*%
M02*
