%TF.GenerationSoftware,Altium Limited,Altium Designer,23.4.1 (23)*%
G04 Layer_Physical_Order=3*
G04 Layer_Color=16440176*
%FSLAX45Y45*%
%MOMM*%
%TF.SameCoordinates,95043EA5-DFE4-4E97-A360-3BE786514F03*%
%TF.FilePolarity,Positive*%
%TF.FileFunction,Copper,L3,Inr,Signal*%
%TF.Part,Single*%
G01*
G75*
%TA.AperFunction,ComponentPad*%
%ADD26C,2.00000*%
%ADD27R,2.00000X2.00000*%
%TA.AperFunction,ViaPad*%
%ADD28C,3.00000*%
%TA.AperFunction,ComponentPad*%
%ADD29O,1.50000X1.52400*%
%ADD30C,1.50000*%
%ADD31O,1.50000X2.00000*%
G04:AMPARAMS|DCode=32|XSize=5mm|YSize=3mm|CornerRadius=0.75mm|HoleSize=0mm|Usage=FLASHONLY|Rotation=180.000|XOffset=0mm|YOffset=0mm|HoleType=Round|Shape=RoundedRectangle|*
%AMROUNDEDRECTD32*
21,1,5.00000,1.50000,0,0,180.0*
21,1,3.50000,3.00000,0,0,180.0*
1,1,1.50000,-1.75000,0.75000*
1,1,1.50000,1.75000,0.75000*
1,1,1.50000,1.75000,-0.75000*
1,1,1.50000,-1.75000,-0.75000*
%
%ADD32ROUNDEDRECTD32*%
G04:AMPARAMS|DCode=33|XSize=3mm|YSize=5mm|CornerRadius=0.75mm|HoleSize=0mm|Usage=FLASHONLY|Rotation=180.000|XOffset=0mm|YOffset=0mm|HoleType=Round|Shape=RoundedRectangle|*
%AMROUNDEDRECTD33*
21,1,3.00000,3.50000,0,0,180.0*
21,1,1.50000,5.00000,0,0,180.0*
1,1,1.50000,-0.75000,1.75000*
1,1,1.50000,0.75000,1.75000*
1,1,1.50000,0.75000,-1.75000*
1,1,1.50000,-0.75000,-1.75000*
%
%ADD33ROUNDEDRECTD33*%
G04:AMPARAMS|DCode=34|XSize=5mm|YSize=5mm|CornerRadius=1.25mm|HoleSize=0mm|Usage=FLASHONLY|Rotation=180.000|XOffset=0mm|YOffset=0mm|HoleType=Round|Shape=RoundedRectangle|*
%AMROUNDEDRECTD34*
21,1,5.00000,2.50000,0,0,180.0*
21,1,2.50000,5.00000,0,0,180.0*
1,1,2.50000,-1.25000,1.25000*
1,1,2.50000,1.25000,1.25000*
1,1,2.50000,1.25000,-1.25000*
1,1,2.50000,-1.25000,-1.25000*
%
%ADD34ROUNDEDRECTD34*%
%ADD35R,2.00000X2.00000*%
%TA.AperFunction,ViaPad*%
%ADD36C,1.27000*%
%ADD37C,0.50000*%
G36*
X5161032Y3225000D02*
X5151483Y3217673D01*
X5135390Y3196700D01*
X5125274Y3172277D01*
X5123337Y3157567D01*
X5223089D01*
Y3144867D01*
X5235789D01*
Y3044072D01*
X5249299Y3045851D01*
X5273722Y3055967D01*
X5294696Y3072060D01*
X5295000Y3072457D01*
X5320000Y3063971D01*
Y3063257D01*
X5326533Y3030413D01*
X5339348Y2999475D01*
X5357952Y2971632D01*
X5381631Y2947953D01*
X5409475Y2929348D01*
X5440413Y2916533D01*
X5473257Y2910000D01*
X5506743D01*
X5539587Y2916533D01*
X5570525Y2929348D01*
X5598369Y2947953D01*
X5622047Y2971632D01*
X5625000Y2976050D01*
X5650000Y2968467D01*
Y50000D01*
X3026567D01*
X3018984Y75000D01*
X3038369Y87953D01*
X3062047Y111631D01*
X3080652Y139475D01*
X3093467Y170413D01*
X3100000Y203257D01*
Y236743D01*
X3093467Y269587D01*
X3080652Y300525D01*
X3062047Y328369D01*
X3038369Y352048D01*
X3010525Y370652D01*
X2979587Y383467D01*
X2946743Y390000D01*
X2913257D01*
X2880413Y383467D01*
X2849475Y370652D01*
X2821631Y352048D01*
X2797952Y328369D01*
X2779348Y300525D01*
X2766533Y269587D01*
X2760000Y236743D01*
Y203257D01*
X2766533Y170413D01*
X2779348Y139475D01*
X2797952Y111631D01*
X2821631Y87953D01*
X2841016Y75000D01*
X2833433Y50000D01*
X50000D01*
Y2500000D01*
X126215D01*
X128862Y2495414D01*
X145414Y2478862D01*
X165686Y2467158D01*
X187300Y2461367D01*
Y2550000D01*
X212700D01*
Y2461367D01*
X234314Y2467158D01*
X254586Y2478862D01*
X271138Y2495414D01*
X273786Y2500000D01*
X356214D01*
X358862Y2495414D01*
X375414Y2478862D01*
X395686Y2467158D01*
X417300Y2461367D01*
Y2550000D01*
X442700D01*
Y2461367D01*
X464314Y2467158D01*
X484586Y2478862D01*
X501138Y2495414D01*
X503785Y2500000D01*
X620441D01*
X628862Y2485414D01*
X645414Y2468862D01*
X665686Y2457158D01*
X687300Y2451367D01*
Y2540000D01*
X712700D01*
Y2451367D01*
X734314Y2457158D01*
X754586Y2468862D01*
X771138Y2485414D01*
X779559Y2500000D01*
X2461100D01*
Y2498296D01*
X2467158Y2475686D01*
X2478862Y2455414D01*
X2495414Y2438862D01*
X2515686Y2427158D01*
X2537300Y2421367D01*
Y2510000D01*
X2550000D01*
Y2522700D01*
X2638633D01*
X2632842Y2544314D01*
X2621138Y2564586D01*
X2604586Y2581138D01*
X2600000Y2583786D01*
Y3250000D01*
X3573616D01*
X3580314Y3225000D01*
X3564758Y3216019D01*
X3547071Y3198331D01*
X3534564Y3176669D01*
X3528089Y3152507D01*
Y3127493D01*
X3534564Y3103332D01*
X3547071Y3081669D01*
X3555980Y3072759D01*
X3555177Y3068275D01*
X3544484Y3048900D01*
X3528296D01*
X3505686Y3042842D01*
X3485414Y3031138D01*
X3468862Y3014586D01*
X3457158Y2994314D01*
X3451367Y2972700D01*
X3628633D01*
X3622842Y2994314D01*
X3611138Y3014586D01*
X3604783Y3020940D01*
X3607258Y3031208D01*
X3616079Y3045000D01*
X3635596D01*
X3659758Y3051474D01*
X3681420Y3063981D01*
X3699108Y3081669D01*
X3711615Y3103332D01*
X3718089Y3127493D01*
Y3152507D01*
X3711615Y3176669D01*
X3699108Y3198331D01*
X3681420Y3216019D01*
X3665864Y3225000D01*
X3672563Y3250000D01*
X5152546D01*
X5161032Y3225000D01*
D02*
G37*
%LPC*%
G36*
X5210389Y3132167D02*
X5123337D01*
X5125274Y3117457D01*
X5135390Y3093033D01*
X5151483Y3072060D01*
X5172456Y3055967D01*
X5196880Y3045851D01*
X5210389Y3044072D01*
Y3132167D01*
D02*
G37*
G36*
X4850993Y3183500D02*
X4829007D01*
X4807770Y3177809D01*
X4788730Y3166817D01*
X4773183Y3151270D01*
X4762190Y3132230D01*
X4756500Y3110993D01*
Y3089007D01*
X4762190Y3067770D01*
X4773183Y3048730D01*
X4788730Y3033183D01*
X4807770Y3022190D01*
X4829007Y3016500D01*
X4850993D01*
X4872230Y3022190D01*
X4891270Y3033183D01*
X4906817Y3048730D01*
X4917810Y3067770D01*
X4923500Y3089007D01*
Y3110993D01*
X4917810Y3132230D01*
X4906817Y3151270D01*
X4891270Y3166817D01*
X4872230Y3177809D01*
X4850993Y3183500D01*
D02*
G37*
G36*
X4280993Y3143500D02*
X4259007D01*
X4237770Y3137810D01*
X4218730Y3126817D01*
X4203183Y3111270D01*
X4192190Y3092230D01*
X4186500Y3070993D01*
Y3049007D01*
X4192190Y3027770D01*
X4203183Y3008730D01*
X4218730Y2993183D01*
X4237770Y2982190D01*
X4259007Y2976500D01*
X4280993D01*
X4302230Y2982190D01*
X4321270Y2993183D01*
X4336817Y3008730D01*
X4347810Y3027770D01*
X4353500Y3049007D01*
Y3070993D01*
X4347810Y3092230D01*
X4336817Y3111270D01*
X4321270Y3126817D01*
X4302230Y3137810D01*
X4280993Y3143500D01*
D02*
G37*
G36*
X3628633Y2947300D02*
X3552700D01*
Y2871367D01*
X3574314Y2877158D01*
X3594586Y2888862D01*
X3611138Y2905414D01*
X3622842Y2925686D01*
X3628633Y2947300D01*
D02*
G37*
G36*
X3527300D02*
X3451367D01*
X3457158Y2925686D01*
X3468862Y2905414D01*
X3485414Y2888862D01*
X3505686Y2877158D01*
X3527300Y2871367D01*
Y2947300D01*
D02*
G37*
G36*
X3802700Y2798633D02*
Y2722700D01*
X3878633D01*
X3872842Y2744314D01*
X3861138Y2764586D01*
X3844586Y2781138D01*
X3824314Y2792842D01*
X3802700Y2798633D01*
D02*
G37*
G36*
X3777300D02*
X3755686Y2792842D01*
X3735414Y2781138D01*
X3718862Y2764586D01*
X3707158Y2744314D01*
X3701367Y2722700D01*
X3777300D01*
Y2798633D01*
D02*
G37*
G36*
X4627300Y2715400D02*
X4623491D01*
X4591598Y2706854D01*
X4563003Y2690345D01*
X4539655Y2666997D01*
X4525804Y2643006D01*
X4516312Y2640359D01*
X4512263Y2640143D01*
X4498328Y2642372D01*
X4486024Y2663682D01*
X4463682Y2686024D01*
X4436319Y2701822D01*
X4405798Y2710000D01*
X4374202D01*
X4343682Y2701822D01*
X4316318Y2686024D01*
X4293976Y2663682D01*
X4278178Y2636318D01*
X4270000Y2605798D01*
Y2574202D01*
X4278178Y2543681D01*
X4293976Y2516318D01*
X4316318Y2493976D01*
X4343682Y2478178D01*
X4374202Y2470000D01*
X4405798D01*
X4436319Y2478178D01*
X4463682Y2493976D01*
X4486024Y2516318D01*
X4498328Y2537628D01*
X4512263Y2539857D01*
X4516312Y2539641D01*
X4525804Y2536994D01*
X4539655Y2513003D01*
X4563003Y2489655D01*
X4591598Y2473146D01*
X4623491Y2464600D01*
X4627300D01*
Y2590000D01*
Y2715400D01*
D02*
G37*
G36*
X3878633Y2697300D02*
X3802700D01*
Y2621367D01*
X3824314Y2627158D01*
X3844586Y2638862D01*
X3861138Y2655414D01*
X3872842Y2675686D01*
X3878633Y2697300D01*
D02*
G37*
G36*
X3777300D02*
X3701367D01*
X3707158Y2675686D01*
X3718862Y2655414D01*
X3735414Y2638862D01*
X3755686Y2627158D01*
X3777300Y2621367D01*
Y2697300D01*
D02*
G37*
G36*
X5487699Y2704595D02*
Y2592700D01*
X5576266D01*
Y2605000D01*
X5572816Y2631210D01*
X5562699Y2655633D01*
X5546606Y2676607D01*
X5525633Y2692699D01*
X5501210Y2702816D01*
X5487699Y2704595D01*
D02*
G37*
G36*
X5300000Y2850820D02*
X5275200Y2847555D01*
X5252090Y2837982D01*
X5232245Y2822755D01*
X5217018Y2802910D01*
X5207445Y2779800D01*
X5204180Y2755000D01*
Y2705000D01*
X5207445Y2680200D01*
X5217018Y2657090D01*
X5232245Y2637245D01*
X5252090Y2622018D01*
X5275200Y2612445D01*
X5300000Y2609180D01*
X5324800Y2612445D01*
X5347910Y2622018D01*
X5351078Y2624449D01*
X5374513Y2610920D01*
X5373734Y2605000D01*
Y2592700D01*
X5462299D01*
Y2704595D01*
X5448790Y2702816D01*
X5424367Y2692699D01*
X5418859Y2688473D01*
X5395425Y2702003D01*
X5395819Y2705000D01*
Y2755000D01*
X5392554Y2779800D01*
X5382982Y2802910D01*
X5367754Y2822755D01*
X5347910Y2837982D01*
X5324800Y2847555D01*
X5300000Y2850820D01*
D02*
G37*
G36*
X5462299Y2567300D02*
X5373734D01*
Y2556486D01*
X5370122Y2553077D01*
X5350633Y2542700D01*
X5326210Y2552816D01*
X5312700Y2554595D01*
Y2442700D01*
X5401266D01*
Y2453515D01*
X5404878Y2456923D01*
X5424367Y2467301D01*
X5448790Y2457184D01*
X5462299Y2455406D01*
Y2567300D01*
D02*
G37*
G36*
X3222700Y2588633D02*
Y2512700D01*
X3298633D01*
X3292842Y2534314D01*
X3281138Y2554586D01*
X3264586Y2571138D01*
X3244314Y2582842D01*
X3222700Y2588633D01*
D02*
G37*
G36*
X3197300D02*
X3175686Y2582842D01*
X3155414Y2571138D01*
X3138862Y2554586D01*
X3127158Y2534314D01*
X3121367Y2512700D01*
X3197300D01*
Y2588633D01*
D02*
G37*
G36*
X4656509Y2715400D02*
X4652700D01*
Y2590000D01*
Y2464600D01*
X4656509D01*
X4688403Y2473146D01*
X4716997Y2489655D01*
X4740345Y2513003D01*
X4754196Y2536994D01*
X4763688Y2539641D01*
X4767737Y2539857D01*
X4781673Y2537628D01*
X4793976Y2516318D01*
X4816318Y2493976D01*
X4843682Y2478178D01*
X4874202Y2470000D01*
X4905798D01*
X4936319Y2478178D01*
X4963682Y2493976D01*
X4986024Y2516318D01*
X5001822Y2543681D01*
X5010000Y2574202D01*
Y2605798D01*
X5001822Y2636318D01*
X4986024Y2663682D01*
X4963682Y2686024D01*
X4936319Y2701822D01*
X4905798Y2710000D01*
X4874202D01*
X4843682Y2701822D01*
X4816318Y2686024D01*
X4793976Y2663682D01*
X4781673Y2642372D01*
X4767737Y2640143D01*
X4763688Y2640359D01*
X4754196Y2643006D01*
X4740345Y2666997D01*
X4716997Y2690345D01*
X4688403Y2706854D01*
X4656509Y2715400D01*
D02*
G37*
G36*
X5576266Y2567300D02*
X5487699D01*
Y2455406D01*
X5501210Y2457184D01*
X5525633Y2467301D01*
X5546606Y2483394D01*
X5562699Y2504367D01*
X5572816Y2528790D01*
X5576266Y2555000D01*
Y2567300D01*
D02*
G37*
G36*
X5287300Y2554595D02*
X5273790Y2552816D01*
X5249367Y2542700D01*
X5228394Y2526607D01*
X5212301Y2505634D01*
X5202184Y2481210D01*
X5198734Y2455000D01*
Y2442700D01*
X5287300D01*
Y2554595D01*
D02*
G37*
G36*
X2638633Y2497300D02*
X2562700D01*
Y2421367D01*
X2584314Y2427158D01*
X2604586Y2438862D01*
X2621138Y2455414D01*
X2632842Y2475686D01*
X2638633Y2497300D01*
D02*
G37*
G36*
X3298633Y2487300D02*
X3222700D01*
Y2411367D01*
X3244314Y2417158D01*
X3264586Y2428862D01*
X3281138Y2445414D01*
X3292842Y2465686D01*
X3298633Y2487300D01*
D02*
G37*
G36*
X3197300D02*
X3121367D01*
X3127158Y2465686D01*
X3138862Y2445414D01*
X3155414Y2428862D01*
X3175686Y2417158D01*
X3197300Y2411367D01*
Y2487300D01*
D02*
G37*
G36*
X5401266Y2417300D02*
X5312700D01*
Y2305406D01*
X5326210Y2307184D01*
X5350633Y2317301D01*
X5371606Y2333394D01*
X5387699Y2354367D01*
X5397815Y2378790D01*
X5401266Y2405000D01*
Y2417300D01*
D02*
G37*
G36*
X5287300D02*
X5198734D01*
Y2405000D01*
X5202184Y2378790D01*
X5212301Y2354367D01*
X5228394Y2333394D01*
X5249367Y2317301D01*
X5273790Y2307184D01*
X5287300Y2305406D01*
Y2417300D01*
D02*
G37*
G36*
X2260993Y2463500D02*
X2239007D01*
X2217770Y2457810D01*
X2198730Y2446817D01*
X2183183Y2431270D01*
X2172190Y2412230D01*
X2166500Y2390993D01*
Y2369007D01*
X2172190Y2347770D01*
X2183183Y2328730D01*
X2198730Y2313183D01*
X2217770Y2302190D01*
X2239007Y2296500D01*
X2260993D01*
X2282230Y2302190D01*
X2301270Y2313183D01*
X2316817Y2328730D01*
X2327810Y2347770D01*
X2333500Y2369007D01*
Y2390993D01*
X2327810Y2412230D01*
X2316817Y2431270D01*
X2301270Y2446817D01*
X2282230Y2457810D01*
X2260993Y2463500D01*
D02*
G37*
G36*
X3800993Y2413500D02*
X3779007D01*
X3757770Y2407810D01*
X3738730Y2396817D01*
X3723183Y2381270D01*
X3712190Y2362230D01*
X3706500Y2340993D01*
Y2319007D01*
X3712190Y2297770D01*
X3723183Y2278730D01*
X3738730Y2263183D01*
X3757770Y2252190D01*
X3779007Y2246500D01*
X3800993D01*
X3822230Y2252190D01*
X3841270Y2263183D01*
X3856817Y2278730D01*
X3867810Y2297770D01*
X3873500Y2319007D01*
Y2340993D01*
X3867810Y2362230D01*
X3856817Y2381270D01*
X3841270Y2396817D01*
X3822230Y2407810D01*
X3800993Y2413500D01*
D02*
G37*
G36*
X860993Y2383500D02*
X839007D01*
X817770Y2377810D01*
X798730Y2366817D01*
X783183Y2351270D01*
X772190Y2332230D01*
X766500Y2310993D01*
Y2289007D01*
X772190Y2267770D01*
X783183Y2248730D01*
X798730Y2233183D01*
X817770Y2222190D01*
X839007Y2216500D01*
X860993D01*
X882230Y2222190D01*
X901270Y2233183D01*
X916817Y2248730D01*
X927810Y2267770D01*
X933500Y2289007D01*
Y2310993D01*
X927810Y2332230D01*
X916817Y2351270D01*
X901270Y2366817D01*
X882230Y2377810D01*
X860993Y2383500D01*
D02*
G37*
G36*
X3039899Y2277048D02*
X3017914D01*
X2996677Y2271357D01*
X2977636Y2260365D01*
X2962090Y2244818D01*
X2951097Y2225778D01*
X2945407Y2204541D01*
Y2182555D01*
X2951097Y2161318D01*
X2962090Y2142278D01*
X2977636Y2126731D01*
X2996677Y2115738D01*
X3017914Y2110048D01*
X3039899D01*
X3061136Y2115738D01*
X3080177Y2126731D01*
X3095723Y2142278D01*
X3106716Y2161318D01*
X3112407Y2182555D01*
Y2204541D01*
X3106716Y2225778D01*
X3095723Y2244818D01*
X3080177Y2260365D01*
X3061136Y2271357D01*
X3039899Y2277048D01*
D02*
G37*
G36*
X260993Y2273500D02*
X239007D01*
X217770Y2267810D01*
X198730Y2256817D01*
X183183Y2241270D01*
X172190Y2222230D01*
X166500Y2200993D01*
Y2179007D01*
X172190Y2157770D01*
X183183Y2138730D01*
X198730Y2123183D01*
X217770Y2112190D01*
X239007Y2106500D01*
X260993D01*
X282230Y2112190D01*
X301270Y2123183D01*
X316817Y2138730D01*
X327810Y2157770D01*
X333500Y2179007D01*
Y2200993D01*
X327810Y2222230D01*
X316817Y2241270D01*
X301270Y2256817D01*
X282230Y2267810D01*
X260993Y2273500D01*
D02*
G37*
G36*
X2260993Y2263500D02*
X2239007D01*
X2217770Y2257810D01*
X2198730Y2246817D01*
X2183183Y2231270D01*
X2172190Y2212230D01*
X2166500Y2190993D01*
Y2169007D01*
X2172190Y2147770D01*
X2183183Y2128730D01*
X2198730Y2113183D01*
X2217770Y2102190D01*
X2239007Y2096500D01*
X2260993D01*
X2282230Y2102190D01*
X2301270Y2113183D01*
X2316817Y2128730D01*
X2327810Y2147770D01*
X2333500Y2169007D01*
Y2190993D01*
X2327810Y2212230D01*
X2316817Y2231270D01*
X2301270Y2246817D01*
X2282230Y2257810D01*
X2260993Y2263500D01*
D02*
G37*
G36*
X2778493Y2086000D02*
X2756507D01*
X2735270Y2080310D01*
X2716230Y2069317D01*
X2700683Y2053770D01*
X2689690Y2034730D01*
X2684000Y2013493D01*
Y1991507D01*
X2689690Y1970270D01*
X2700683Y1951230D01*
X2716230Y1935683D01*
X2735270Y1924690D01*
X2756507Y1919000D01*
X2778493D01*
X2799730Y1924690D01*
X2818770Y1935683D01*
X2834317Y1951230D01*
X2845310Y1970270D01*
X2851000Y1991507D01*
Y2013493D01*
X2845310Y2034730D01*
X2834317Y2053770D01*
X2818770Y2069317D01*
X2799730Y2080310D01*
X2778493Y2086000D01*
D02*
G37*
G36*
X4824998Y2247696D02*
X4474998D01*
X4450198Y2244431D01*
X4427088Y2234858D01*
X4407243Y2219631D01*
X4392016Y2199786D01*
X4382443Y2176676D01*
X4379178Y2151876D01*
Y2001876D01*
X4382443Y1977076D01*
X4392016Y1953966D01*
X4407243Y1934121D01*
X4427088Y1918894D01*
X4450198Y1909321D01*
X4474998Y1906056D01*
X4824998D01*
X4849798Y1909321D01*
X4872908Y1918894D01*
X4892753Y1934121D01*
X4907980Y1953966D01*
X4917553Y1977076D01*
X4920818Y2001876D01*
Y2151876D01*
X4917553Y2176676D01*
X4907980Y2199786D01*
X4892753Y2219631D01*
X4872908Y2234858D01*
X4849798Y2244431D01*
X4824998Y2247696D01*
D02*
G37*
G36*
X182700Y1968633D02*
Y1892700D01*
X258633D01*
X252842Y1914314D01*
X241138Y1934586D01*
X224586Y1951138D01*
X204314Y1962842D01*
X182700Y1968633D01*
D02*
G37*
G36*
X157300D02*
X135686Y1962842D01*
X115414Y1951138D01*
X98862Y1934586D01*
X87158Y1914314D01*
X81367Y1892700D01*
X157300D01*
Y1968633D01*
D02*
G37*
G36*
X2260993Y1983500D02*
X2239007D01*
X2217770Y1977810D01*
X2198730Y1966817D01*
X2183183Y1951270D01*
X2172190Y1932230D01*
X2166500Y1910993D01*
Y1889007D01*
X2172190Y1867770D01*
X2183183Y1848730D01*
X2198730Y1833183D01*
X2217770Y1822190D01*
X2239007Y1816500D01*
X2260993D01*
X2282230Y1822190D01*
X2301270Y1833183D01*
X2316817Y1848730D01*
X2327810Y1867770D01*
X2333500Y1889007D01*
Y1910993D01*
X2327810Y1932230D01*
X2316817Y1951270D01*
X2301270Y1966817D01*
X2282230Y1977810D01*
X2260993Y1983500D01*
D02*
G37*
G36*
X258633Y1867300D02*
X182700D01*
Y1791367D01*
X204314Y1797158D01*
X224586Y1808862D01*
X241138Y1825414D01*
X252842Y1845686D01*
X258633Y1867300D01*
D02*
G37*
G36*
X157300D02*
X81367D01*
X87158Y1845686D01*
X98862Y1825414D01*
X115414Y1808862D01*
X135686Y1797158D01*
X157300Y1791367D01*
Y1867300D01*
D02*
G37*
G36*
X2982700Y1838633D02*
Y1762700D01*
X3058633D01*
X3052841Y1784314D01*
X3041138Y1804586D01*
X3024586Y1821138D01*
X3004314Y1832842D01*
X2982700Y1838633D01*
D02*
G37*
G36*
X2957300D02*
X2935686Y1832842D01*
X2915414Y1821138D01*
X2898862Y1804586D01*
X2887158Y1784314D01*
X2881367Y1762700D01*
X2957300D01*
Y1838633D01*
D02*
G37*
G36*
X3782700Y1837133D02*
Y1761200D01*
X3858633D01*
X3852842Y1782814D01*
X3841138Y1803086D01*
X3824586Y1819638D01*
X3804314Y1831342D01*
X3782700Y1837133D01*
D02*
G37*
G36*
X3757300D02*
X3735686Y1831342D01*
X3715414Y1819638D01*
X3698862Y1803086D01*
X3687158Y1782814D01*
X3681367Y1761200D01*
X3757300D01*
Y1837133D01*
D02*
G37*
G36*
X3058633Y1737300D02*
X2982700D01*
Y1661367D01*
X3004314Y1667158D01*
X3024586Y1678862D01*
X3041138Y1695414D01*
X3052841Y1715686D01*
X3058633Y1737300D01*
D02*
G37*
G36*
X2957300D02*
X2881367D01*
X2887158Y1715686D01*
X2898862Y1695414D01*
X2915414Y1678862D01*
X2935686Y1667158D01*
X2957300Y1661367D01*
Y1737300D01*
D02*
G37*
G36*
X3858633Y1735800D02*
X3782700D01*
Y1659867D01*
X3804314Y1665658D01*
X3824586Y1677362D01*
X3841138Y1693914D01*
X3852842Y1714186D01*
X3858633Y1735800D01*
D02*
G37*
G36*
X3757300D02*
X3681367D01*
X3687158Y1714186D01*
X3698862Y1693914D01*
X3715414Y1677362D01*
X3735686Y1665658D01*
X3757300Y1659867D01*
Y1735800D01*
D02*
G37*
G36*
X2260993Y1783500D02*
X2239007D01*
X2217770Y1777809D01*
X2198730Y1766817D01*
X2183183Y1751270D01*
X2172190Y1732230D01*
X2166500Y1710993D01*
Y1689007D01*
X2172190Y1667770D01*
X2183183Y1648730D01*
X2198730Y1633183D01*
X2217770Y1622190D01*
X2239007Y1616500D01*
X2260993D01*
X2282230Y1622190D01*
X2301270Y1633183D01*
X2316817Y1648730D01*
X2327810Y1667770D01*
X2333500Y1689007D01*
Y1710993D01*
X2327810Y1732230D01*
X2316817Y1751270D01*
X2301270Y1766817D01*
X2282230Y1777809D01*
X2260993Y1783500D01*
D02*
G37*
G36*
X3512700Y1688633D02*
Y1612700D01*
X3588633D01*
X3582842Y1634314D01*
X3571138Y1654586D01*
X3554586Y1671138D01*
X3534314Y1682842D01*
X3512700Y1688633D01*
D02*
G37*
G36*
X3487300D02*
X3465686Y1682842D01*
X3445414Y1671138D01*
X3428862Y1654586D01*
X3417159Y1634314D01*
X3411367Y1612700D01*
X3487300D01*
Y1688633D01*
D02*
G37*
G36*
X5134998Y1871074D02*
X5022698D01*
Y1607077D01*
X5286696D01*
Y1719376D01*
X5281527Y1758638D01*
X5266372Y1795225D01*
X5242264Y1826643D01*
X5210847Y1850750D01*
X5174260Y1865905D01*
X5134998Y1871074D01*
D02*
G37*
G36*
X4997298D02*
X4884998D01*
X4845736Y1865905D01*
X4809149Y1850750D01*
X4777731Y1826643D01*
X4753624Y1795225D01*
X4738469Y1758638D01*
X4733300Y1719376D01*
Y1607077D01*
X4997298D01*
Y1871074D01*
D02*
G37*
G36*
X3588633Y1587300D02*
X3512700D01*
Y1511367D01*
X3534314Y1517159D01*
X3554586Y1528862D01*
X3571138Y1545414D01*
X3582842Y1565686D01*
X3588633Y1587300D01*
D02*
G37*
G36*
X3487300D02*
X3411367D01*
X3417159Y1565686D01*
X3428862Y1545414D01*
X3445414Y1528862D01*
X3465686Y1517159D01*
X3487300Y1511367D01*
Y1587300D01*
D02*
G37*
G36*
X3322699Y1369290D02*
Y1332698D01*
X3359291D01*
X3352726Y1348548D01*
X3338549Y1362725D01*
X3322699Y1369290D01*
D02*
G37*
G36*
X3297299D02*
X3281450Y1362725D01*
X3267272Y1348548D01*
X3260707Y1332698D01*
X3297299D01*
Y1369290D01*
D02*
G37*
G36*
X3212702D02*
Y1332698D01*
X3249294D01*
X3242729Y1348548D01*
X3228551Y1362725D01*
X3212702Y1369290D01*
D02*
G37*
G36*
X3187302D02*
X3171453Y1362725D01*
X3157275Y1348548D01*
X3150710Y1332698D01*
X3187302D01*
Y1369290D01*
D02*
G37*
G36*
X3102700D02*
Y1332698D01*
X3139292D01*
X3132727Y1348548D01*
X3118549Y1362725D01*
X3102700Y1369290D01*
D02*
G37*
G36*
X3077300D02*
X3061450Y1362725D01*
X3047273Y1348548D01*
X3040708Y1332698D01*
X3077300D01*
Y1369290D01*
D02*
G37*
G36*
X4474997Y1865196D02*
X4324998D01*
X4300198Y1861931D01*
X4277088Y1852358D01*
X4257243Y1837131D01*
X4242015Y1817286D01*
X4232443Y1794176D01*
X4229178Y1769376D01*
Y1419376D01*
X4232443Y1394576D01*
X4242015Y1371466D01*
X4257243Y1351621D01*
X4277088Y1336394D01*
X4300198Y1326821D01*
X4324998Y1323556D01*
X4474997D01*
X4499797Y1326821D01*
X4522907Y1336394D01*
X4542752Y1351621D01*
X4557980Y1371466D01*
X4567552Y1394576D01*
X4570817Y1419376D01*
Y1769376D01*
X4567552Y1794176D01*
X4557980Y1817286D01*
X4542752Y1837131D01*
X4522907Y1852358D01*
X4499797Y1861931D01*
X4474997Y1865196D01*
D02*
G37*
G36*
X5286696Y1581677D02*
X5022698D01*
Y1317678D01*
X5134998D01*
X5174260Y1322847D01*
X5210847Y1338002D01*
X5242264Y1362110D01*
X5266372Y1393527D01*
X5281527Y1430114D01*
X5286696Y1469376D01*
Y1581677D01*
D02*
G37*
G36*
X4997298D02*
X4733300D01*
Y1469376D01*
X4738469Y1430114D01*
X4753624Y1393527D01*
X4777731Y1362110D01*
X4809149Y1338002D01*
X4845736Y1322847D01*
X4884998Y1317678D01*
X4997298D01*
Y1581677D01*
D02*
G37*
G36*
X395002Y1670004D02*
X155002D01*
Y1430004D01*
X206297D01*
X212995Y1405004D01*
X198004Y1396349D01*
X174657Y1373001D01*
X158148Y1344407D01*
X149602Y1312513D01*
Y1308704D01*
X275002D01*
X400402D01*
Y1312513D01*
X391856Y1344407D01*
X375347Y1373001D01*
X351999Y1396349D01*
X337008Y1405004D01*
X343707Y1430004D01*
X395002D01*
Y1670004D01*
D02*
G37*
G36*
X3359291Y1307298D02*
X3322699D01*
Y1270706D01*
X3338549Y1277272D01*
X3352726Y1291449D01*
X3359291Y1307298D01*
D02*
G37*
G36*
X3297299D02*
X3260707D01*
X3267272Y1291449D01*
X3281450Y1277272D01*
X3297299Y1270706D01*
Y1307298D01*
D02*
G37*
G36*
X3249294D02*
X3212702D01*
Y1270706D01*
X3228551Y1277272D01*
X3242729Y1291449D01*
X3249294Y1307298D01*
D02*
G37*
G36*
X3187302D02*
X3150710D01*
X3157275Y1291449D01*
X3171453Y1277272D01*
X3187302Y1270706D01*
Y1307298D01*
D02*
G37*
G36*
X3139292D02*
X3102700D01*
Y1270706D01*
X3118549Y1277272D01*
X3132727Y1291449D01*
X3139292Y1307298D01*
D02*
G37*
G36*
X3077300D02*
X3040708D01*
X3047273Y1291449D01*
X3061450Y1277272D01*
X3077300Y1270706D01*
Y1307298D01*
D02*
G37*
G36*
X4122700Y1338633D02*
Y1262700D01*
X4198633D01*
X4192841Y1284314D01*
X4181138Y1304586D01*
X4164586Y1321138D01*
X4144314Y1332842D01*
X4122700Y1338633D01*
D02*
G37*
G36*
X4097300D02*
X4075686Y1332842D01*
X4055414Y1321138D01*
X4038862Y1304586D01*
X4027158Y1284314D01*
X4021367Y1262700D01*
X4097300D01*
Y1338633D01*
D02*
G37*
G36*
X3322699Y1259293D02*
Y1222701D01*
X3359291D01*
X3352726Y1238550D01*
X3340328Y1250949D01*
D01*
X3338549Y1252728D01*
X3322699Y1259293D01*
D02*
G37*
G36*
X3297299D02*
X3281450Y1252728D01*
X3267272Y1238550D01*
X3260707Y1222701D01*
X3297299D01*
Y1259293D01*
D02*
G37*
G36*
X3212702D02*
Y1222701D01*
X3249294D01*
X3242729Y1238550D01*
X3228551Y1252728D01*
X3212702Y1259293D01*
D02*
G37*
G36*
X3187302D02*
X3171453Y1252728D01*
X3157275Y1238550D01*
X3150710Y1222701D01*
X3187302D01*
Y1259293D01*
D02*
G37*
G36*
X3102700D02*
Y1222701D01*
X3139292D01*
X3132727Y1238550D01*
X3118549Y1252728D01*
X3102700Y1259293D01*
D02*
G37*
G36*
X3077300D02*
X3061450Y1252728D01*
X3047273Y1238550D01*
X3040708Y1222701D01*
X3077300D01*
Y1259293D01*
D02*
G37*
G36*
X1302700Y1298633D02*
Y1222700D01*
X1378633D01*
X1372842Y1244314D01*
X1361138Y1264586D01*
X1344586Y1281138D01*
X1324314Y1292842D01*
X1302700Y1298633D01*
D02*
G37*
G36*
X1277300D02*
X1255686Y1292842D01*
X1235414Y1281138D01*
X1218862Y1264586D01*
X1207158Y1244314D01*
X1201367Y1222700D01*
X1277300D01*
Y1298633D01*
D02*
G37*
G36*
X4198633Y1237300D02*
X4122700D01*
Y1161367D01*
X4144314Y1167158D01*
X4164586Y1178862D01*
X4181138Y1195414D01*
X4192841Y1215686D01*
X4198633Y1237300D01*
D02*
G37*
G36*
X4097300D02*
X4021367D01*
X4027158Y1215686D01*
X4038862Y1195414D01*
X4055414Y1178862D01*
X4075686Y1167158D01*
X4097300Y1161367D01*
Y1237300D01*
D02*
G37*
G36*
X3359291Y1197301D02*
X3322699D01*
Y1160709D01*
X3338549Y1167274D01*
X3340324Y1169050D01*
D01*
X3352726Y1181452D01*
X3359291Y1197301D01*
D02*
G37*
G36*
X3297299D02*
X3260707D01*
X3267272Y1181452D01*
X3281450Y1167274D01*
X3297299Y1160709D01*
Y1197301D01*
D02*
G37*
G36*
X3249294D02*
X3212702D01*
Y1160709D01*
X3228551Y1167274D01*
X3242729Y1181452D01*
X3249294Y1197301D01*
D02*
G37*
G36*
X3187302D02*
X3150710D01*
X3157275Y1181452D01*
X3171453Y1167274D01*
X3187302Y1160709D01*
Y1197301D01*
D02*
G37*
G36*
X3139292D02*
X3102700D01*
Y1160709D01*
X3118549Y1167274D01*
X3132727Y1181452D01*
X3139292Y1197301D01*
D02*
G37*
G36*
X3077300D02*
X3040708D01*
X3047273Y1181452D01*
X3059675Y1169050D01*
D01*
X3061450Y1167274D01*
X3077300Y1160709D01*
Y1197301D01*
D02*
G37*
G36*
X1378633Y1197300D02*
X1302700D01*
Y1121367D01*
X1324314Y1127159D01*
X1344586Y1138862D01*
X1361138Y1155414D01*
X1372842Y1175686D01*
X1378633Y1197300D01*
D02*
G37*
G36*
X1277300D02*
X1201367D01*
X1207158Y1175686D01*
X1218862Y1155414D01*
X1235414Y1138862D01*
X1255686Y1127159D01*
X1277300Y1121367D01*
Y1197300D01*
D02*
G37*
G36*
X2250993Y1283500D02*
X2229007D01*
X2207770Y1277809D01*
X2188730Y1266817D01*
X2173183Y1251270D01*
X2162190Y1232230D01*
X2156500Y1210993D01*
Y1189007D01*
X2162190Y1167770D01*
X2173183Y1148730D01*
X2188730Y1133183D01*
X2207770Y1122190D01*
X2229007Y1116500D01*
X2250993D01*
X2272230Y1122190D01*
X2291270Y1133183D01*
X2306817Y1148730D01*
X2317810Y1167770D01*
X2323500Y1189007D01*
Y1210993D01*
X2317810Y1232230D01*
X2306817Y1251270D01*
X2291270Y1266817D01*
X2272230Y1277809D01*
X2250993Y1283500D01*
D02*
G37*
G36*
X3322699Y1149291D02*
Y1112699D01*
X3359291D01*
X3352726Y1128548D01*
X3340324Y1140950D01*
D01*
X3338549Y1142726D01*
X3322699Y1149291D01*
D02*
G37*
G36*
X3297299D02*
X3281450Y1142726D01*
X3267272Y1128548D01*
X3260707Y1112699D01*
X3297299D01*
Y1149291D01*
D02*
G37*
G36*
X3212702D02*
Y1112699D01*
X3249294D01*
X3242729Y1128548D01*
X3228551Y1142726D01*
X3212702Y1149291D01*
D02*
G37*
G36*
X3187302D02*
X3171453Y1142726D01*
X3157275Y1128548D01*
X3150710Y1112699D01*
X3187302D01*
Y1149291D01*
D02*
G37*
G36*
X3102700D02*
Y1112699D01*
X3139292D01*
X3132727Y1128548D01*
X3118549Y1142726D01*
X3102700Y1149291D01*
D02*
G37*
G36*
X3077300D02*
X3061450Y1142726D01*
X3059675Y1140950D01*
D01*
X3057587Y1138862D01*
X3047273Y1128548D01*
X3040708Y1112699D01*
X3077300D01*
Y1149291D01*
D02*
G37*
G36*
X3359291Y1087299D02*
X3322699D01*
Y1050707D01*
X3338549Y1057272D01*
X3352726Y1071449D01*
X3359291Y1087299D01*
D02*
G37*
G36*
X3297299D02*
X3260707D01*
X3267272Y1071449D01*
X3281450Y1057272D01*
X3297299Y1050707D01*
Y1087299D01*
D02*
G37*
G36*
X3249294D02*
X3212702D01*
Y1050707D01*
X3228551Y1057272D01*
X3242729Y1071449D01*
X3249294Y1087299D01*
D02*
G37*
G36*
X3187302D02*
X3150710D01*
X3157275Y1071449D01*
X3171453Y1057272D01*
X3187302Y1050707D01*
Y1087299D01*
D02*
G37*
G36*
X3139292D02*
X3102700D01*
Y1050707D01*
X3118549Y1057272D01*
X3132727Y1071449D01*
X3139292Y1087299D01*
D02*
G37*
G36*
X3077300D02*
X3040708D01*
X3047273Y1071449D01*
X3061450Y1057272D01*
X3077300Y1050707D01*
Y1087299D01*
D02*
G37*
G36*
X3322699Y1039294D02*
Y1002702D01*
X3359291D01*
X3352726Y1018551D01*
X3340328Y1030949D01*
D01*
X3338549Y1032728D01*
X3322699Y1039294D01*
D02*
G37*
G36*
X3297299D02*
X3281450Y1032728D01*
X3267272Y1018551D01*
X3260707Y1002702D01*
X3297299D01*
Y1039294D01*
D02*
G37*
G36*
X3212702D02*
Y1002702D01*
X3249294D01*
X3242729Y1018551D01*
X3228551Y1032728D01*
X3212702Y1039294D01*
D02*
G37*
G36*
X3187302D02*
X3171453Y1032728D01*
X3157275Y1018551D01*
X3150710Y1002702D01*
X3187302D01*
Y1039294D01*
D02*
G37*
G36*
X3102700D02*
Y1002702D01*
X3139292D01*
X3132727Y1018551D01*
X3118549Y1032728D01*
X3102700Y1039294D01*
D02*
G37*
G36*
X3077300D02*
X3061450Y1032728D01*
X3047273Y1018551D01*
X3040708Y1002702D01*
X3077300D01*
Y1039294D01*
D02*
G37*
G36*
X4132700Y1018633D02*
Y942700D01*
X4208633D01*
X4202841Y964314D01*
X4191138Y984586D01*
X4174586Y1001138D01*
X4154314Y1012842D01*
X4132700Y1018633D01*
D02*
G37*
G36*
X4107300D02*
X4085686Y1012842D01*
X4065414Y1001138D01*
X4048862Y984586D01*
X4037158Y964314D01*
X4031367Y942700D01*
X4107300D01*
Y1018633D01*
D02*
G37*
G36*
X3359291Y977302D02*
X3322699D01*
Y940710D01*
X3338549Y947275D01*
X3340324Y949050D01*
D01*
X3352726Y961452D01*
X3359291Y977302D01*
D02*
G37*
G36*
X3297299D02*
X3260707D01*
X3267272Y961452D01*
X3281450Y947275D01*
X3297299Y940710D01*
Y977302D01*
D02*
G37*
G36*
X3249294D02*
X3212702D01*
Y940710D01*
X3228551Y947275D01*
X3242729Y961452D01*
X3249294Y977302D01*
D02*
G37*
G36*
X3187302D02*
X3150710D01*
X3157275Y961452D01*
X3171453Y947275D01*
X3187302Y940710D01*
Y977302D01*
D02*
G37*
G36*
X3139292D02*
X3102700D01*
Y940710D01*
X3118549Y947275D01*
X3132727Y961452D01*
X3139292Y977302D01*
D02*
G37*
G36*
X3077300D02*
X3040708D01*
X3047273Y961452D01*
X3059675Y949050D01*
D01*
X3061450Y947275D01*
X3077300Y940710D01*
Y977302D01*
D02*
G37*
G36*
X1062700Y988633D02*
Y912700D01*
X1138633D01*
X1132842Y934314D01*
X1121138Y954586D01*
X1104586Y971138D01*
X1084314Y982842D01*
X1062700Y988633D01*
D02*
G37*
G36*
X1037300D02*
X1015686Y982842D01*
X995414Y971138D01*
X978862Y954586D01*
X967158Y934314D01*
X961367Y912700D01*
X1037300D01*
Y988633D01*
D02*
G37*
G36*
X3322699Y929291D02*
Y892699D01*
X3359291D01*
X3352726Y908549D01*
X3340324Y920950D01*
D01*
X3338549Y922726D01*
X3322699Y929291D01*
D02*
G37*
G36*
X3297299D02*
X3281450Y922726D01*
X3267272Y908549D01*
X3260707Y892699D01*
X3297299D01*
Y929291D01*
D02*
G37*
G36*
X3212702D02*
Y892699D01*
X3249294D01*
X3242729Y908549D01*
X3228551Y922726D01*
X3212702Y929291D01*
D02*
G37*
G36*
X3187302D02*
X3171453Y922726D01*
X3157275Y908549D01*
X3150710Y892699D01*
X3187302D01*
Y929291D01*
D02*
G37*
G36*
X3102700D02*
Y892699D01*
X3139292D01*
X3132727Y908549D01*
X3118549Y922726D01*
X3102700Y929291D01*
D02*
G37*
G36*
X3077300D02*
X3061450Y922726D01*
X3059675Y920950D01*
D01*
X3056024Y917300D01*
X3047273Y908549D01*
X3040708Y892699D01*
X3077300D01*
Y929291D01*
D02*
G37*
G36*
X4208633Y917300D02*
X4132700D01*
Y841367D01*
X4154314Y847158D01*
X4174586Y858862D01*
X4191138Y875414D01*
X4202841Y895686D01*
X4208633Y917300D01*
D02*
G37*
G36*
X4107300D02*
X4031367D01*
X4037158Y895686D01*
X4048862Y875414D01*
X4065414Y858862D01*
X4085686Y847158D01*
X4107300Y841367D01*
Y917300D01*
D02*
G37*
G36*
X3359291Y867299D02*
X3322699D01*
Y830707D01*
X3338549Y837272D01*
X3352726Y851450D01*
X3359291Y867299D01*
D02*
G37*
G36*
X3297299D02*
X3260707D01*
X3267272Y851450D01*
X3281450Y837272D01*
X3297299Y830707D01*
Y867299D01*
D02*
G37*
G36*
X3249294D02*
X3212702D01*
Y830707D01*
X3228551Y837272D01*
X3232646Y841367D01*
X3242729Y851450D01*
X3249294Y867299D01*
D02*
G37*
G36*
X3187302D02*
X3150710D01*
X3157275Y851450D01*
X3171453Y837272D01*
X3187302Y830707D01*
Y867299D01*
D02*
G37*
G36*
X3139292D02*
X3102700D01*
Y830707D01*
X3118549Y837272D01*
X3122643Y841367D01*
X3132727Y851450D01*
X3139292Y867299D01*
D02*
G37*
G36*
X3077300D02*
X3040708D01*
X3047273Y851450D01*
X3061450Y837272D01*
X3077300Y830707D01*
Y867299D01*
D02*
G37*
G36*
X1138633Y887300D02*
X1062700D01*
Y811367D01*
X1084314Y817158D01*
X1104586Y828862D01*
X1121138Y845414D01*
X1132842Y865686D01*
X1138633Y887300D01*
D02*
G37*
G36*
X1037300D02*
X961367D01*
X967158Y865686D01*
X978862Y845414D01*
X995414Y828862D01*
X1015686Y817158D01*
X1037300Y811367D01*
Y887300D01*
D02*
G37*
G36*
X5175798Y750000D02*
X5144202D01*
X5113682Y741822D01*
X5086318Y726024D01*
X5063976Y703682D01*
X5048178Y676318D01*
X5047941Y675435D01*
X5022059D01*
X5021822Y676318D01*
X5006024Y703682D01*
X4983682Y726024D01*
X4956319Y741822D01*
X4925798Y750000D01*
X4894202D01*
X4863682Y741822D01*
X4836318Y726024D01*
X4813976Y703682D01*
X4798178Y676318D01*
X4797941Y675435D01*
X4772059D01*
X4771822Y676318D01*
X4756024Y703682D01*
X4733682Y726024D01*
X4706319Y741822D01*
X4675798Y750000D01*
X4644202D01*
X4613682Y741822D01*
X4586318Y726024D01*
X4563976Y703682D01*
X4555000Y688135D01*
X4530000Y694834D01*
Y750000D01*
X4290000D01*
Y510000D01*
X4530000D01*
Y565166D01*
X4555000Y571865D01*
X4563976Y556318D01*
X4586318Y533976D01*
X4613682Y518178D01*
X4644202Y510000D01*
X4675798D01*
X4706319Y518178D01*
X4733682Y533976D01*
X4756024Y556318D01*
X4771822Y583682D01*
X4772059Y584566D01*
X4797941D01*
X4798178Y583682D01*
X4813976Y556318D01*
X4836318Y533976D01*
X4863682Y518178D01*
X4894202Y510000D01*
X4925798D01*
X4956319Y518178D01*
X4983682Y533976D01*
X5006024Y556318D01*
X5021822Y583682D01*
X5022059Y584566D01*
X5047941D01*
X5048178Y583682D01*
X5063976Y556318D01*
X5086318Y533976D01*
X5113682Y518178D01*
X5144202Y510000D01*
X5175798D01*
X5206319Y518178D01*
X5233682Y533976D01*
X5256024Y556318D01*
X5271822Y583682D01*
X5280000Y614202D01*
Y645798D01*
X5271822Y676318D01*
X5256024Y703682D01*
X5233682Y726024D01*
X5206319Y741822D01*
X5175798Y750000D01*
D02*
G37*
G36*
X2912700Y688633D02*
Y612700D01*
X2988633D01*
X2982842Y634314D01*
X2971138Y654586D01*
X2954586Y671138D01*
X2934314Y682842D01*
X2912700Y688633D01*
D02*
G37*
G36*
X2887300D02*
X2865686Y682842D01*
X2845414Y671138D01*
X2828862Y654586D01*
X2817158Y634314D01*
X2811367Y612700D01*
X2887300D01*
Y688633D01*
D02*
G37*
G36*
X4140993Y743500D02*
X4119007D01*
X4097770Y737810D01*
X4078730Y726817D01*
X4063183Y711270D01*
X4052191Y692230D01*
X4046500Y670993D01*
Y649007D01*
X4052191Y627770D01*
X4063183Y608730D01*
X4078730Y593183D01*
X4097770Y582190D01*
X4119007Y576500D01*
X4140993D01*
X4162230Y582190D01*
X4181270Y593183D01*
X4196817Y608730D01*
X4207810Y627770D01*
X4213500Y649007D01*
Y670993D01*
X4207810Y692230D01*
X4196817Y711270D01*
X4181270Y726817D01*
X4162230Y737810D01*
X4140993Y743500D01*
D02*
G37*
G36*
X2988633Y587300D02*
X2912700D01*
Y511367D01*
X2934314Y517158D01*
X2954586Y528862D01*
X2971138Y545414D01*
X2982842Y565686D01*
X2988633Y587300D01*
D02*
G37*
G36*
X2887300D02*
X2811367D01*
X2817158Y565686D01*
X2828862Y545414D01*
X2845414Y528862D01*
X2865686Y517158D01*
X2887300Y511367D01*
Y587300D01*
D02*
G37*
G36*
X690993Y613500D02*
X669007D01*
X647770Y607810D01*
X628730Y596817D01*
X613183Y581270D01*
X602190Y562230D01*
X596500Y540993D01*
Y519007D01*
X602190Y497770D01*
X613183Y478730D01*
X628730Y463183D01*
X647770Y452190D01*
X669007Y446500D01*
X690993D01*
X712230Y452190D01*
X731270Y463183D01*
X746817Y478730D01*
X757810Y497770D01*
X763500Y519007D01*
Y540993D01*
X757810Y562230D01*
X746817Y581270D01*
X731270Y596817D01*
X712230Y607810D01*
X690993Y613500D01*
D02*
G37*
G36*
X5222700Y285661D02*
Y197567D01*
X5309752D01*
X5307816Y212276D01*
X5297699Y236700D01*
X5281606Y257673D01*
X5260633Y273766D01*
X5236210Y283882D01*
X5222700Y285661D01*
D02*
G37*
G36*
X5197300D02*
X5183790Y283882D01*
X5159367Y273766D01*
X5138394Y257673D01*
X5122301Y236700D01*
X5112184Y212276D01*
X5110248Y197567D01*
X5197300D01*
Y285661D01*
D02*
G37*
G36*
X2610993Y333500D02*
X2589007D01*
X2567770Y327810D01*
X2548730Y316817D01*
X2533183Y301270D01*
X2522190Y282230D01*
X2516500Y260993D01*
Y239007D01*
X2522190Y217770D01*
X2533183Y198730D01*
X2548730Y183183D01*
X2567770Y172190D01*
X2589007Y166500D01*
X2610993D01*
X2632230Y172190D01*
X2651270Y183183D01*
X2666817Y198730D01*
X2677809Y217770D01*
X2683500Y239007D01*
Y260993D01*
X2677809Y282230D01*
X2666817Y301270D01*
X2651270Y316817D01*
X2632230Y327810D01*
X2610993Y333500D01*
D02*
G37*
G36*
X400402Y1283304D02*
X275002D01*
X149602D01*
Y1279495D01*
X158148Y1247602D01*
X174657Y1219007D01*
X198004Y1195659D01*
X226599Y1179150D01*
X228348Y1157904D01*
X227362Y1153063D01*
X201320Y1138028D01*
X178978Y1115686D01*
X163180Y1088322D01*
X155002Y1057802D01*
Y1026206D01*
X163180Y995686D01*
X178978Y968322D01*
X201320Y945980D01*
X228683Y930182D01*
X237031Y927945D01*
Y902063D01*
X228683Y899826D01*
X201320Y884028D01*
X178978Y861686D01*
X163180Y834322D01*
X155002Y803802D01*
Y772206D01*
X163180Y741686D01*
X178978Y714322D01*
X201320Y691980D01*
X228683Y676182D01*
X237031Y673945D01*
Y648063D01*
X228683Y645826D01*
X201320Y630028D01*
X178978Y607686D01*
X163180Y580322D01*
X155002Y549802D01*
Y518206D01*
X163180Y487686D01*
X178978Y460322D01*
X201320Y437980D01*
X228683Y422182D01*
X237031Y419945D01*
Y394063D01*
X228683Y391826D01*
X201320Y376028D01*
X178978Y353686D01*
X163180Y326322D01*
X155002Y295802D01*
Y264206D01*
X163180Y233686D01*
X178978Y206322D01*
X201320Y183980D01*
X228683Y168182D01*
X259203Y160004D01*
X290800D01*
X321320Y168182D01*
X348684Y183980D01*
X371026Y206322D01*
X386824Y233686D01*
X395002Y264206D01*
Y295802D01*
X386824Y326322D01*
X371026Y353686D01*
X348684Y376028D01*
X321320Y391826D01*
X312972Y394063D01*
Y419945D01*
X321320Y422182D01*
X348684Y437980D01*
X371026Y460322D01*
X386824Y487686D01*
X395002Y518206D01*
Y549802D01*
X386824Y580322D01*
X371026Y607686D01*
X348684Y630028D01*
X321320Y645826D01*
X312972Y648063D01*
Y673945D01*
X321320Y676182D01*
X348684Y691980D01*
X371026Y714322D01*
X386824Y741686D01*
X395002Y772206D01*
Y803802D01*
X386824Y834322D01*
X371026Y861686D01*
X348684Y884028D01*
X321320Y899826D01*
X312972Y902063D01*
Y927945D01*
X321320Y930182D01*
X348684Y945980D01*
X371026Y968322D01*
X386824Y995686D01*
X395002Y1026206D01*
Y1057802D01*
X386824Y1088322D01*
X371026Y1115686D01*
X348684Y1138028D01*
X322641Y1153063D01*
X321656Y1157904D01*
X323404Y1179150D01*
X351999Y1195659D01*
X375347Y1219007D01*
X391856Y1247602D01*
X400402Y1279495D01*
Y1283304D01*
D02*
G37*
G36*
X1710993Y253500D02*
X1689007D01*
X1667770Y247810D01*
X1648730Y236817D01*
X1633183Y221270D01*
X1622190Y202230D01*
X1616500Y180993D01*
Y159007D01*
X1622190Y137770D01*
X1633183Y118730D01*
X1648730Y103183D01*
X1667770Y92190D01*
X1689007Y86500D01*
X1710993D01*
X1732230Y92190D01*
X1751270Y103183D01*
X1766817Y118730D01*
X1777809Y137770D01*
X1783500Y159007D01*
Y180993D01*
X1777809Y202230D01*
X1766817Y221270D01*
X1751270Y236817D01*
X1732230Y247810D01*
X1710993Y253500D01*
D02*
G37*
G36*
X3622507Y275000D02*
X3597493D01*
X3573331Y268525D01*
X3551669Y256019D01*
X3533981Y238331D01*
X3521474Y216668D01*
X3515000Y192507D01*
Y167493D01*
X3521474Y143331D01*
X3533981Y121669D01*
X3551669Y103981D01*
X3573331Y91474D01*
X3597493Y85000D01*
X3622507D01*
X3646668Y91474D01*
X3668331Y103981D01*
X3686019Y121669D01*
X3698525Y143331D01*
X3705000Y167493D01*
Y192507D01*
X3698525Y216668D01*
X3686019Y238331D01*
X3668331Y256019D01*
X3646668Y268525D01*
X3622507Y275000D01*
D02*
G37*
G36*
X5309752Y172167D02*
X5222700D01*
Y84072D01*
X5236210Y85851D01*
X5260633Y95967D01*
X5281606Y112060D01*
X5297699Y133033D01*
X5307816Y157457D01*
X5309752Y172167D01*
D02*
G37*
G36*
X5197300D02*
X5110248D01*
X5112184Y157457D01*
X5122301Y133033D01*
X5138394Y112060D01*
X5159367Y95967D01*
X5183790Y85851D01*
X5197300Y84072D01*
Y172167D01*
D02*
G37*
%LPD*%
D26*
X4660000Y630000D02*
D03*
X4910000D02*
D03*
X5160000D02*
D03*
X4640000Y2590000D02*
D03*
X4890000D02*
D03*
X4390000D02*
D03*
X275002Y1296004D02*
D03*
Y1042004D02*
D03*
Y788004D02*
D03*
Y534004D02*
D03*
Y280004D02*
D03*
D27*
X4410000Y630000D02*
D03*
D28*
X5490000Y3080000D02*
D03*
X2930000Y220000D02*
D03*
X250000Y3050000D02*
D03*
D29*
X5223089Y3144867D02*
D03*
X5210000Y184867D02*
D03*
D30*
X3623089Y3140000D02*
D03*
X3610000Y180000D02*
D03*
D31*
X5300000Y2430000D02*
D03*
Y2730000D02*
D03*
X5475000Y2580000D02*
D03*
D32*
X4649998Y2076876D02*
D03*
D33*
X4399998Y1594376D02*
D03*
D34*
X5009998D02*
D03*
D35*
X275002Y1550004D02*
D03*
D36*
X2970000Y1750000D02*
D03*
X4840000Y3100000D02*
D03*
X1290000Y1210000D02*
D03*
X2240000Y1200000D02*
D03*
X3790000Y2330000D02*
D03*
X4130000Y660000D02*
D03*
X3790000Y2710000D02*
D03*
X3770000Y1748500D02*
D03*
X3210000Y2500000D02*
D03*
X2900000Y600000D02*
D03*
X3500000Y1600000D02*
D03*
X4120000Y930000D02*
D03*
X4110000Y1250000D02*
D03*
X200000Y2550000D02*
D03*
X1700000Y170000D02*
D03*
X850000Y2300000D02*
D03*
X250000Y2190000D02*
D03*
X430000Y2550000D02*
D03*
X170000Y1880000D02*
D03*
X4270000Y3060000D02*
D03*
X2250000Y2380000D02*
D03*
X3028907Y2193548D02*
D03*
X3540000Y2960000D02*
D03*
X2550000Y2510000D02*
D03*
X700000Y2540000D02*
D03*
X2250000Y2180000D02*
D03*
Y1700000D02*
D03*
X1050000Y900000D02*
D03*
X2767500Y2002500D02*
D03*
X680000Y530000D02*
D03*
X2250000Y1900000D02*
D03*
X2600000Y250000D02*
D03*
D37*
X3309999Y879999D02*
D03*
X3200002D02*
D03*
X3090000D02*
D03*
X3309999Y990002D02*
D03*
X3200002D02*
D03*
X3090000D02*
D03*
X3309999Y1099999D02*
D03*
X3200002D02*
D03*
X3090000D02*
D03*
X3309999Y1210001D02*
D03*
X3200002D02*
D03*
X3090000D02*
D03*
X3309999Y1319998D02*
D03*
X3200002D02*
D03*
X3090000D02*
D03*
%TF.MD5,4c96a06475b8e478469ff4a6f6fb6017*%
M02*
